<svg width="24" height="24" viewBox="0 0 24 24" fill="none" xmlns="http://www.w3.org/2000/svg">
<g id="bx:drink">
<path id="Vector" d="M20.832 4.555C20.9325 4.4044 20.9902 4.22935 20.9989 4.04852C21.0077 3.86769 20.9673 3.68786 20.8818 3.52823C20.7964 3.36861 20.6693 3.23516 20.514 3.14213C20.3587 3.0491 20.181 2.99997 20 3H3.99997C3.81909 3.00009 3.64162 3.04925 3.48646 3.14223C3.3313 3.23521 3.20427 3.36853 3.11889 3.528C3.03351 3.68747 2.99299 3.86711 3.00163 4.04778C3.01027 4.22846 3.06776 4.40341 3.16797 4.554L11 16.303V20H7.99997V22H16V20H13V16.303L20.832 4.555ZM12 14.197L8.53497 9H15.465L12 14.197ZM18.132 5L16.799 7H7.20097L5.86797 5H18.132Z" fill="black" fill-opacity="0.5"/>
</g>
</svg>
