<svg width="24" height="24" viewBox="0 0 24 24" fill="none" xmlns="http://www.w3.org/2000/svg">
<g id="clarity:language-line" clip-path="url(#clip0_504_6754)">
<path id="Vector" d="M20 2H9.33331V5.33333H10.6666V3.33333H20C20.4 3.33333 20.6666 3.6 20.6666 4V11.3333C20.6666 11.7333 20.4 12 20 12H11.3333V16.6667H7.79998L5.33331 18.6V16.6667H3.33331C2.93331 16.6667 2.66665 16.4 2.66665 16V8.66667C2.66665 8.26667 2.93331 8 3.33331 8H12V6.66667H3.33331C2.19998 6.66667 1.33331 7.53333 1.33331 8.66667V16C1.33331 17.1333 2.19998 18 3.33331 18H3.99998V21.4L8.19998 18H12.6666V13.3333H20C21.1333 13.3333 22 12.4667 22 11.3333V4C22 2.86667 21.1333 2 20 2Z" fill="white"/>
<path id="Vector_2" d="M4.13336 15.2667H5.73336L6.13336 14.2H8.20003L8.60003 15.2667H10.2L7.93336 9.33333H6.33336L4.13336 15.2667ZM7.13336 11L7.80003 13.0667H6.4667L7.13336 11Z" fill="white"/>
<path id="Vector_3" d="M13.3333 11.3333C14.0666 11.3333 15.0666 11.1333 16 10.6667C16.9333 11.1333 18 11.3333 18.6666 11.3333V10C18.6666 10 18 10 17.2666 9.73333C18.0666 8.93333 18.6666 7.73333 18.6666 6V5.33333H16.6666V4H15.3333V5.33333H13.3333V6.66667H17.2666C17.1333 7.86667 16.6 8.6 16 9.06667C15.6 8.73333 15.2 8.26667 14.9333 7.66667H13.5333C13.8 8.53333 14.2 9.2 14.7333 9.73333C14.0666 10 13.4666 10 13.3333 10V11.3333Z" fill="white"/>
</g>
<defs>
<clipPath id="clip0_504_6754">
<rect width="24" height="24" fill="white"/>
</clipPath>
</defs>
</svg>
