<svg width="367" height="240" viewBox="0 0 367 240" fill="none" xmlns="http://www.w3.org/2000/svg">
<path d="M121.648 161.996C121.438 160.588 120.736 159.301 119.668 158.367C118.601 157.434 117.238 156.913 115.823 156.9H112.652L111.432 157.207V157.422L84.5346 160.86C82.8808 161.061 81.3262 161.761 80.0746 162.868C78.8231 163.974 77.9326 165.436 77.5206 167.061L58.7353 239.662H63.2792L81.729 168.197C81.933 167.422 82.3606 166.726 82.9577 166.196C83.5548 165.666 84.2946 165.326 85.0835 165.219L115.518 161.32C115.938 161.268 116.362 161.383 116.698 161.641C117.034 161.9 117.257 162.28 117.317 162.702L128.967 239.632H133.419L121.648 161.996Z" fill="#858990"/>
<path d="M60.4124 239.632H55.8686L74.6539 167.03C75.0659 165.405 75.9561 163.944 77.2079 162.837C78.4595 161.731 80.0141 161.03 81.6679 160.829L112.103 156.93C113.654 156.72 115.225 157.134 116.476 158.082C117.726 159.03 118.554 160.436 118.781 161.996L130.552 239.632H126.1L114.451 162.671C114.39 162.249 114.168 161.868 113.831 161.61C113.495 161.352 113.071 161.237 112.652 161.289L82.2168 165.188C81.4279 165.295 80.6881 165.635 80.091 166.165C79.4939 166.695 79.0663 167.391 78.8623 168.166L60.4124 239.632Z" fill="#B1B5BA"/>
<path d="M31.6238 183.546L16.3455 119.447C16.2403 118.996 16.2376 118.526 16.3367 118.073C16.4358 117.621 16.6346 117.196 16.9185 116.831C17.2024 116.465 17.5638 116.169 17.9767 115.963C18.3893 115.757 18.8428 115.647 19.3036 115.641H15.1562C14.6954 115.647 14.2419 115.757 13.8293 115.963C13.4164 116.169 13.055 116.465 12.7711 116.831C12.4872 117.196 12.2884 117.621 12.1893 118.073C12.0902 118.526 12.0929 118.996 12.1981 119.447L27.5069 183.546L77.0929 183.668L31.6238 183.546Z" fill="#858990"/>
<path d="M63.9022 117.701C63.7342 117.038 63.3527 116.45 62.8175 116.028C62.2826 115.606 61.6239 115.374 60.9441 115.368H18.9211C18.4606 115.375 18.0072 115.484 17.5943 115.69C17.1816 115.896 16.82 116.193 16.5361 116.558C16.2524 116.924 16.0536 117.348 15.9542 117.801C15.8551 118.254 15.8581 118.723 15.963 119.175L31.2414 183.273L79.9734 183.396L63.9022 117.701Z" fill="#FF8F3A"/>
<path d="M130.369 183.546H64.407C63.1942 183.546 62.2113 184.535 62.2113 185.755C62.2113 186.975 63.1942 187.963 64.407 187.963H130.369C131.582 187.963 132.565 186.975 132.565 185.755C132.565 184.535 131.582 183.546 130.369 183.546Z" fill="#61656D"/>
<path d="M81.363 183.546H25.0985C23.886 183.546 22.9028 184.535 22.9028 185.755C22.9028 186.975 23.886 187.963 25.0985 187.963H81.363C82.5758 187.963 83.5587 186.975 83.5587 185.755C83.5587 184.535 82.5758 183.546 81.363 183.546Z" fill="#858990"/>
<path d="M89.8404 184.988C89.9816 185.387 90.0079 185.817 89.9161 186.23C89.8243 186.643 89.6184 187.021 89.322 187.321C89.1174 187.526 88.8749 187.689 88.6081 187.8C88.3413 187.91 88.0552 187.967 87.7667 187.966H25.0982C24.8267 187.963 24.5584 187.911 24.3053 187.812L25.4031 183.545H87.7667C88.2196 183.533 88.6648 183.666 89.0378 183.926C89.4104 184.185 89.6916 184.558 89.8404 184.988Z" fill="#858990"/>
<path d="M32.6306 184.774L36.3511 170.437H36.839L33.21 184.774H32.6306Z" fill="#858990"/>
<path d="M76.8497 161.996C76.6393 160.588 75.9376 159.301 74.8699 158.367C73.8026 157.434 72.4391 156.913 71.025 156.9H67.8535L66.6032 157.207V157.422L39.706 160.86C38.0565 161.073 36.5079 161.778 35.2585 162.882C34.0091 163.987 33.1153 165.442 32.692 167.061L13.9372 239.662H18.481L36.9309 168.197C37.1328 167.426 37.5557 166.733 38.1471 166.203C38.7381 165.674 39.4715 165.331 40.2549 165.219L70.7201 161.29C71.14 161.237 71.5636 161.352 71.9 161.61C72.2363 161.869 72.4586 162.249 72.5193 162.671L84.1687 239.632H88.5905L76.8497 161.996Z" fill="#858990"/>
<path d="M15.6136 239.632H11.0698L29.8246 167.03C30.2482 165.411 31.1417 163.956 32.3911 162.851C33.6408 161.747 35.1894 161.043 36.8386 160.829L67.3037 156.93C68.8554 156.72 70.4265 157.134 71.6768 158.082C72.9272 159.03 73.7557 160.436 73.9823 161.996L85.7231 239.632H81.3013L69.6519 162.671C69.5915 162.249 69.3689 161.868 69.0326 161.61C68.6962 161.352 68.2726 161.237 67.8527 161.289L37.418 165.188C36.6291 165.295 35.8893 165.635 35.2922 166.165C34.6951 166.695 34.2675 167.391 34.0635 168.166L15.6136 239.632Z" fill="#B1B5BA"/>
<g opacity="0.1">
<path opacity="0.1" d="M234.237 21.7958H218.989V36.1626H234.237V21.7958Z" fill="black"/>
</g>
<path d="M315.325 0H196.88V79.0697H315.325V0Z" fill="white"/>
<path d="M317.094 0H315.325V79.0697H317.094V0Z" fill="#E2E2E2"/>
<path d="M312.367 3.13159H200.265V76.2551H312.367V3.13159Z" fill="#00B787"/>
<path d="M202.43 3.13159H200.265V76.2551H202.43V3.13159Z" fill="#E2E2E2"/>
<path d="M233.048 19.8926H217.8V34.2594H233.048V19.8926Z" fill="white"/>
<path d="M230.821 24.4669H219.69C219.572 24.4669 219.477 24.563 219.477 24.6818V24.6941C219.477 24.8126 219.572 24.909 219.69 24.909H230.821C230.939 24.909 231.035 24.8126 231.035 24.6941V24.6818C231.035 24.563 230.939 24.4669 230.821 24.4669Z" fill="#ECECEC"/>
<path d="M230.821 26.7382H219.69C219.572 26.7382 219.477 26.8342 219.477 26.9531V26.9653C219.477 27.0841 219.572 27.1802 219.69 27.1802H230.821C230.939 27.1802 231.035 27.0841 231.035 26.9653V26.9531C231.035 26.8342 230.939 26.7382 230.821 26.7382Z" fill="#ECECEC"/>
<path d="M230.821 28.9795H219.69C219.572 28.9795 219.477 29.0756 219.477 29.1944V29.2067C219.477 29.3252 219.572 29.4215 219.69 29.4215H230.821C230.939 29.4215 231.035 29.3252 231.035 29.2067V29.1944C231.035 29.0756 230.939 28.9795 230.821 28.9795Z" fill="#ECECEC"/>
<path d="M229.328 31.2509H220.85C220.732 31.2509 220.636 31.3472 220.636 31.4657V31.478C220.636 31.5968 220.732 31.6929 220.85 31.6929H229.328C229.445 31.6929 229.541 31.5968 229.541 31.478V31.4657C229.541 31.3472 229.445 31.2509 229.328 31.2509Z" fill="#ECECEC"/>
<g opacity="0.1">
<path opacity="0.1" d="M228.748 48.1045H245.948V64.3132C245.948 64.3132 235.488 67.3217 232.469 64.2518C229.449 61.182 228.748 48.1045 228.748 48.1045Z" fill="black"/>
</g>
<path d="M227.986 47.0918H245.186V63.3005C245.186 63.3005 234.329 63.3005 231.432 60.4149C228.535 57.5292 227.986 47.0918 227.986 47.0918Z" fill="white"/>
<path d="M242.653 52.2797H230.12C229.985 52.2797 229.876 52.3896 229.876 52.5252V52.5314C229.876 52.6671 229.985 52.777 230.12 52.777H242.653C242.788 52.777 242.897 52.6671 242.897 52.5314V52.5252C242.897 52.3896 242.788 52.2797 242.653 52.2797Z" fill="#ECECEC"/>
<path d="M242.653 53.0472H230.12C229.985 53.0472 229.876 53.1571 229.876 53.2928V53.299C229.876 53.4346 229.985 53.5446 230.12 53.5446H242.653C242.788 53.5446 242.897 53.4346 242.897 53.299V53.2928C242.897 53.1571 242.788 53.0472 242.653 53.0472Z" fill="#ECECEC"/>
<path d="M242.653 57.3755H230.12C229.985 57.3755 229.876 57.4854 229.876 57.6211V57.6272C229.876 57.7629 229.985 57.8728 230.12 57.8728H242.653C242.788 57.8728 242.897 57.7629 242.897 57.6272V57.6211C242.897 57.4854 242.788 57.3755 242.653 57.3755Z" fill="#ECECEC"/>
<path d="M241.007 59.9236H231.431C231.297 59.9236 231.188 60.0335 231.188 60.1692V60.1753C231.188 60.3107 231.297 60.4209 231.431 60.4209H241.007C241.142 60.4209 241.251 60.3107 241.251 60.1753V60.1692C241.251 60.0335 241.142 59.9236 241.007 59.9236Z" fill="#ECECEC"/>
<path opacity="0.1" d="M289.373 41.0134H271.594V58.9136H289.373V41.0134Z" fill="black"/>
<path d="M287.422 39.3556H269.643V57.2558H287.422V39.3556Z" fill="white"/>
<path opacity="0.15" d="M279.31 41.7809C279.31 41.9927 279.224 42.1956 279.078 42.3451C278.929 42.4949 278.727 42.579 278.517 42.579C278.313 42.5711 278.117 42.4836 277.974 42.3347C277.834 42.1858 277.755 41.9875 277.755 41.7809C277.755 41.5774 277.834 41.3821 277.977 41.2381C278.121 41.0942 278.316 41.0134 278.517 41.0134C278.721 41.0134 278.92 41.0932 279.066 41.2363C279.215 41.3794 279.301 41.5746 279.31 41.7809Z" fill="black"/>
<path opacity="0.15" d="M237.165 48.9026C237.165 49.1061 237.084 49.3014 236.941 49.4453C236.798 49.5893 236.604 49.67 236.402 49.67C236.2 49.67 236.006 49.5893 235.863 49.4453C235.72 49.3014 235.64 49.1061 235.64 48.9026C235.64 48.6991 235.72 48.5038 235.863 48.3598C236.006 48.2162 236.2 48.1351 236.402 48.1351C236.604 48.1351 236.798 48.2162 236.941 48.3598C237.084 48.5038 237.165 48.6991 237.165 48.9026Z" fill="black"/>
<path opacity="0.1" d="M239.117 12.9548C239.117 12.9548 251.346 10.6831 254.426 13.7529C257.506 16.8228 256.408 30.3608 256.408 30.3608H239.117V12.9548Z" fill="black"/>
<path d="M237.134 10.468C237.134 10.468 247.442 8.99448 250.492 12.0643C253.541 15.1342 254.395 27.874 254.395 27.874H237.134V10.468Z" fill="#E2E2E2"/>
<path opacity="0.15" d="M225.668 21.6424C225.668 21.7971 225.607 21.9454 225.498 22.0547C225.389 22.164 225.242 22.2257 225.088 22.2257C225.014 22.2257 224.94 22.2103 224.871 22.1809C224.802 22.1511 224.74 22.1075 224.689 22.0532C224.638 21.9985 224.598 21.9337 224.572 21.8631C224.547 21.7925 224.536 21.7173 224.54 21.6424C224.54 21.4957 224.597 21.3551 224.7 21.2516C224.803 21.1479 224.943 21.0898 225.088 21.0898C225.237 21.0895 225.38 21.1466 225.488 21.2495C225.596 21.3523 225.66 21.4929 225.668 21.6424Z" fill="black"/>
<path opacity="0.15" d="M246.374 12.0644C246.365 12.2219 246.298 12.3702 246.185 12.4788C246.072 12.5875 245.92 12.648 245.764 12.6477C245.609 12.6477 245.463 12.5863 245.353 12.477C245.246 12.3674 245.185 12.2191 245.185 12.0644C245.179 11.9852 245.191 11.9063 245.219 11.8317C245.246 11.7574 245.289 11.6896 245.344 11.6322C245.399 11.5745 245.463 11.5287 245.536 11.4977C245.606 11.4664 245.685 11.4504 245.764 11.4504C245.926 11.4504 246.082 11.5152 246.194 11.6303C246.31 11.7455 246.374 11.9017 246.374 12.0644Z" fill="black"/>
<path d="M250.888 15.012H240.855C240.467 15.012 240.154 15.3266 240.154 15.715C240.154 16.1033 240.467 16.418 240.855 16.418H250.888C251.275 16.418 251.59 16.1033 251.59 15.715C251.59 15.3266 251.275 15.012 250.888 15.012Z" fill="#B1B5BA"/>
<path d="M251.376 18.511H240.367C240.249 18.511 240.154 18.6019 240.154 18.7136C240.154 18.8256 240.249 18.9162 240.367 18.9162H251.376C251.495 18.9162 251.59 18.8256 251.59 18.7136C251.59 18.6019 251.495 18.511 251.376 18.511Z" fill="#B1B5BA"/>
<path d="M251.376 21.0284H240.367C240.249 21.0284 240.154 21.1193 240.154 21.2311C240.154 21.3431 240.249 21.4337 240.367 21.4337H251.376C251.495 21.4337 251.59 21.3431 251.59 21.2311C251.59 21.1193 251.495 21.0284 251.376 21.0284Z" fill="#B1B5BA"/>
<path d="M251.376 23.5458H240.367C240.249 23.5458 240.154 23.6363 240.154 23.7484C240.154 23.8601 240.249 23.951 240.367 23.951H251.376C251.495 23.951 251.59 23.8601 251.59 23.7484C251.59 23.6363 251.495 23.5458 251.376 23.5458Z" fill="#B1B5BA"/>
<path d="M283.244 45.587H272.235C272.116 45.587 272.021 45.6779 272.021 45.7896C272.021 45.9017 272.116 45.9923 272.235 45.9923H283.244C283.363 45.9923 283.457 45.9017 283.457 45.7896C283.457 45.6779 283.363 45.587 283.244 45.587Z" fill="#B1B5BA"/>
<path d="M283.244 48.1045H272.235C272.116 48.1045 272.021 48.1951 272.021 48.3071C272.021 48.4188 272.116 48.5097 272.235 48.5097H283.244C283.363 48.5097 283.457 48.4188 283.457 48.3071C283.457 48.1951 283.363 48.1045 283.244 48.1045Z" fill="#B1B5BA"/>
<path d="M281.719 50.6219H272.235C272.116 50.6219 272.021 50.7125 272.021 50.8246C272.021 50.9363 272.116 51.0272 272.235 51.0272H281.719C281.838 51.0272 281.932 50.9363 281.932 50.8246C281.932 50.7125 281.838 50.6219 281.719 50.6219Z" fill="#B1B5BA"/>
<path opacity="0.1" d="M303.95 15.4413H273.272V29.7713H303.95V15.4413Z" fill="black"/>
<path d="M302.7 14.1829H272.021V28.5129H302.7V14.1829Z" fill="#E2E2E2"/>
<path d="M366.039 240H0.182971C0.134178 240 0.0878238 239.982 0.0533637 239.945C0.0192085 239.911 0 239.865 0 239.816C0 239.767 0.0192085 239.721 0.0533637 239.687C0.0878238 239.65 0.134178 239.632 0.182971 239.632H366.07C366.119 239.632 366.165 239.65 366.198 239.687C366.235 239.721 366.253 239.767 366.253 239.816C366.253 239.939 366.161 240 366.039 240Z" fill="#B2B6BB"/>
<path d="M57.5448 83.7152H91.1205V36.9524H57.5448V83.7152Z" fill="white"/>
<path d="M62.0278 79.3863H86.6378V41.2804H62.0278V79.3863Z" fill="#DDDDDD"/>
<path d="M92.1264 36.9305H91.1506V83.6934H92.1264V36.9305Z" fill="#DADDDF"/>
<path d="M68.5845 73.1851H80.1119V54.7692H68.5845V73.1851Z" fill="#B1B5BA"/>
<path d="M74.3484 52.4635C75.8555 52.4635 77.3013 51.8631 78.3702 50.7929C79.4387 49.7231 80.0429 48.2708 80.0511 46.7537H68.6762C68.6762 48.268 69.2736 49.7203 70.3376 50.7911C71.4013 51.8622 72.844 52.4635 74.3484 52.4635Z" fill="#4D61FC"/>
<path d="M280.164 143.116L275.315 119.171" stroke="#868A91" stroke-width="0.134954" stroke-miterlimit="10"/>
<path d="M281.506 111.098L280.835 142.226" stroke="#868A91" stroke-width="0.134954" stroke-miterlimit="10"/>
<path d="M288.55 116.869L281.17 126.201" stroke="#868A91" stroke-width="0.134954" stroke-miterlimit="10"/>
<path d="M283.823 149.071L283.092 147.966C282.36 146.857 281.966 145.554 281.963 144.221V141.581H279.127V144.221C279.136 145.551 278.755 146.854 278.029 147.966L277.297 149.071C276.544 150.227 276.035 151.528 275.806 152.89C275.574 154.253 275.626 155.649 275.956 156.992L276.779 160.276H284.342L285.165 156.992C285.495 155.649 285.546 154.253 285.315 152.89C285.086 151.528 284.577 150.227 283.823 149.071Z" fill="#61656D"/>
<path opacity="0.2" d="M283.823 149.071L283.091 147.966C282.36 146.857 281.966 145.554 281.963 144.221V141.581H281.17V144.221C281.192 145.513 281.503 146.784 282.085 147.936L282.939 149.532C285.013 154.259 281.079 160.276 281.079 160.276H284.342L285.165 156.992C285.495 155.649 285.546 154.253 285.315 152.89C285.086 151.528 284.577 150.227 283.823 149.071Z" fill="black"/>
<path d="M278.273 133.753L287.056 126.447" stroke="#868A91" stroke-width="0.134954" stroke-miterlimit="10"/>
<path d="M271.655 132.126L279.432 139.494" stroke="#868A91" stroke-width="0.134954" stroke-miterlimit="10"/>
<path d="M284.159 122.425L285.379 117.053C285.476 116.615 285.683 116.209 285.979 115.874C286.278 115.539 286.653 115.286 287.077 115.138C287.498 114.991 287.949 114.954 288.388 115.031C288.828 115.108 289.239 115.297 289.587 115.58C289.938 115.857 290.209 116.219 290.383 116.633C290.554 117.046 290.618 117.496 290.569 117.941C290.52 118.386 290.358 118.812 290.102 119.177C289.846 119.543 289.502 119.837 289.099 120.031L284.159 122.425Z" fill="#00B787"/>
<path d="M290.593 117.698C290.581 118.187 290.435 118.664 290.172 119.075C289.907 119.486 289.538 119.817 289.099 120.031L284.159 122.425L289.587 115.579C289.91 115.827 290.169 116.148 290.343 116.517C290.517 116.885 290.605 117.29 290.593 117.698Z" fill="#00B787"/>
<path d="M281.353 120.031L277.876 112.786C277.587 112.192 277.453 111.533 277.486 110.871C277.517 110.21 277.718 109.568 278.066 109.006C278.413 108.443 278.898 107.98 279.474 107.658C280.048 107.337 280.694 107.168 281.353 107.168C282.009 107.171 282.649 107.34 283.222 107.659C283.793 107.979 284.274 108.439 284.622 108.997C284.97 109.555 285.168 110.192 285.205 110.849C285.241 111.507 285.113 112.162 284.829 112.755L281.353 120.031Z" fill="#00B787"/>
<path d="M277.48 129.732L272.418 123.653C272 123.158 271.713 122.564 271.585 121.926C271.457 121.288 271.494 120.629 271.689 120.009C271.884 119.389 272.232 118.829 272.702 118.382C273.171 117.935 273.744 117.615 274.37 117.452C274.998 117.288 275.653 117.287 276.282 117.449C276.91 117.612 277.483 117.932 277.953 118.381C278.423 118.829 278.773 119.391 278.968 120.013C279.161 120.634 279.197 121.296 279.066 121.934L277.48 129.732Z" fill="#00B787"/>
<path d="M276.779 136.976L274.461 131.144C274.269 130.672 273.964 130.256 273.571 129.935C273.177 129.614 272.708 129.398 272.211 129.306C271.714 129.214 271.201 129.25 270.719 129.41C270.238 129.571 269.805 129.85 269.46 130.223C269.112 130.598 268.865 131.056 268.74 131.555C268.618 132.054 268.624 132.576 268.759 133.071C268.893 133.567 269.152 134.019 269.509 134.386C269.869 134.752 270.311 135.02 270.802 135.165L276.779 136.976Z" fill="#00B787"/>
<path d="M280.621 131.881L283.152 125.741C283.356 125.239 283.683 124.796 284.1 124.456C284.521 124.116 285.021 123.889 285.552 123.797C286.083 123.705 286.628 123.751 287.138 123.93C287.644 124.109 288.101 124.415 288.458 124.82C288.821 125.223 289.077 125.713 289.199 126.243C289.321 126.773 289.306 127.326 289.157 127.849C289.007 128.371 288.727 128.847 288.342 129.23C287.958 129.614 287.485 129.892 286.964 130.039L280.621 131.881Z" fill="#00B787"/>
<path d="M280.865 139.34L292.85 132.709" stroke="#868A91" stroke-width="0.134954" stroke-miterlimit="10"/>
<path d="M282.817 138.235L287.178 132.249C287.535 131.763 288.007 131.375 288.553 131.123C289.099 130.87 289.7 130.76 290.298 130.802C290.898 130.845 291.478 131.04 291.981 131.368C292.487 131.696 292.899 132.147 293.186 132.679C293.469 133.214 293.616 133.813 293.606 134.42C293.597 135.026 293.436 135.621 293.14 136.148C292.841 136.676 292.414 137.119 291.899 137.435C291.386 137.752 290.798 137.932 290.197 137.959L282.817 138.235Z" fill="#00B787"/>
<path d="M293.308 135.841C293.033 136.447 292.597 136.967 292.048 137.34C291.499 137.714 290.859 137.928 290.197 137.959L282.817 138.235L293.186 132.679C293.445 133.161 293.591 133.697 293.612 134.245C293.631 134.793 293.527 135.339 293.308 135.841Z" fill="#00B787"/>
<path d="M325.633 162.978H322.096L332.738 239.632H334.111L325.633 162.978Z" fill="#FF8F3A"/>
<path d="M255.218 239.632H256.59L267.233 162.978H263.696L255.218 239.632Z" fill="#FF8F3A"/>
<path d="M334.111 239.632H333.501L324.383 165.127C324.361 164.869 324.248 164.627 324.062 164.446C323.876 164.266 323.632 164.159 323.376 164.145L322.217 164.022L322.096 162.978H325.633L334.111 239.632Z" fill="#FF8F3A"/>
<path d="M256.103 239.632L265.587 165.219C265.618 164.949 265.544 164.677 265.389 164.456C265.23 164.235 264.999 164.081 264.733 164.022L263.605 163.807L263.696 162.978H267.234L256.621 239.632H256.103Z" fill="#FF8F3A"/>
<path d="M336.52 162.978H332.982L343.625 239.632H344.998L336.52 162.978Z" fill="#B1B5BA"/>
<path d="M266.105 239.632H267.508L278.151 162.978H274.614L266.105 239.632Z" fill="#FF8F3A"/>
<path d="M344.998 239.632H344.418L340.85 212.464L339.753 211.819L333.135 164.022L332.982 162.978H336.52L344.998 239.632Z" fill="#FF8F3A"/>
<path d="M266.99 239.632L270.436 212.679L269.186 211.819L274.614 162.978H278.151L267.508 239.632H266.99Z" fill="#FF8F3A"/>
<path d="M268.057 161.596C268.057 161.958 268.198 162.304 268.448 162.563C268.698 162.821 269.039 162.97 269.399 162.978H342.375C342.701 162.929 342.997 162.764 343.211 162.513C343.424 162.263 343.543 161.943 343.543 161.612C343.543 161.281 343.424 160.961 343.211 160.71C342.997 160.46 342.701 160.295 342.375 160.246H269.399C269.222 160.246 269.048 160.281 268.887 160.349C268.722 160.416 268.576 160.516 268.451 160.641C268.326 160.767 268.228 160.916 268.158 161.08C268.091 161.243 268.057 161.419 268.057 161.596Z" fill="#FF8F3A"/>
<path d="M257.444 161.596C257.444 161.958 257.585 162.304 257.835 162.563C258.088 162.821 258.426 162.97 258.786 162.978H316.606C316.932 162.929 317.228 162.764 317.442 162.513C317.658 162.263 317.774 161.943 317.774 161.612C317.774 161.281 317.658 160.961 317.442 160.71C317.228 160.46 316.932 160.295 316.606 160.246H258.786C258.429 160.246 258.088 160.388 257.838 160.641C257.585 160.895 257.444 161.238 257.444 161.596Z" fill="#FF8F3A"/>
<path d="M297.668 154.659H318.893V160.246H297.668C296.933 160.246 296.226 159.952 295.708 159.428C295.186 158.904 294.893 158.193 294.893 157.452C294.893 156.712 295.186 156.001 295.708 155.477C296.226 154.953 296.933 154.659 297.668 154.659Z" fill="#7E3C0A"/>
<path d="M317.125 160.246H327.859V159.448H324.535V155.488H327.859V154.659H317.125C316.39 154.659 315.682 154.953 315.164 155.477C314.642 156.001 314.349 156.712 314.349 157.452C314.349 158.193 314.642 158.904 315.164 159.428C315.682 159.952 316.39 160.246 317.125 160.246Z" fill="#61656D"/>
<path d="M327.066 159.417H317.155C316.637 159.417 316.14 159.21 315.774 158.842C315.408 158.473 315.203 157.974 315.203 157.452C315.203 156.932 315.408 156.432 315.774 156.063C316.14 155.695 316.637 155.488 317.155 155.488H327.066V159.417Z" fill="white"/>
<path d="M294.497 150.361H312.215V154.658H294.497C294.302 154.658 294.116 154.581 293.979 154.443C293.841 154.305 293.765 154.117 293.765 153.922V151.097C293.765 150.902 293.841 150.715 293.979 150.577C294.116 150.438 294.302 150.361 294.497 150.361Z" fill="#F2700E"/>
<path d="M304.56 151.804H298.461C298.293 151.804 298.156 151.941 298.156 152.111V153.059C298.156 153.229 298.293 153.366 298.461 153.366H304.56C304.728 153.366 304.865 153.229 304.865 153.059V152.111C304.865 151.941 304.728 151.804 304.56 151.804Z" fill="#858990"/>
<path d="M319.076 154.658H309.44C309.245 154.658 309.059 154.581 308.921 154.443C308.784 154.305 308.708 154.117 308.708 153.922V151.097C308.708 150.902 308.784 150.715 308.921 150.577C309.059 150.438 309.245 150.361 309.44 150.361H319.076V154.658Z" fill="#858990"/>
<path d="M319.076 154.014H309.714C309.617 154.014 309.525 153.975 309.455 153.906C309.388 153.837 309.348 153.743 309.348 153.646V151.343C309.348 151.245 309.388 151.152 309.455 151.083C309.525 151.014 309.617 150.975 309.714 150.975H319.076V154.014Z" fill="white"/>
<path d="M324.535 150.361H303.585V146.063H324.535C324.803 146.063 325.06 146.17 325.249 146.36C325.435 146.55 325.541 146.807 325.541 147.076V149.378C325.535 149.642 325.426 149.892 325.236 150.075C325.047 150.259 324.797 150.361 324.535 150.361Z" fill="#AC4C04"/>
<path d="M296.418 146.708H306.054C306.152 146.708 306.247 146.746 306.314 146.816C306.384 146.885 306.42 146.979 306.42 147.076V149.379C306.42 149.476 306.384 149.57 306.314 149.639C306.247 149.708 306.152 149.747 306.054 149.747H296.418V146.708Z" fill="white"/>
<path d="M306.329 146.063H295.717V146.708H306.055C306.1 146.703 306.149 146.709 306.192 146.724C306.238 146.739 306.277 146.763 306.311 146.795C306.347 146.827 306.375 146.865 306.393 146.909C306.412 146.952 306.421 146.998 306.421 147.045V149.378C306.421 149.425 306.412 149.472 306.393 149.515C306.375 149.558 306.347 149.597 306.311 149.629C306.277 149.661 306.238 149.685 306.192 149.7C306.149 149.715 306.1 149.72 306.055 149.716H295.717V150.361H306.329C306.524 150.361 306.71 150.283 306.848 150.145C306.985 150.007 307.061 149.82 307.061 149.624V146.8C307.061 146.604 306.985 146.417 306.848 146.279C306.71 146.141 306.524 146.063 306.329 146.063Z" fill="#858990"/>
<path d="M215.573 146.554L243.446 124.605C245.216 123.19 246.64 121.387 247.613 119.333C248.585 117.28 249.079 115.03 249.058 112.755V69.8696H208.742L208.681 71.0055V69.8696H168.335V112.755C168.314 115.03 168.808 117.28 169.78 119.333C170.752 121.387 172.177 123.19 173.947 124.605L201.85 146.554C202.434 147.026 202.905 147.624 203.227 148.305C203.549 148.985 203.714 149.73 203.71 150.483C203.712 151.233 203.545 151.972 203.223 152.647C202.901 153.322 202.432 153.915 201.85 154.382L173.947 176.332C172.177 177.747 170.752 179.55 169.78 181.603C168.808 183.657 168.314 185.906 168.335 188.181V231.067H208.681V229.962L208.742 231.097H249.058V188.181C249.058 183.515 246.984 179.094 243.446 176.332L215.573 154.382C214.987 153.92 214.513 153.328 214.191 152.652C213.868 151.975 213.705 151.233 213.713 150.483C213.702 149.729 213.865 148.981 214.187 148.3C214.51 147.618 214.984 147.021 215.573 146.554Z" fill="#4D61FC"/>
<path opacity="0.6" d="M215.573 146.554L243.446 124.605C245.216 123.19 246.64 121.387 247.613 119.333C248.585 117.28 249.079 115.03 249.058 112.755V69.8696H208.742L208.681 71.0055V69.8696H168.335V112.755C168.314 115.03 168.808 117.28 169.78 119.333C170.752 121.387 172.177 123.19 173.947 124.605L201.85 146.554C202.434 147.026 202.905 147.624 203.227 148.305C203.549 148.985 203.714 149.73 203.71 150.483C203.712 151.233 203.545 151.972 203.223 152.647C202.901 153.322 202.432 153.915 201.85 154.382L173.947 176.332C172.177 177.747 170.752 179.55 169.78 181.603C168.808 183.657 168.314 185.906 168.335 188.181V231.067H208.681V229.962L208.742 231.097H249.058V188.181C249.058 183.515 246.984 179.094 243.446 176.332L215.573 154.382C214.987 153.92 214.513 153.328 214.191 152.652C213.868 151.975 213.705 151.233 213.713 150.483C213.702 149.729 213.865 148.981 214.187 148.3C214.51 147.618 214.984 147.021 215.573 146.554Z" fill="white"/>
<path opacity="0.4" d="M214.201 148.273C214.505 147.6 214.965 147.01 215.543 146.554L234.023 132.034C235.675 129.521 236.555 126.574 236.554 123.561V69.8696H208.742L208.681 71.0055V69.8696H168.335V112.755C168.314 115.03 168.808 117.28 169.78 119.333C170.752 121.387 172.177 123.19 173.947 124.605L201.85 146.554C202.434 147.026 202.905 147.624 203.227 148.305C203.549 148.985 203.714 149.73 203.71 150.483C203.709 151.241 203.531 151.987 203.192 152.663C202.888 153.336 202.428 153.926 201.85 154.382L173.947 176.332C172.742 177.287 171.692 178.427 170.836 179.708C169.195 182.225 168.326 185.171 168.335 188.181V231.067H208.681V229.962L208.742 231.097H236.554L236.493 183.699C236.493 175.871 235.822 170.376 231.248 166.784L215.573 154.382C212.737 152.018 214.018 148.734 214.018 148.734C214.052 148.571 214.114 148.415 214.201 148.273Z" fill="white"/>
<path opacity="0.5" d="M249.089 231.098H169.037V233.759H249.089V231.098Z" fill="black"/>
<path opacity="0.5" d="M238.232 87.859C230.852 87.859 224.021 96.1169 208.651 99.7393C200.631 101.888 190.628 101.581 178.43 99.1867C177.743 99.0559 177.036 99.0789 176.359 99.2542C175.683 99.4298 175.052 99.7534 174.514 100.202C173.975 100.65 173.541 101.212 173.243 101.849C172.945 102.485 172.789 103.18 172.788 103.884V112.448C172.787 114.159 173.173 115.848 173.918 117.385C174.664 118.922 175.748 120.268 177.088 121.32C196.941 137.068 198.374 137.406 205.022 142.901C205.556 143.36 205.984 143.93 206.279 144.571C206.574 145.212 206.728 145.909 206.73 146.616V205.802C206.736 209.668 205.237 213.382 202.552 216.147L194.013 227.137L190.964 231.067H226.491L214.171 215.595C212.05 213.364 210.869 210.394 210.877 207.306V147.076C210.88 146.373 211.031 145.678 211.32 145.038C211.609 144.397 212.03 143.826 212.555 143.362C219.203 137.713 211.945 144.283 240.306 121.443C241.619 120.379 242.678 119.033 243.406 117.503C244.134 115.973 244.513 114.298 244.514 112.602V94.9503C244.545 91.5428 243.172 87.859 238.232 87.859Z" fill="#4D61FC"/>
<path d="M257.018 239.662H171.721C169.494 239.662 167.695 237.759 167.695 235.364C167.695 233.001 169.494 231.067 171.721 231.067H257.018C259.244 231.067 261.073 233.001 261.073 235.364C261.073 237.759 259.244 239.662 257.018 239.662Z" fill="#21252B"/>
<path d="M251.62 239.662H166.323C164.097 239.662 162.298 237.759 162.298 235.364C162.298 233.001 164.097 231.067 166.323 231.067H251.62C253.846 231.067 255.645 233.001 255.645 235.364C255.645 237.759 253.846 239.662 251.62 239.662Z" fill="#3F4249"/>
<path d="M257.018 75.3341H171.721C169.494 75.3341 167.695 73.4001 167.695 71.0363C167.695 68.6725 169.494 66.7385 171.721 66.7385H257.018C259.244 66.7385 261.073 68.6725 261.073 71.0363C261.073 73.4001 259.244 75.3341 257.018 75.3341Z" fill="#21252B"/>
<path d="M251.62 75.3341H166.323C164.097 75.3341 162.298 73.4001 162.298 71.0363C162.298 68.6725 164.097 66.7385 166.323 66.7385H251.62C253.846 66.7385 255.645 68.6725 255.645 71.0363C255.645 73.4001 253.846 75.3341 251.62 75.3341Z" fill="#3F4249"/>
<path d="M116.371 98.6645V55.1649C116.188 53.1389 113.261 44.6047 115.456 41.0437L128.783 37.6669L146.745 37.0836C146.836 37.1757 156.717 52.0951 156.717 52.0951L157.937 98.4496L116.371 98.6645Z" fill="#4D61FC"/>
<path d="M150.557 217.621H161.139L161.383 223.73C161.419 224.521 161.633 225.294 162.008 225.991C162.383 226.687 162.909 227.289 163.548 227.752L171.294 233.339L151.899 232.847L150.557 217.621Z" fill="#FB9C9C"/>
<path opacity="0.15" d="M158.578 230.913L162.085 226.616C161.52 225.16 161.26 223.603 161.323 222.042H150.954V223.423L156.779 223.607C157.251 223.615 157.7 223.81 158.031 224.148C158.362 224.487 158.548 224.944 158.548 225.418L158.578 230.913Z" fill="black"/>
<path d="M116.921 217.59L127.259 217.56L125.643 232.448H116.921V217.59Z" fill="#FB9C9C"/>
<path opacity="0.15" d="M125.612 232.387L126.77 222.011H116.951L117.103 223.3L122.532 223.392C122.796 223.396 123.051 223.493 123.252 223.667C123.453 223.841 123.586 224.081 123.629 224.344L124.697 229.962L125.612 232.387Z" fill="black"/>
<path d="M116.524 101.274L157.998 101.029L161.902 222.011H150.557L140.036 122.794C140.006 122.49 139.864 122.208 139.638 122.004C139.413 121.799 139.12 121.687 138.816 121.689C138.504 121.678 138.2 121.786 137.963 121.991C137.726 122.195 137.573 122.482 137.536 122.794L127.685 222.011H116.311L116.524 101.274Z" fill="#3F4249"/>
<path d="M116.067 219.555H128.356L128.112 222.011H116.006L116.067 219.555Z" fill="#3F4249"/>
<path opacity="0.15" d="M123.721 219.555H128.356L128.112 222.011L123.385 221.98L123.721 219.555Z" fill="black"/>
<path d="M149.978 219.555H162.146L162.267 222.011H150.252L149.978 219.555Z" fill="#3F4249"/>
<path opacity="0.15" d="M162.146 219.555L158.578 219.524V222.011H162.268L162.146 219.555Z" fill="black"/>
<path opacity="0.2" d="M123.721 219.555L131.894 126.969C132.26 123.96 134.944 121.688 138.054 121.688H138.908C138.591 121.679 138.283 121.791 138.045 122.002C137.808 122.213 137.658 122.507 137.627 122.824L127.869 219.555H123.721Z" fill="black"/>
<path d="M156.138 101.151L158.609 219.462L162.146 219.555L158.06 101.151H156.138Z" fill="#32353A"/>
<path d="M116.005 238.189H126.587C126.828 238.195 127.064 238.124 127.261 237.986C127.459 237.848 127.607 237.651 127.685 237.421C127.685 237.636 127.716 237.851 127.716 238.066V238.434C127.7 238.723 127.573 238.993 127.362 239.186C127.151 239.383 126.873 239.487 126.587 239.478H116.005C115.863 239.487 115.72 239.466 115.585 239.417C115.451 239.367 115.327 239.294 115.222 239.195C115.116 239.1 115.032 238.981 114.972 238.852C114.913 238.72 114.881 238.578 114.877 238.434V238.281C114.882 238.004 114.902 237.728 114.938 237.452C115.011 237.676 115.155 237.869 115.348 238.001C115.541 238.133 115.772 238.201 116.005 238.189Z" fill="#4D61FC"/>
<path opacity="0.4" d="M116.005 238.189H126.587C126.828 238.195 127.064 238.124 127.261 237.986C127.459 237.848 127.607 237.651 127.685 237.421C127.685 237.636 127.716 237.851 127.716 238.066V238.434C127.7 238.723 127.573 238.993 127.362 239.186C127.151 239.383 126.873 239.487 126.587 239.478H116.005C115.863 239.487 115.72 239.466 115.585 239.417C115.451 239.367 115.327 239.294 115.222 239.195C115.116 239.1 115.032 238.981 114.972 238.852C114.913 238.72 114.881 238.578 114.877 238.434V238.281C114.882 238.004 114.902 237.728 114.938 237.452C115.011 237.676 115.155 237.869 115.348 238.001C115.541 238.133 115.772 238.201 116.005 238.189Z" fill="black"/>
<path d="M117.561 226.922L117.805 226.646C118.808 225.685 120.144 225.157 121.528 225.174C122.913 225.191 124.236 225.753 125.215 226.738L125.367 226.922C125.611 227.162 125.804 227.449 125.935 227.765C126.066 228.082 126.132 228.421 126.13 228.764V229.87C126.124 230.508 126.227 231.14 126.435 231.742L127.35 234.781C127.58 235.506 127.703 236.261 127.716 237.022V237.391C127.7 237.679 127.573 237.949 127.362 238.143C127.151 238.339 126.873 238.444 126.587 238.434H116.005C115.863 238.444 115.72 238.422 115.585 238.373C115.451 238.324 115.327 238.25 115.222 238.152C115.116 238.057 115.032 237.937 114.972 237.808C114.913 237.676 114.881 237.535 114.877 237.391V237.237C114.885 236.35 115.029 235.469 115.304 234.628L116.371 231.681C116.598 230.996 116.722 230.284 116.737 229.563V228.734C116.748 228.392 116.827 228.056 116.968 227.745C117.11 227.434 117.311 227.154 117.561 226.922Z" fill="#4D61FC"/>
<path opacity="0.4" d="M124.452 229.317C124.671 229.317 124.849 229.138 124.849 228.918C124.849 228.697 124.671 228.519 124.452 228.519C124.233 228.519 124.056 228.697 124.056 228.918C124.056 229.138 124.233 229.317 124.452 229.317Z" fill="#231F20"/>
<path opacity="0.4" d="M124.239 230.913C124.458 230.913 124.636 230.735 124.636 230.514C124.636 230.293 124.458 230.115 124.239 230.115C124.02 230.115 123.843 230.293 123.843 230.514C123.843 230.735 124.02 230.913 124.239 230.913Z" fill="#231F20"/>
<path opacity="0.4" d="M124.117 232.08C124.336 232.08 124.514 231.902 124.514 231.681C124.514 231.46 124.336 231.282 124.117 231.282C123.898 231.282 123.721 231.46 123.721 231.681C123.721 231.902 123.898 232.08 124.117 232.08Z" fill="#231F20"/>
<path opacity="0.4" d="M124.3 233.952C124.519 233.952 124.696 233.774 124.696 233.553C124.696 233.332 124.519 233.154 124.3 233.154C124.081 233.154 123.903 233.332 123.903 233.553C123.903 233.774 124.081 233.952 124.3 233.952Z" fill="#231F20"/>
<path opacity="0.4" d="M124.331 235.61C124.55 235.61 124.728 235.432 124.728 235.211C124.728 234.99 124.55 234.812 124.331 234.812C124.112 234.812 123.935 234.99 123.935 235.211C123.935 235.432 124.112 235.61 124.331 235.61Z" fill="#231F20"/>
<path opacity="0.4" d="M119.33 235.948C119.549 235.948 119.726 235.77 119.726 235.549C119.726 235.328 119.549 235.15 119.33 235.15C119.111 235.15 118.933 235.328 118.933 235.549C118.933 235.77 119.111 235.948 119.33 235.948Z" fill="#231F20"/>
<path opacity="0.4" d="M119.268 234.413C119.487 234.413 119.665 234.235 119.665 234.014C119.665 233.793 119.487 233.615 119.268 233.615C119.049 233.615 118.872 233.793 118.872 234.014C118.872 234.235 119.049 234.413 119.268 234.413Z" fill="#231F20"/>
<path opacity="0.4" d="M119.207 232.418C119.426 232.418 119.604 232.239 119.604 232.018C119.604 231.797 119.426 231.619 119.207 231.619C118.988 231.619 118.811 231.797 118.811 232.018C118.811 232.239 118.988 232.418 119.207 232.418Z" fill="#231F20"/>
<path opacity="0.4" d="M119.33 230.514C119.549 230.514 119.726 230.336 119.726 230.115C119.726 229.894 119.549 229.716 119.33 229.716C119.111 229.716 118.933 229.894 118.933 230.115C118.933 230.336 119.111 230.514 119.33 230.514Z" fill="#231F20"/>
<path opacity="0.4" d="M119.39 229.01C119.609 229.01 119.787 228.831 119.787 228.611C119.787 228.39 119.609 228.211 119.39 228.211C119.171 228.211 118.994 228.39 118.994 228.611C118.994 228.831 119.171 229.01 119.39 229.01Z" fill="#231F20"/>
<path d="M124.301 228.826C124.301 228.826 122.501 226.892 119.391 228.488" stroke="white" stroke-width="0.291634" stroke-miterlimit="10" stroke-linecap="round"/>
<path d="M124.239 230.392C124.239 230.392 122.44 228.457 119.329 230.085" stroke="white" stroke-width="0.291634" stroke-miterlimit="10" stroke-linecap="round"/>
<path d="M124.117 231.619C123.66 231.251 121.312 230.514 119.208 231.988" stroke="white" stroke-width="0.291634" stroke-miterlimit="10" stroke-linecap="round"/>
<path d="M124.178 233.553C124.178 233.553 122.135 231.865 119.269 233.891" stroke="white" stroke-width="0.291634" stroke-miterlimit="10" stroke-linecap="round"/>
<path d="M124.331 235.119C124.331 235.119 122.288 233.461 119.421 235.487" stroke="white" stroke-width="0.291634" stroke-miterlimit="10" stroke-linecap="round"/>
<path d="M150.679 238.005L179.04 238.066C179.104 237.928 179.155 237.784 179.192 237.636C179.221 237.974 179.231 238.312 179.223 238.649C179.208 238.904 179.101 239.147 178.921 239.328C178.741 239.509 178.501 239.616 178.247 239.632L151.594 239.57C151.467 239.57 151.341 239.546 151.225 239.493C151.108 239.444 151.002 239.374 150.914 239.282C150.826 239.19 150.757 239.079 150.711 238.962C150.666 238.843 150.644 238.717 150.648 238.588L150.679 238.005Z" fill="#4D61FC"/>
<path opacity="0.4" d="M150.679 238.005L179.04 238.066C179.104 237.928 179.155 237.784 179.192 237.636C179.221 237.974 179.231 238.312 179.223 238.649C179.208 238.904 179.101 239.147 178.921 239.328C178.741 239.509 178.501 239.616 178.247 239.632L151.594 239.57C151.467 239.57 151.341 239.546 151.225 239.493C151.108 239.444 151.002 239.374 150.914 239.282C150.826 239.19 150.757 239.079 150.711 238.962C150.666 238.843 150.644 238.717 150.648 238.588L150.679 238.005Z" fill="black"/>
<path d="M177.485 234.781C172.423 232.51 168.337 230.606 164.555 227.229C163.701 226.431 163.03 225.879 161.902 225.756L157.663 228.427C157.403 228.597 157.099 228.684 156.789 228.679C156.48 228.673 156.179 228.575 155.925 228.396L151.35 225.971C150.588 225.909 149.978 226.892 150.009 227.69L150.68 238.005L179.041 238.066C179.65 236.807 178.4 235.18 177.485 234.781Z" fill="#4D61FC"/>
<path opacity="0.4" d="M172.544 235.303C172.831 235.303 173.063 235.07 173.063 234.781C173.063 234.493 172.831 234.26 172.544 234.26C172.258 234.26 172.026 234.493 172.026 234.781C172.026 235.07 172.258 235.303 172.544 235.303Z" fill="#231F20"/>
<path opacity="0.4" d="M169.434 234.444C169.72 234.444 169.953 234.21 169.953 233.922C169.953 233.633 169.72 233.4 169.434 233.4C169.148 233.4 168.916 233.633 168.916 233.922C168.916 234.21 169.148 234.444 169.434 234.444Z" fill="#231F20"/>
<path opacity="0.4" d="M166.842 232.632C167.128 232.632 167.36 232.399 167.36 232.111C167.36 231.822 167.128 231.589 166.842 231.589C166.556 231.589 166.323 231.822 166.323 232.111C166.323 232.399 166.556 232.632 166.842 232.632Z" fill="#231F20"/>
<path opacity="0.4" d="M164.341 230.791C164.627 230.791 164.859 230.557 164.859 230.269C164.859 229.98 164.627 229.747 164.341 229.747C164.055 229.747 163.823 229.98 163.823 230.269C163.823 230.557 164.055 230.791 164.341 230.791Z" fill="#231F20"/>
<path opacity="0.4" d="M162.115 228.549C162.402 228.549 162.634 228.316 162.634 228.028C162.634 227.739 162.402 227.506 162.115 227.506C161.829 227.506 161.597 227.739 161.597 228.028C161.597 228.316 161.829 228.549 162.115 228.549Z" fill="#231F20"/>
<path d="M173.52 233.553L173.185 234.505C173.161 234.569 173.125 234.628 173.078 234.68C173.032 234.729 172.976 234.772 172.913 234.8C172.851 234.827 172.783 234.843 172.715 234.846C172.646 234.849 172.578 234.837 172.514 234.812C172.449 234.791 172.39 234.754 172.341 234.705C172.292 234.655 172.254 234.597 172.231 234.533C172.208 234.468 172.199 234.398 172.206 234.33C172.213 234.263 172.234 234.195 172.27 234.137L172.758 233.216L173.52 233.553Z" fill="white"/>
<path d="M170.745 232.233L170.105 233.676C170.073 233.737 170.03 233.79 169.977 233.833C169.924 233.879 169.864 233.909 169.798 233.931C169.734 233.949 169.665 233.955 169.597 233.949C169.53 233.943 169.464 233.925 169.404 233.891C169.346 233.866 169.294 233.826 169.251 233.78C169.208 233.731 169.176 233.676 169.156 233.615C169.136 233.556 169.128 233.492 169.134 233.427C169.14 233.363 169.159 233.302 169.19 233.246L169.953 231.865L170.745 232.233Z" fill="white"/>
<path d="M168.427 230.791L167.543 232.019C167.499 232.071 167.445 232.114 167.385 232.144C167.324 232.178 167.258 232.197 167.19 232.203C167.122 232.209 167.053 232.2 166.988 232.178C166.923 232.157 166.863 232.123 166.811 232.08H166.781C166.736 232.043 166.699 232 166.671 231.948C166.644 231.899 166.627 231.844 166.621 231.785C166.615 231.73 166.621 231.672 166.638 231.616C166.655 231.561 166.683 231.509 166.72 231.466L167.574 230.299L168.427 230.791Z" fill="white"/>
<path d="M166.171 229.256L165.043 230.33C164.947 230.419 164.822 230.468 164.692 230.468C164.562 230.468 164.437 230.419 164.341 230.33C164.293 230.281 164.256 230.22 164.232 230.155C164.209 230.088 164.2 230.017 164.206 229.948C164.211 229.878 164.232 229.81 164.266 229.749C164.3 229.688 164.346 229.635 164.402 229.593L165.531 228.734L166.171 229.256Z" fill="white"/>
<path d="M163.945 227.26L162.847 228.12C162.8 228.163 162.745 228.195 162.685 228.216C162.625 228.236 162.561 228.243 162.498 228.237C162.435 228.232 162.374 228.213 162.319 228.182C162.263 228.151 162.215 228.109 162.176 228.058C162.132 228.007 162.101 227.947 162.085 227.881C162.069 227.816 162.068 227.748 162.083 227.682C162.098 227.616 162.127 227.555 162.17 227.503C162.213 227.451 162.267 227.41 162.329 227.383L163.67 226.738L163.945 227.26Z" fill="white"/>
<path d="M116.494 96.915H157.968L158.059 101.151L116.494 101.274V96.915Z" fill="#1A1A1A"/>
<path d="M142.567 96.915H134.486V101.265H142.567V96.915Z" fill="#61656D"/>
<path d="M142.14 96.915H134.913V101.265H142.14V96.915Z" fill="#DADDDF"/>
<path d="M141.683 61.5808L137.139 62.0105C137.169 62.0412 137.169 62.1026 137.169 62.1947L137.261 62.5631C137.291 62.5938 137.291 62.6552 137.322 62.7166C137.322 62.7329 137.328 62.7485 137.34 62.7602C137.351 62.7715 137.367 62.778 137.383 62.778L137.962 63.4534L138.023 63.5454C138.023 63.5761 138.054 63.5762 138.054 63.6068C138.085 63.7174 138.085 63.8343 138.054 63.9445C138.055 63.9614 138.053 63.978 138.048 63.994C138.043 64.0096 138.034 64.0243 138.023 64.0366C138.021 64.0603 138.01 64.0824 137.993 64.098L137.779 64.2822H137.688C137.657 64.2822 137.657 64.6813 137.627 64.6813C137.792 64.6079 137.967 64.5563 138.145 64.5278C138.269 64.6095 138.367 64.7252 138.426 64.8615C138.486 64.9978 138.505 65.1485 138.481 65.2953L138.389 65.6636C138.355 65.8267 138.272 65.9752 138.153 66.0903C138.033 66.2052 137.881 66.2813 137.718 66.3083L137.962 66.6153C138.033 66.7028 138.076 66.8099 138.084 66.9223L138.237 67.7204C138.249 67.8607 138.217 68.001 138.146 68.1223C138.075 68.2432 137.968 68.339 137.84 68.3958L135.035 69.5623L133.754 70.1149L127.258 75.9169L125.917 66.8302L129.302 64.0673C129.455 63.97 129.589 63.8451 129.698 63.6989L130.887 62.2561C131.382 61.6326 132.051 61.1731 132.809 60.9361L133.174 60.8133L141.53 60.0151C142.75 60.0765 142.445 61.4887 141.683 61.5808Z" fill="#4D61FC"/>
<path d="M138.481 65.3264L138.389 65.6947C138.355 65.8574 138.272 66.006 138.152 66.1211C138.033 66.2363 137.882 66.3121 137.718 66.3394L137.962 66.6464C138.033 66.7339 138.076 66.8407 138.084 66.9534L138.237 67.7515C138.249 67.8915 138.217 68.0321 138.146 68.1531C138.075 68.274 137.968 68.3698 137.84 68.4269L135.035 69.5934L135.827 66.7385C135.967 66.2295 136.234 65.765 136.602 65.389C136.971 65.0129 137.428 64.7376 137.932 64.5896H138.145C138.264 64.6685 138.358 64.7796 138.417 64.9098C138.477 65.0399 138.499 65.1842 138.481 65.3264Z" fill="#4D61FC"/>
<path d="M118.842 81.3506H107.07V57.9892L118.75 57.9585L118.842 81.3506Z" fill="#4D61FC"/>
<path d="M127.472 65.879L107.07 78.3426V81.1668C107.07 84.5743 110.028 87.1837 113.627 87.1837C115.085 87.1994 116.509 86.7358 117.683 85.8637L128.783 74.536L127.472 65.879Z" fill="#4D61FC"/>
<path d="M128.112 47.7363L118.872 51.3587L118.781 61.6733L107.07 61.7961V51.7271C107.07 47.1837 110.15 43.1622 115.121 41.1668L115.853 40.9213L126.343 38.4347L127.411 40.7064L128.112 47.7363Z" fill="#4D61FC"/>
<path d="M121.251 69.6851L120.123 60.0151C120.062 59.4625 119.421 59.1248 118.842 59.309C118.661 59.3505 118.5 59.4518 118.384 59.5964C118.268 59.7412 118.204 59.9211 118.201 60.1072L118.323 70.3604L114.694 72.6935C114.176 73.0312 114.542 73.7986 115.091 73.461L121.251 69.6851Z" fill="#4D61FC"/>
<path d="M118.781 59.4631L107.07 59.5245V61.7962H118.781V59.4631Z" fill="#4D61FC"/>
<path d="M141.683 61.5808L137.139 62.0105C137.169 62.0412 137.169 62.1026 137.169 62.1947L137.261 62.5631C137.291 62.5938 137.291 62.6552 137.322 62.7166C137.322 62.7329 137.328 62.7485 137.34 62.7602C137.351 62.7715 137.367 62.778 137.383 62.778L137.962 63.4534L138.023 63.5454C138.023 63.5761 138.054 63.5762 138.054 63.6068C138.085 63.7174 138.085 63.8343 138.054 63.9445C138.055 63.9614 138.053 63.978 138.048 63.994C138.043 64.0096 138.034 64.0243 138.023 64.0366C138.021 64.0603 138.01 64.0824 137.993 64.098L137.779 64.2822H137.688C137.657 64.2822 137.657 64.6813 137.627 64.6813C137.792 64.6079 137.967 64.5563 138.145 64.5278C138.269 64.6095 138.367 64.7252 138.426 64.8615C138.486 64.9978 138.505 65.1485 138.481 65.2953L138.389 65.6636C138.355 65.8267 138.272 65.9752 138.153 66.0903C138.033 66.2052 137.881 66.2813 137.718 66.3083L137.962 66.6153C138.033 66.7028 138.076 66.8099 138.084 66.9223L138.237 67.7204C138.249 67.8607 138.217 68.001 138.146 68.1223C138.075 68.2432 137.968 68.339 137.84 68.3958L135.035 69.5623L133.754 70.1149L127.258 75.9169L125.917 66.8302L129.302 64.0673C129.455 63.97 129.589 63.8451 129.698 63.6989L130.887 62.2561C131.382 61.6326 132.051 61.1731 132.809 60.9361L133.174 60.8133L141.53 60.0151C142.75 60.0765 142.445 61.4887 141.683 61.5808Z" fill="#FC9D9D"/>
<path opacity="0.15" d="M138.481 65.3264L138.389 65.6947C138.355 65.8574 138.272 66.006 138.152 66.1211C138.033 66.2363 137.882 66.3121 137.718 66.3394L137.962 66.6464C138.033 66.7339 138.076 66.8407 138.084 66.9534L138.237 67.7515C138.249 67.8915 138.217 68.0321 138.146 68.1531C138.075 68.274 137.968 68.3698 137.84 68.4269L135.035 69.5934L135.827 66.7385C135.967 66.2295 136.234 65.765 136.602 65.389C136.971 65.0129 137.428 64.7376 137.932 64.5896H138.145C138.264 64.6685 138.358 64.7796 138.417 64.9098C138.477 65.0399 138.499 65.1842 138.481 65.3264Z" fill="black"/>
<path d="M118.842 81.3506H107.07V57.9892L118.75 57.9585L118.842 81.3506Z" fill="#FC9D9D"/>
<path d="M127.472 65.879L107.07 78.3426V81.1668C107.07 84.5743 110.028 87.1837 113.627 87.1837C115.085 87.1994 116.509 86.7358 117.683 85.8637L128.783 74.536L127.472 65.879Z" fill="#FC9D9D"/>
<path d="M128.112 47.7363L118.872 51.3587L118.781 61.6733L107.07 61.7961V51.7271C107.07 47.1837 110.15 43.1622 115.121 41.1668L115.853 40.9213L126.343 38.4347L127.411 40.7064L128.112 47.7363Z" fill="#4D61FC"/>
<path opacity="0.15" d="M121.251 69.6851L120.123 60.0151C120.062 59.4625 119.421 59.1248 118.842 59.309C118.661 59.3505 118.5 59.4518 118.384 59.5964C118.268 59.7412 118.204 59.9211 118.201 60.1072L118.323 70.3604L114.694 72.6935C114.176 73.0312 114.542 73.7986 115.091 73.461L121.251 69.6851Z" fill="black"/>
<path d="M118.781 59.4631L107.07 59.5245V61.7962H118.781V59.4631Z" fill="white"/>
<path d="M138.786 70.9437L139.761 71.619L141.469 69.685C141.603 69.5322 141.786 69.4309 141.985 69.3971C142.185 69.3636 142.391 69.4002 142.567 69.5009C142.618 69.5309 142.662 69.5721 142.695 69.6215C142.728 69.6706 142.75 69.7268 142.758 69.7857C142.767 69.8447 142.763 69.9048 142.745 69.9616C142.728 70.0184 142.698 70.0709 142.658 70.1148C141.835 71.1586 140.127 73.2153 140.097 73.2153C140.066 73.2153 137.993 72.1102 137.993 72.1102L138.786 70.9437Z" fill="#FC9D9D"/>
<path d="M138.39 69.9002L139.213 70.4221L140.097 69.6239C140.179 69.5499 140.282 69.5039 140.392 69.4928C140.502 69.4818 140.612 69.5063 140.707 69.5625H140.738C140.816 69.6058 140.883 69.6653 140.936 69.7375C140.988 69.8096 141.024 69.8925 141.042 69.9803C141.06 70.0681 141.058 70.1584 141.037 70.2455C141.016 70.3324 140.976 70.4138 140.921 70.4835C140.341 71.2509 139.396 72.4788 139.365 72.4788C139.335 72.4788 137.383 71.4044 137.383 71.4044L138.39 69.9002Z" fill="#FC9D9D"/>
<path opacity="0.15" d="M138.786 70.9437L139.761 71.619L141.469 69.685C141.603 69.5322 141.786 69.4309 141.985 69.3971C142.185 69.3636 142.391 69.4002 142.567 69.5009C142.618 69.5309 142.662 69.5721 142.695 69.6215C142.728 69.6706 142.75 69.7268 142.758 69.7857C142.767 69.8447 142.763 69.9048 142.745 69.9616C142.728 70.0184 142.698 70.0709 142.658 70.1148C141.835 71.1586 140.127 73.2153 140.097 73.2153C140.066 73.2153 137.993 72.1102 137.993 72.1102L138.786 70.9437Z" fill="black"/>
<path opacity="0.15" d="M138.39 69.9002L139.213 70.4221L140.097 69.6239C140.179 69.5499 140.282 69.5039 140.392 69.4928C140.502 69.4818 140.612 69.5063 140.707 69.5625H140.738C140.816 69.6058 140.883 69.6653 140.936 69.7375C140.988 69.8096 141.024 69.8925 141.042 69.9803C141.06 70.0681 141.058 70.1584 141.037 70.2455C141.016 70.3324 140.976 70.4138 140.921 70.4835C140.341 71.2509 139.396 72.4788 139.365 72.4788C139.335 72.4788 137.383 71.4044 137.383 71.4044L138.39 69.9002Z" fill="black"/>
<path d="M150.344 62.4406L139.762 64.6201C139.258 64.7573 138.798 65.025 138.429 65.3968C138.06 65.7686 137.794 66.2309 137.658 66.7383L136.804 69.8082C136.671 70.3095 136.693 70.8396 136.867 71.3277C137.042 71.8161 137.36 72.2392 137.78 72.5403L139.884 73.9831C140.341 74.2901 140.829 74.1366 141.256 73.7682L143.208 72.1412C143.513 71.8956 143.665 71.4352 143.33 71.1896C143.234 71.115 143.116 71.0745 142.994 71.0745C142.873 71.0745 142.755 71.115 142.659 71.1896L141.713 71.8649C141.488 72.0316 141.208 72.1056 140.93 72.0712C140.652 72.0369 140.398 71.8972 140.219 71.6807L139.335 70.6984C139.266 70.6017 139.234 70.4832 139.245 70.3644C139.256 70.2459 139.31 70.1354 139.396 70.0537L140.097 69.5319C140.524 69.1635 141.53 68.5802 142.049 68.8258L143.757 70.0844C144.284 70.5133 144.939 70.7512 145.617 70.7598C146.244 70.7868 146.857 70.5664 147.325 70.1458C147.691 69.8388 148.179 69.3477 148.484 69.0714C148.595 69.0029 148.72 68.9609 148.849 68.9486L152.051 68.5802L150.344 62.4406Z" fill="#FC9D9D"/>
<path d="M180.168 55.9324L171.812 64.5586L157.754 52.9547L164.554 43.5303L180.168 55.9324Z" fill="#FC9D9D"/>
<path d="M170.196 48.0431L162.329 56.7307L156.687 52.0953L150.191 57.1912L146.41 42.456L146.715 37.0838H150.405C153.586 37.0657 156.707 37.9599 159.401 39.6624C160.796 40.5779 162.13 41.5829 163.396 42.6709L170.196 48.0431Z" fill="#4D61FC"/>
<path opacity="0.15" d="M168.915 56.3312L164.86 57.467L156.961 51.1739C156.877 51.0529 156.757 50.963 156.617 50.9175C156.478 50.8721 156.328 50.874 156.189 50.9228C156.051 50.9713 155.932 51.0643 155.851 51.1874C155.77 51.3102 155.732 51.4563 155.741 51.6037L156.046 96.9144H157.937L156.687 52.0948L164.371 58.4187L169.159 57.1294C169.23 57.103 169.293 57.0584 169.341 57.0001C169.389 56.9418 169.421 56.8715 169.433 56.7966C169.446 56.7217 169.438 56.6449 169.411 56.574C169.385 56.5031 169.34 56.4405 169.281 56.3926C169.172 56.3244 169.041 56.3023 168.915 56.3312Z" fill="black"/>
<path d="M162.328 56.7306L160.56 55.2878L168.305 46.5081L170.196 48.043L162.328 56.7306Z" fill="white"/>
<path d="M149.337 62.6246L176.082 55.1649C183.37 53.9369 184.773 64.313 177.485 65.5409L150.008 68.8256L149.337 62.6246Z" fill="#FC9D9D"/>
<path d="M148.635 69.0103L147.69 62.8092L149.52 62.4408L150.526 68.7647L148.635 69.0103Z" fill="#3F4249"/>
<path d="M146.562 62.7785C146.539 62.7181 146.528 62.6536 146.531 62.5888C146.534 62.5241 146.55 62.4608 146.579 62.4028C146.608 62.3448 146.648 62.2935 146.698 62.2527C146.748 62.2115 146.806 62.1815 146.867 62.1646L150.1 61.3971C150.213 61.375 150.33 61.3937 150.43 61.4496C150.531 61.5058 150.608 61.596 150.649 61.7041V61.7655C150.667 61.826 150.673 61.8895 150.666 61.9521C150.659 62.0151 150.639 62.0759 150.607 62.1305C150.576 62.1851 150.534 62.2327 150.483 62.2702C150.432 62.3079 150.375 62.3346 150.313 62.3488L147.081 63.0545C147.029 63.0736 146.974 63.0812 146.919 63.0772C146.863 63.0735 146.81 63.0579 146.761 63.0318C146.712 63.006 146.67 62.9698 146.635 62.9262C146.601 62.8826 146.576 62.8323 146.562 62.7785Z" fill="#21252B"/>
<path d="M129.698 37.2679L126.191 38.3116C126.404 39.2019 127.502 40.3684 128.356 41.0131C132.473 44.175 139.03 44.6048 143.634 41.0131C144.885 40.0307 145.617 38.3423 145.8 37.0837L142.567 36.9916L129.698 37.2679Z" fill="white"/>
<path d="M137.993 8.38087C133.205 8.13528 127.899 9.54741 127.655 16.4852L127.075 21.6733H145.83L146.165 16.0248C146.165 13.047 146.165 10.6832 142.11 9.20972C140.789 8.71609 139.4 8.43643 137.993 8.38087Z" fill="#1A1A1A"/>
<path d="M142.994 20.6605C142.994 20.6605 130.216 12.6176 129.789 22.441L129.606 25.0197L128.752 37.6674C130.948 43.5001 143.726 41.1056 143.116 37.3297L142.231 30.1463C142.396 29.3899 142.478 28.6179 142.475 27.8439C142.628 24.0681 142.994 20.6605 142.994 20.6605Z" fill="#FC9D9D"/>
<path d="M145.068 13.4768C145.068 13.4768 148.91 32.7861 139.212 34.0447C130.765 35.1806 129.82 21.9803 129.82 21.9803L130.064 16.6695C130.095 15.8007 130.465 14.9795 131.092 14.3824C131.72 13.7853 132.555 13.4599 133.418 13.4768H145.068Z" fill="#FC9D9D"/>
<path opacity="0.15" d="M129.545 25.6025C129.545 25.6025 130.368 25.6332 130.795 25.2648L129.423 27.383L129.545 25.6025Z" fill="black"/>
<path d="M130.003 20.4761C130.003 20.4761 129.393 18.6956 127.533 19.5244C125.673 20.3533 125.825 25.3571 129.424 25.6027C131.314 25.7562 130.948 24.651 130.643 23.1775L130.003 20.4761Z" fill="#FC9D9D"/>
<path opacity="0.3" d="M127.38 20.8443C127.681 20.6285 128.053 20.5401 128.417 20.5987C128.591 20.635 128.754 20.7083 128.896 20.8146C129.038 20.9205 129.156 21.0565 129.241 21.2127C129.515 21.6118 129.545 22.0416 129.606 22.5634L129.698 22.9932C129.698 23.1467 129.606 23.2695 129.515 23.2695C129.423 23.2695 129.241 23.1774 129.241 23.0853L129.18 22.6248C129.157 22.2445 129.041 21.8755 128.844 21.5504C128.661 21.2741 128.509 21.0899 128.326 21.0899C128.208 21.0648 128.085 21.0684 127.968 21.1004C127.852 21.1326 127.744 21.1922 127.655 21.2741C127.502 21.3355 127.38 21.3355 127.319 21.2127C127.258 21.0899 127.319 20.875 127.38 20.8443Z" fill="black"/>
<path opacity="0.15" d="M142.963 36.1938L142.567 32.51C141.713 33.3695 139.395 34.5668 136.773 33.9835C135.456 33.6207 134.271 32.8854 133.357 31.8653C133.323 31.8349 133.28 31.8184 133.235 31.8184C133.19 31.8184 133.147 31.8349 133.113 31.8653C133.094 31.8795 133.079 31.8982 133.068 31.9194C133.058 31.9405 133.052 31.9642 133.052 31.9881C133.052 32.0118 133.058 32.0354 133.068 32.0566C133.079 32.0781 133.094 32.0965 133.113 32.1109C134.275 33.4288 135.863 34.2883 137.596 34.5361C139.186 35.6041 141.052 36.1806 142.963 36.1938Z" fill="black"/>
<path opacity="0.3" d="M139.914 30.2074C139.504 30.2107 139.096 30.2519 138.694 30.3302C138.632 30.3234 138.573 30.2955 138.529 30.251C138.485 30.2061 138.456 30.1475 138.45 30.0846C138.455 30.0183 138.482 29.9553 138.526 29.9053C138.57 29.8556 138.629 29.8215 138.694 29.8083L139.822 29.7162C139.975 29.7162 140.097 29.7776 140.097 29.9618C140.097 30.146 140.005 30.146 139.914 30.2074Z" fill="black"/>
<path opacity="0.3" d="M140.31 29.0408C138.145 29.3785 137.199 28.2427 136.895 27.6594C136.87 27.6032 136.863 27.5412 136.874 27.4811C136.885 27.4209 136.913 27.3653 136.955 27.3217C137.013 27.3061 137.072 27.3036 137.13 27.3141C137.188 27.3248 137.243 27.3484 137.291 27.3831C137.596 27.9971 138.663 29.1943 141.225 28.3348C141.253 28.3197 141.283 28.3108 141.314 28.309C141.346 28.3071 141.377 28.3124 141.406 28.324C141.435 28.3357 141.462 28.3538 141.483 28.3768C141.504 28.3999 141.52 28.4275 141.53 28.4576C141.621 28.6111 141.53 28.7032 141.438 28.7953C141.072 28.9177 140.694 29 140.31 29.0408Z" fill="black"/>
<path opacity="0.3" d="M140.92 27.107L139.914 27.1684C139.761 27.1684 139.639 27.107 139.639 26.9842C139.639 26.8614 139.731 26.7386 139.822 26.7386L140.859 26.6772C140.983 26.6619 141.097 26.5989 141.176 26.5019C141.256 26.4049 141.295 26.2809 141.286 26.1554C141.271 26.0304 141.208 25.9162 141.112 25.8364C141.016 25.7563 140.893 25.7167 140.768 25.7256C140.615 25.7256 140.524 25.6335 140.524 25.5414C140.524 25.4493 140.585 25.2651 140.707 25.2651C140.953 25.2479 141.196 25.3283 141.384 25.4889C141.572 25.6494 141.69 25.8775 141.713 26.1247C141.735 26.2428 141.732 26.3647 141.702 26.4817C141.673 26.5983 141.619 26.7073 141.543 26.8009C141.468 26.8946 141.373 26.9704 141.265 27.0232C141.158 27.076 141.04 27.1045 140.92 27.107Z" fill="black"/>
<path opacity="0.19" d="M147.355 23.4537C147.305 24.1018 147.064 24.7204 146.665 25.2309C146.265 25.7414 145.723 26.1208 145.109 26.3216C144.495 26.5224 143.835 26.5349 143.214 26.3581C142.592 26.1813 142.037 25.8227 141.618 25.3279C141.199 24.833 140.936 24.2243 140.861 23.5787C140.786 22.9328 140.903 22.2792 141.197 21.7006C141.492 21.1219 141.95 20.6442 142.514 20.3277C143.078 20.0115 143.723 19.8706 144.366 19.9234C145.227 19.9937 146.025 20.4051 146.586 21.067C147.146 21.7285 147.422 22.5868 147.355 23.4537Z" fill="white"/>
<path opacity="0.19" d="M139.365 22.8093C139.33 23.2412 139.211 23.6618 139.014 24.047C138.817 24.4326 138.547 24.7749 138.218 25.0546C137.889 25.3342 137.509 25.5457 137.098 25.6765C136.688 25.8076 136.256 25.8555 135.827 25.8177C135.001 25.7047 134.248 25.2777 133.724 24.6235C133.201 23.9697 132.946 23.1384 133.012 22.3012C133.079 21.4641 133.461 20.684 134.081 20.1219C134.701 19.5599 135.512 19.2581 136.346 19.279C136.775 19.31 137.193 19.426 137.578 19.6206C137.962 19.815 138.304 20.0839 138.584 20.412C138.865 20.7402 139.079 21.1209 139.212 21.5322C139.346 21.9436 139.398 22.3777 139.365 22.8093Z" fill="white"/>
<path d="M139.365 22.8093C139.33 23.2412 139.211 23.6618 139.014 24.047C138.817 24.4326 138.547 24.7749 138.218 25.0546C137.889 25.3342 137.509 25.5457 137.098 25.6765C136.688 25.8076 136.256 25.8555 135.827 25.8177C135.001 25.7047 134.248 25.2777 133.724 24.6235C133.201 23.9697 132.946 23.1384 133.012 22.3012C133.079 21.4641 133.461 20.684 134.081 20.1219C134.701 19.5599 135.512 19.2581 136.346 19.279C136.775 19.31 137.193 19.426 137.578 19.6206C137.962 19.815 138.304 20.0839 138.584 20.412C138.865 20.7402 139.079 21.1209 139.212 21.5322C139.346 21.9436 139.398 22.3777 139.365 22.8093Z" stroke="#1A1A1A" stroke-width="0.12488" stroke-linecap="round" stroke-linejoin="round"/>
<path d="M147.355 23.4537C147.305 24.1018 147.064 24.7204 146.665 25.2309C146.265 25.7414 145.723 26.1208 145.109 26.3216C144.495 26.5224 143.835 26.5349 143.214 26.3581C142.592 26.1813 142.037 25.8227 141.618 25.3279C141.199 24.833 140.936 24.2243 140.861 23.5787C140.786 22.9328 140.903 22.2792 141.197 21.7006C141.492 21.1219 141.95 20.6442 142.514 20.3277C143.078 20.0115 143.723 19.8706 144.366 19.9234C145.227 19.9937 146.025 20.4051 146.586 21.067C147.146 21.7285 147.422 22.5868 147.355 23.4537Z" stroke="#1A1A1A" stroke-width="0.12488" stroke-linecap="round" stroke-linejoin="round"/>
<path d="M139.365 22.809C139.365 22.809 140.188 22.1336 140.829 22.9317" stroke="#1A1A1A" stroke-width="0.12488" stroke-linecap="round" stroke-linejoin="round"/>
<path d="M132.839 22.2871L130.095 20.967" stroke="#1A1A1A" stroke-width="0.12488" stroke-miterlimit="10"/>
<path d="M137.825 22.9305C137.858 22.5078 137.546 22.1379 137.126 22.1038C136.706 22.0698 136.339 22.3847 136.305 22.8074C136.271 23.2299 136.584 23.5998 137.004 23.6338C137.423 23.6679 137.791 23.353 137.825 22.9305Z" fill="#21252B"/>
<path d="M137.535 22.9016C137.636 22.9016 137.718 22.819 137.718 22.7174C137.718 22.6155 137.636 22.5332 137.535 22.5332C137.434 22.5332 137.352 22.6155 137.352 22.7174C137.352 22.819 137.434 22.9016 137.535 22.9016Z" fill="white"/>
<path d="M143.79 23.4875C143.823 23.0651 143.511 22.6949 143.091 22.6611C142.671 22.627 142.303 22.942 142.27 23.3644C142.236 23.7868 142.549 24.157 142.969 24.1908C143.388 24.2249 143.756 23.9099 143.79 23.4875Z" fill="#21252B"/>
<path d="M143.481 23.4537C143.582 23.4537 143.664 23.3711 143.664 23.2695C143.664 23.1676 143.582 23.0853 143.481 23.0853C143.381 23.0853 143.299 23.1676 143.299 23.2695C143.299 23.3711 143.381 23.4537 143.481 23.4537Z" fill="white"/>
<path d="M130.338 21.9186C130.409 21.9189 130.479 21.9045 130.544 21.8762C130.609 21.8483 130.667 21.8068 130.716 21.7553C130.764 21.7034 130.802 21.6423 130.826 21.5754C130.85 21.5085 130.86 21.4372 130.856 21.366C130.795 19.8618 130.826 16.2394 132.351 15.564C133.784 15.8096 143.909 17.1603 145.067 15.0115L145.738 21.6423H145.83L145.708 13.0775L132.839 11.5118L128.752 14.244L130.338 21.9186Z" fill="#1A1A1A"/>
</svg>
