<svg width="74" height="74" viewBox="0 0 74 74" fill="none" xmlns="http://www.w3.org/2000/svg">
<circle cx="37" cy="37" r="24.1683" fill="#495DE2" fill-opacity="0.2"/>
<path d="M38.3595 28.1786L46.335 36.1541C46.4559 36.275 46.5417 36.4059 46.5924 36.5469C46.6432 36.6879 46.6681 36.8389 46.6673 37C46.6673 37.1612 46.642 37.3122 46.5912 37.4532C46.5405 37.5942 46.4551 37.7251 46.335 37.8459L38.3595 45.8215C38.138 46.043 37.8608 46.1586 37.5281 46.1683C37.1954 46.1779 36.9086 46.0623 36.6677 45.8215C36.426 45.5999 36.3 45.3228 36.2895 44.9901C36.279 44.6573 36.395 44.3705 36.6375 44.1297L42.5587 38.2084L29.0547 38.2084C28.7123 38.2084 28.4251 38.0924 28.1931 37.8604C27.9611 37.6284 27.8455 37.3416 27.8463 37C27.8463 36.6577 27.9619 36.3705 28.1931 36.1384C28.4243 35.9064 28.7115 35.7908 29.0547 35.7916L42.5587 35.7916L36.6375 29.8704C36.416 29.6489 36.3 29.3669 36.2895 29.0245C36.279 28.6821 36.395 28.4002 36.6375 28.1786C36.8591 27.9369 37.141 27.8161 37.4834 27.8161C37.8258 27.8161 38.1178 27.9369 38.3595 28.1786Z" fill="#495DE2"/>
<path d="M67.2103 37C67.2103 53.6847 53.6847 67.2103 37 67.2103C20.3153 67.2103 6.78967 53.6847 6.78967 37C6.78967 20.3153 20.3153 6.78967 37 6.78967C53.6847 6.78967 67.2103 20.3153 67.2103 37ZM9.81071 37C9.81071 52.0162 21.9838 64.1893 37 64.1893C52.0162 64.1893 64.1893 52.0162 64.1893 37C64.1893 21.9838 52.0162 9.81071 37 9.81071C21.9838 9.81071 9.81071 21.9838 9.81071 37Z" fill="#D9D9D9"/>
<path d="M33.2336 7.02544C38.4947 6.36437 43.8371 7.09967 48.724 9.15746C53.6109 11.2153 57.8701 14.523 61.0736 18.7484C64.2772 22.9738 66.3121 27.9679 66.974 33.2289C67.6359 38.49 66.9015 43.8325 64.8444 48.7197L62.06 47.5478C63.9113 43.1493 64.5723 38.341 63.9766 33.6061C63.3809 28.8711 61.5494 24.3764 58.6663 20.5736C55.7831 16.7707 51.9498 13.7937 47.5516 11.9417C43.1534 10.0897 38.3452 9.42794 33.6102 10.0229L33.2336 7.02544Z" fill="#495DE2"/>
</svg>
