<svg width="332" height="237" viewBox="0 0 332 237" fill="none" xmlns="http://www.w3.org/2000/svg">
<path d="M66.7651 136.906H37.1992V155.416H66.7651V136.906Z" fill="#B2B6BB"/>
<path d="M66.7648 136.906H60.4773V155.416H66.7648V136.906Z" fill="#61656D"/>
<path d="M74.6019 157.391H94.2248C94.3555 157.391 94.4848 157.365 94.6053 157.314C94.7261 157.264 94.8357 157.19 94.9279 157.097C95.0203 157.004 95.0937 156.894 95.1434 156.772C95.1934 156.651 95.2191 156.52 95.2191 156.388C95.2191 156.257 95.1934 156.126 95.1434 156.005C95.0937 155.883 95.0203 155.773 94.9279 155.68C94.8357 155.587 94.7261 155.513 94.6053 155.463C94.4848 155.412 94.3555 155.386 94.2248 155.386H74.6019V157.391Z" fill="#B2B6BB"/>
<path d="M91.6809 156.418H71.8825V217.871H91.6809V156.418Z" fill="#B2B6BB"/>
<path d="M72.4967 156.418H11.9319V217.871H72.4967V156.418Z" fill="#DADDDF"/>
<path d="M69.426 213.185H14.7685V164.965L69.426 165.024V213.185ZM15.2072 212.743H68.9874V165.466H15.2072V212.743Z" fill="#B2B6BB"/>
<path d="M9.68035 157.391H74.6318C74.8956 157.391 75.1483 157.285 75.3349 157.097C75.5214 156.909 75.6261 156.654 75.6261 156.389C75.6261 156.123 75.5214 155.868 75.3349 155.68C75.1483 155.492 74.8956 155.386 74.6318 155.386H9.68035C9.54933 155.385 9.41949 155.41 9.29842 155.46C9.17735 155.51 9.0671 155.584 8.97468 155.677C8.88198 155.77 8.80887 155.882 8.75945 156.004C8.70973 156.126 8.68487 156.256 8.68604 156.389C8.69336 156.652 8.80039 156.903 8.98551 157.089C9.17033 157.275 9.4189 157.383 9.68035 157.391Z" fill="#DADDDF"/>
<path d="M69.426 188.78H14.7685V189.222H69.426V188.78Z" fill="#B2B6BB"/>
<path d="M39.7434 172.717C40.044 172.717 40.3382 172.627 40.5883 172.459C40.8383 172.29 41.0331 172.051 41.1483 171.771C41.2635 171.491 41.2936 171.183 41.2348 170.885C41.1761 170.588 41.0313 170.315 40.8187 170.101C40.6061 169.886 40.335 169.74 40.0399 169.681C39.7451 169.622 39.4392 169.652 39.1614 169.768C38.8836 169.884 38.6461 170.081 38.4789 170.333C38.3119 170.585 38.2227 170.881 38.2227 171.184C38.2227 171.591 38.3829 171.981 38.6681 172.268C38.9532 172.555 39.3401 172.717 39.7434 172.717Z" fill="#B2B6BB"/>
<path opacity="0.15" d="M40.2988 171.184C40.2979 170.866 40.1991 170.557 40.0157 170.298C39.8323 170.039 39.5735 169.844 39.2752 169.74C39.434 169.68 39.6028 169.65 39.7724 169.652C40.1759 169.652 40.5626 169.813 40.8477 170.101C41.1331 170.388 41.2931 170.778 41.2931 171.184C41.2931 171.591 41.1331 171.981 40.8477 172.268C40.5626 172.555 40.1759 172.717 39.7724 172.717C39.6031 172.716 39.4349 172.686 39.2752 172.629C39.5735 172.524 39.8323 172.33 40.0157 172.071C40.1991 171.812 40.2979 171.502 40.2988 171.184Z" fill="black"/>
<path d="M39.7434 196.443C40.044 196.443 40.3382 196.353 40.5883 196.185C40.8383 196.016 41.0331 195.777 41.1483 195.497C41.2635 195.217 41.2936 194.909 41.2348 194.612C41.1761 194.314 41.0313 194.041 40.8187 193.827C40.6061 193.613 40.335 193.467 40.0399 193.407C39.7451 193.348 39.4392 193.379 39.1614 193.495C38.8836 193.611 38.6461 193.807 38.4789 194.059C38.3119 194.311 38.2227 194.608 38.2227 194.911C38.2227 195.317 38.3829 195.707 38.6681 195.994C38.9532 196.282 39.3401 196.443 39.7434 196.443Z" fill="#B2B6BB"/>
<path opacity="0.15" d="M40.2988 194.911C40.2979 194.593 40.1991 194.283 40.0157 194.024C39.8323 193.765 39.5735 193.57 39.2752 193.466C39.434 193.406 39.6028 193.376 39.7724 193.378C40.1759 193.378 40.5626 193.54 40.8477 193.827C41.1331 194.114 41.2931 194.504 41.2931 194.911C41.2931 195.317 41.1331 195.707 40.8477 195.994C40.5626 196.282 40.1759 196.443 39.7724 196.443C39.6031 196.443 39.4349 196.413 39.2752 196.355C39.5735 196.251 39.8323 196.056 40.0157 195.797C40.1991 195.538 40.2979 195.229 40.2988 194.911Z" fill="black"/>
<path d="M75.6258 159.454L72.4967 157.391H11.9319V158.334L75.6258 159.454Z" fill="#B2B6BB"/>
<path d="M87.7914 217.871L89.3121 234.877C89.3627 235.125 89.3179 235.381 89.1872 235.596C89.0565 235.815 88.8494 235.971 88.6079 236.039C88.3663 236.106 88.1084 236.077 87.8861 235.962C87.6642 235.844 87.4943 235.647 87.4112 235.408L82.9953 217.871H87.7914Z" fill="#DADDDF"/>
<path d="M87.2358 227.774L85.3934 227.332L83.0246 217.9H87.8207L89.3414 234.907C89.3817 235.134 89.3461 235.367 89.2402 235.567C89.1341 235.77 88.9638 235.932 88.7565 236.027L87.2358 227.774Z" fill="#B2B6BB"/>
<path d="M70.5665 217.871L72.0872 234.877C72.1378 235.125 72.0931 235.381 71.9624 235.596C71.8313 235.815 71.6243 235.971 71.3827 236.039C71.1412 236.106 70.8832 236.077 70.6613 235.962C70.439 235.844 70.2694 235.647 70.1864 235.408L65.7705 217.871H70.5665Z" fill="#DADDDF"/>
<path d="M68.9582 219.757L66.2092 219.227L65.7413 217.871H70.5373L72.058 234.877C72.0984 235.104 72.0627 235.337 71.9569 235.538C71.851 235.741 71.6808 235.903 71.4732 235.997L68.9582 219.757Z" fill="#B2B6BB"/>
<path d="M32.6071 217.871L31.0864 234.877C31.0361 235.125 31.0809 235.381 31.2116 235.596C31.3423 235.815 31.5494 235.971 31.7909 236.039C32.0325 236.106 32.2904 236.077 32.5124 235.962C32.7347 235.844 32.9043 235.647 32.9873 235.408L37.4032 217.871H32.6071Z" fill="#DADDDF"/>
<path d="M33.4555 226.919L31.8179 226.507L32.6075 217.871H37.4035L32.9876 235.408C32.9198 235.605 32.7935 235.773 32.6262 235.897C32.4586 236.018 32.2583 236.083 32.0518 236.086H31.9933L33.4555 226.919Z" fill="#B2B6BB"/>
<path d="M14.9145 217.871L13.3938 234.877C13.3435 235.125 13.3882 235.381 13.5189 235.596C13.6496 235.815 13.8567 235.971 14.0983 236.039C14.3398 236.106 14.5977 236.077 14.8197 235.962C15.042 235.844 15.2116 235.647 15.2946 235.408L19.7105 217.871H14.9145Z" fill="#DADDDF"/>
<path d="M16.7864 219.345L14.6808 218.961L14.9147 217.871H19.7108L15.2949 235.408C15.2271 235.605 15.1007 235.773 14.9332 235.897C14.7659 236.018 14.5653 236.083 14.3591 236.086H14.3006L16.7864 219.345Z" fill="#B2B6BB"/>
<path d="M40.8251 194.292L30.4142 206.17L37.8422 211.947L46.557 203.93L40.8251 194.292Z" fill="#FC9D9D"/>
<path d="M31.8179 204.225L25.1795 209.353C24.8277 209.626 24.5841 210.016 24.4928 210.454C24.4019 210.892 24.4689 211.348 24.6823 211.74L37.4328 235.467C37.5636 235.72 37.7826 235.912 38.0476 236.012C38.3125 236.109 38.6044 236.103 38.8658 235.997C39.4305 235.788 39.8952 235.37 40.1663 234.827C40.4377 234.288 40.4953 233.663 40.328 233.079L40.1818 232.519C39.4513 229.929 39.0679 227.254 39.0413 224.562L38.8658 212.035C38.8591 211.66 38.7292 211.297 38.4965 211.004C38.2637 210.711 37.9411 210.503 37.5791 210.414C36.3915 210.134 35.3182 209.491 34.507 208.573C33.6954 207.655 33.1854 206.507 33.0462 205.286L32.9877 204.667C32.9576 204.547 32.8991 204.436 32.8172 204.344C32.7353 204.251 32.6327 204.181 32.5178 204.137C32.4028 204.094 32.2791 204.079 32.1572 204.094C32.0352 204.109 31.9188 204.154 31.8179 204.225Z" fill="#242830"/>
<path d="M35.0348 200.776L68.6072 161.517L68.2563 106.637H86.651L83.9312 165.408C83.9178 166.65 83.6572 167.877 83.165 169.016C82.6728 170.155 81.9587 171.183 81.0653 172.039L42.1412 208.027L35.0348 200.776Z" fill="#3F4249"/>
<path d="M90.1892 59.1539L89.1656 75.8951L87.8204 75.6888L86.6214 106.725L47.551 106.607L46.8784 71.8277L43.6031 51.0191L56.2366 47.3938L56.6752 47.2759L58.2837 46.8044L65.1268 52.7286L72.4087 46.7159L74.3388 47.3349C74.485 47.3644 74.5435 47.3938 74.5727 47.3938H74.602L74.6897 47.4233L74.7774 47.4528L84.1356 50.4591C85.9546 51.033 87.5344 52.1966 88.6293 53.7693C89.7239 55.3418 90.2725 57.2349 90.1892 59.1539Z" fill="#4D61FC"/>
<path d="M37.3451 58.83L35.064 91.2512L49.8616 85.2975L53.0785 48.7499L43.9543 50.9604C42.1663 51.3946 40.5616 52.3914 39.3734 53.8064C38.1849 55.2215 37.4746 56.9808 37.3451 58.83Z" fill="#4D61FC"/>
<path d="M64.0746 54.1731L61.6181 93.4028L64.9519 96.9986L68.081 93.4028L66.2971 53.9962L65.1274 53.2004L64.0746 54.1731Z" fill="#242830"/>
<path d="M118.439 56.1773L97.2081 89.8364C96.8513 90.4012 96.3471 90.8559 95.7508 91.151C95.1545 91.446 94.4892 91.5701 93.8277 91.5091C93.1662 91.4484 92.534 91.2049 92.0005 90.8058C91.4671 90.4068 91.053 89.8674 90.8036 89.247L85.1887 75.129L89.6046 55.6467L96.0383 73.9205L108.321 56.1773H118.439Z" fill="#4D61FC"/>
<path d="M47.1422 218.401L56.7051 218.608L56.2372 226.065L47.4054 226.86L47.1422 218.401Z" fill="#FC9D9D"/>
<path d="M51.821 222.321C53.0475 222.321 54.2263 222.8 55.1098 223.658C55.993 224.515 56.5124 225.684 56.5586 226.919L56.5878 228.098C56.6109 228.567 56.6793 229.03 56.7925 229.484L58.1085 234.376C58.1623 234.574 58.1708 234.777 58.1331 234.978C58.0954 235.178 58.0123 235.367 57.8909 235.529C57.7693 235.691 57.6122 235.823 57.4318 235.915C57.2517 236.006 57.0528 236.053 56.851 236.056H45.9721C45.7557 236.056 45.5425 236.003 45.351 235.903C45.1597 235.8 44.9963 235.652 44.8749 235.473C44.7535 235.293 44.6781 235.084 44.6553 234.868C44.6325 234.65 44.6629 234.432 44.7439 234.229L46.6155 229.513C46.8784 228.856 47.027 228.157 47.0542 227.45L47.0834 226.89C47.1364 225.66 47.6587 224.497 48.5415 223.646C49.4241 222.795 50.5992 222.32 51.821 222.321Z" fill="#242830"/>
<path opacity="0.2" d="M87.6159 81.1415L83.3755 71.0614C83.3246 70.9883 83.2527 70.9326 83.1696 70.9019C83.0863 70.8713 82.9956 70.8666 82.9099 70.889C82.8242 70.9114 82.747 70.9597 82.6894 71.0275C82.6315 71.095 82.5953 71.179 82.5859 71.2677L80.3633 106.607L86.6216 106.725L87.6159 81.1415Z" fill="black"/>
<path opacity="0.2" d="M80.3633 106.637L76.8833 165.614L46.7617 198.271L46.674 189.458L45.0948 191.345L44.4806 200.747L39.8893 205.728L42.1411 208.027L81.2114 171.892C82.0662 171.082 82.7482 170.105 83.2158 169.02C83.6834 167.936 83.9267 166.767 83.9311 165.584L86.6508 106.637H80.3633Z" fill="black"/>
<g opacity="0.2">
<path opacity="0.2" d="M63.0651 167.09L61.8573 189.311L62.296 189.334L63.5038 167.117L63.0651 167.09Z" fill="black"/>
</g>
<path d="M74.1925 77.7226L75.9764 75.07L76.4151 72.2405C76.4291 72.1833 76.4581 72.1311 76.4993 72.0896C76.5406 72.048 76.5923 72.0186 76.6491 72.0047C76.8342 71.9626 77.0257 71.959 77.2117 71.995C77.398 72.0309 77.5749 72.1049 77.7314 72.2128C77.8878 72.3207 78.0206 72.4601 78.1212 72.6222C78.2218 72.784 78.2882 72.9653 78.316 73.1542L78.8716 76.5732L85.1006 76.131C85.3293 76.131 85.5501 76.2147 85.7224 76.3665C85.8943 76.5183 86.006 76.7279 86.0365 76.9563C86.0473 77.0833 86.0321 77.211 85.9917 77.3318C85.9511 77.4524 85.8861 77.5635 85.801 77.6575C85.7159 77.7515 85.6121 77.827 85.4966 77.8788C85.3814 77.9304 85.2562 77.9578 85.1299 77.9584H85.1591C85.4162 77.9567 85.6645 78.053 85.8543 78.2278C86.0441 78.4029 86.1613 78.6434 86.1827 78.9016C86.1976 79.0378 86.185 79.1754 86.1455 79.3066C86.1061 79.4374 86.0405 79.5589 85.9531 79.6638C85.8654 79.7684 85.7578 79.8542 85.6364 79.9158C85.515 79.9771 85.3826 80.0133 85.2469 80.0216L84.779 80.0511L85.3054 79.9921C85.5612 79.9685 85.816 80.0487 86.0136 80.2144C86.211 80.3803 86.335 80.6184 86.3581 80.8763C86.3815 81.1342 86.302 81.391 86.1376 81.5899C85.973 81.7889 85.7367 81.9138 85.4808 81.9374L84.8667 81.9964L85.744 81.9079C85.9318 81.8991 86.1163 81.9604 86.2619 82.0801C86.4076 82.1997 86.5044 82.3692 86.5336 82.5564C86.5488 82.7347 86.4971 82.9121 86.3889 83.0539C86.2807 83.1959 86.1236 83.2917 85.9487 83.3227L75.0699 85.0911L70.8002 86.3585L71.9407 77.8995L74.1925 77.7226Z" fill="#FC9D9D"/>
<path opacity="0.2" d="M53.0788 79.668C52.1564 79.1743 51.3695 78.4587 50.7878 77.5845C50.2061 76.7103 49.8479 75.7049 49.7449 74.6574L48.8676 65.5795C48.8676 65.5364 48.8507 65.4952 48.8202 65.4648C48.7901 65.4344 48.7492 65.4174 48.7068 65.4174C48.6641 65.4174 48.6231 65.4344 48.593 65.4648C48.5626 65.4952 48.5459 65.5364 48.5459 65.5795L47.0837 80.3754L43.7791 80.7585C43.7285 80.7706 43.6844 80.8013 43.6551 80.8443C43.6259 80.8876 43.6139 80.9401 43.6212 80.9917C43.6285 81.0435 43.6548 81.0907 43.6949 81.1237C43.735 81.157 43.7859 81.1738 43.8376 81.1711L74.2224 77.6932L74.5733 77.1627L53.0788 79.668Z" fill="black"/>
<path opacity="0.15" d="M86.5339 82.5857L86.5046 82.5268C86.4646 82.3322 86.3499 82.1613 86.1859 82.0511C86.0218 81.9408 85.8212 81.8999 85.6273 81.9373L85.5103 81.9668L76.4738 83.352L74.0466 77.7225H73.374L70.8589 78.0173L71.6193 86.1815C71.6193 86.1815 75.8597 85.0321 76.0059 85.0026L76.7955 84.8847C79.603 84.4131 85.2471 83.4994 85.832 83.411C86.6508 83.2341 86.5339 82.5857 86.5339 82.5857Z" fill="black"/>
<g opacity="0.15">
<path opacity="0.15" d="M82.4397 77.9585C82.4391 77.9311 82.4438 77.904 82.4537 77.8786C82.4637 77.8533 82.4789 77.83 82.4979 77.8109C82.5172 77.7914 82.54 77.7764 82.5651 77.7664C82.5903 77.7563 82.6175 77.7513 82.6444 77.7522L85.9198 77.4869C85.8504 77.6325 85.7431 77.756 85.6089 77.8445C85.4749 77.9326 85.3197 77.9824 85.1594 77.988H85.1302L82.6736 78.1943C82.5567 78.1648 82.4397 78.0764 82.4397 77.9585Z" fill="black"/>
</g>
<g opacity="0.15">
<path opacity="0.15" d="M82.5859 80.1687C82.5818 80.1148 82.5976 80.0612 82.6298 80.0178C82.662 79.9742 82.7087 79.9442 82.7614 79.933L86.066 79.4908C86.0031 79.6376 85.9019 79.7647 85.7732 79.8578C85.6446 79.9512 85.4931 80.0078 85.3349 80.0214H85.3056L82.7906 80.3751C82.7392 80.3671 82.6918 80.3426 82.6549 80.3055C82.6181 80.2684 82.5941 80.2206 82.5859 80.1687Z" fill="black"/>
</g>
<path opacity="0.2" d="M68.8412 55.7646L65.2734 54.7919L61.8518 55.794L56.2369 47.4234L56.6756 47.3055L62.2027 55.5288L65.1564 53.2003L68.4902 55.5288L74.3976 47.3645C74.5438 47.394 74.6023 47.4234 74.6315 47.4234H74.6608L74.7485 47.4529L74.8362 47.4824L68.8412 55.7646Z" fill="black"/>
<path d="M36.0879 82.3203L71.9413 77.9287L73.1696 85.6509L39.1878 95.6425C38.6652 95.7964 38.1133 95.8179 37.5808 95.705C37.0482 95.5921 36.5514 95.3484 36.1347 94.9956C35.7182 94.6428 35.3945 94.1915 35.1924 93.6822C34.9903 93.1729 34.916 92.6214 34.9766 92.0762L36.0879 82.3203Z" fill="#4D61FC"/>
<path opacity="0.2" d="M72.9646 84.3247L40.8544 92.0763C40.1835 92.2213 39.4881 92.2069 38.824 92.0333C38.1595 91.86 37.5445 91.5328 37.0275 91.0778C36.5107 90.6227 36.1066 90.0524 35.8469 89.4122C35.5872 88.772 35.4793 88.0797 35.5319 87.39L35.5904 86.7416L35.0055 92.0763C34.9453 92.6213 35.0193 93.1731 35.2214 93.6824C35.4234 94.1917 35.7472 94.6429 36.1639 94.9957C36.5806 95.3485 37.0772 95.5923 37.6097 95.7052C38.1423 95.818 38.6944 95.7965 39.2167 95.6427L52.8445 91.6048L73.1985 85.6216L72.9646 84.3247Z" fill="black"/>
<path d="M72.4967 77.8994L73.9881 85.4742L75.4503 85.1205L74.0466 77.7225L72.4967 77.8994Z" fill="#242830"/>
<path d="M74.0466 83.2932C74.3761 83.2932 74.6984 83.1948 74.9724 83.01C75.2467 82.8255 75.4602 82.5632 75.5866 82.2561C75.7126 81.9492 75.7457 81.6115 75.6813 81.2855C75.617 80.9595 75.4582 80.6603 75.2251 80.4254C74.992 80.1902 74.6949 80.0305 74.3718 79.9656C74.0483 79.9008 73.7132 79.9341 73.4085 80.0611C73.104 80.1882 72.8437 80.4036 72.6604 80.6798C72.4773 80.9563 72.3796 81.2811 72.3796 81.6132C72.3796 82.0589 72.5551 82.4862 72.8677 82.8013C73.1803 83.1164 73.6044 83.2932 74.0466 83.2932Z" fill="#242830"/>
<path opacity="0.2" d="M75.0997 83.2931L74.3978 79.6679C74.2727 79.6422 74.1452 79.6325 74.0177 79.6384C73.6065 79.639 73.2064 79.7734 72.8771 80.0215L73.579 83.5879C73.7229 83.6221 73.8697 83.6418 74.0177 83.6468C74.3975 83.6009 74.7651 83.4806 75.0997 83.2931Z" fill="black"/>
<path d="M74.0469 83.0867C74.3361 83.0867 74.6186 83.0003 74.8593 82.8382C75.0997 82.6764 75.2871 82.4462 75.3977 82.1768C75.5085 81.9078 75.5374 81.6112 75.481 81.3256C75.4246 81.0397 75.2854 80.7771 75.0807 80.5711C74.8762 80.3648 74.6157 80.2245 74.332 80.1676C74.0483 80.1107 73.7544 80.1399 73.4871 80.2516C73.2201 80.363 72.9917 80.552 72.8309 80.7942C72.6703 81.0365 72.5847 81.3215 72.5847 81.613C72.5847 82.0038 72.7388 82.3787 73.0128 82.6552C73.2871 82.9314 73.6591 83.0867 74.0469 83.0867Z" fill="white"/>
<path d="M47.5516 106.637L46.996 221.85H56.6466L66.151 126.148C66.1615 125.884 66.2747 125.633 66.4659 125.452C66.6572 125.27 66.9116 125.171 67.1745 125.176C67.4359 125.176 67.6874 125.277 67.8775 125.457C68.0676 125.638 68.1823 125.885 68.1981 126.148L68.4613 134.99L69.9527 106.637H47.5516Z" fill="#3F4249"/>
<path opacity="0.2" d="M67.1446 125.146C61.3543 125.146 56.295 129.891 56.295 135.727L52.5225 221.82H56.5874L66.0918 126.119C66.1231 125.857 66.2465 125.614 66.4395 125.436C66.6328 125.257 66.8829 125.155 67.1446 125.146Z" fill="black"/>
<path d="M86.5047 110.144H47.5221L47.5513 106.637H86.6509L86.5047 110.144Z" fill="#242830"/>
<path d="M58.3717 106.637H57.1142V110.439H58.3717V106.637Z" fill="#3F4249"/>
<path d="M75.2745 106.637H74.017V110.439H75.2745V106.637Z" fill="#3F4249"/>
<path d="M69.3383 110.144H64.7469C64.5218 110.144 64.3062 110.054 64.1471 109.894C63.9881 109.733 63.8989 109.516 63.8989 109.289V107.491C63.8989 107.265 63.9881 107.047 64.1471 106.887C64.3062 106.726 64.5218 106.637 64.7469 106.637H69.3383C69.5632 106.637 69.7787 106.726 69.9378 106.887C70.0969 107.047 70.1864 107.265 70.1864 107.491V109.289C70.1864 109.516 70.0969 109.733 69.9378 109.894C69.7787 110.054 69.5632 110.144 69.3383 110.144Z" fill="#B2B6BB"/>
<path d="M49.8032 227.185C49.769 227.185 49.735 227.178 49.7046 227.162C49.6739 227.147 49.6476 227.124 49.6277 227.096C49.6008 227.048 49.592 226.992 49.6026 226.938C49.6134 226.884 49.6432 226.835 49.6862 226.801C49.7155 226.801 51.821 225.387 53.8974 226.801C53.9442 226.833 53.9763 226.881 53.9875 226.936C53.9983 226.992 53.9872 227.049 53.9559 227.096C53.9249 227.143 53.8766 227.175 53.8219 227.187C53.767 227.198 53.7102 227.186 53.6634 227.155C51.821 225.917 49.9494 227.155 49.9202 227.155C49.8859 227.178 49.8444 227.189 49.8032 227.185Z" fill="#868A91"/>
<path d="M49.8032 228.452C49.769 228.452 49.735 228.446 49.7046 228.431C49.6739 228.414 49.6476 228.393 49.6277 228.364C49.6008 228.317 49.592 228.261 49.6026 228.205C49.6134 228.151 49.6432 228.101 49.6862 228.069C49.7155 228.069 51.821 226.654 53.8974 228.069C53.9205 228.084 53.9404 228.104 53.9559 228.128C53.9711 228.151 53.9819 228.178 53.9875 228.205C53.9927 228.231 53.9927 228.261 53.9875 228.287C53.9819 228.314 53.9714 228.34 53.9559 228.364C53.9407 228.387 53.9208 228.408 53.898 228.423C53.8749 228.437 53.8491 228.449 53.8219 228.455C53.7947 228.461 53.7667 228.461 53.7395 228.455C53.7126 228.449 53.6865 228.437 53.6634 228.423C51.821 227.185 49.9494 228.423 49.9202 228.423C49.8909 228.423 49.8324 228.452 49.8032 228.452Z" fill="#868A91"/>
<path d="M49.8032 229.69C49.769 229.69 49.735 229.684 49.7046 229.669C49.6739 229.652 49.6476 229.631 49.6277 229.601C49.6008 229.554 49.592 229.498 49.6026 229.442C49.6134 229.389 49.6432 229.339 49.6862 229.307C49.7155 229.307 51.821 227.892 53.8974 229.307C53.9442 229.339 53.9763 229.386 53.9875 229.442C53.9983 229.498 53.9872 229.554 53.9559 229.601C53.9249 229.649 53.8766 229.681 53.8219 229.693C53.767 229.702 53.7102 229.693 53.6634 229.66C51.821 228.423 49.9494 229.66 49.9202 229.66C49.8859 229.684 49.8444 229.693 49.8032 229.69Z" fill="#868A91"/>
<path d="M36.614 215.218C36.564 215.221 36.5149 215.204 36.4768 215.171C36.4388 215.138 36.4145 215.092 36.4093 215.041C36.4023 215.014 36.4017 214.985 36.4069 214.958C36.4125 214.93 36.4239 214.904 36.4409 214.881C36.4578 214.858 36.4795 214.84 36.5043 214.827C36.5292 214.814 36.5567 214.806 36.5848 214.806L38.8366 214.481C38.8646 214.475 38.8939 214.474 38.9222 214.479C38.9506 214.485 38.9775 214.496 39.0015 214.512C39.0252 214.528 39.0454 214.55 39.0609 214.574C39.0761 214.599 39.086 214.627 39.0901 214.656C39.0942 214.684 39.0922 214.714 39.0843 214.742C39.0767 214.77 39.0632 214.796 39.0448 214.818C39.0263 214.84 39.0038 214.859 38.9778 214.872C38.9521 214.885 38.924 214.892 38.895 214.894L36.614 215.218Z" fill="#868A91"/>
<path d="M36.6432 216.751C36.5932 216.753 36.5441 216.736 36.5058 216.704C36.4677 216.671 36.4438 216.624 36.4385 216.574C36.4315 216.547 36.4306 216.518 36.4362 216.49C36.4414 216.462 36.4531 216.436 36.4701 216.414C36.4868 216.391 36.5087 216.372 36.5335 216.359C36.5584 216.346 36.5859 216.339 36.614 216.338L38.8658 216.014C38.9175 216.011 38.9684 216.028 39.0085 216.061C39.0486 216.095 39.0746 216.142 39.0822 216.193C39.0895 216.245 39.0772 216.298 39.048 216.341C39.019 216.384 38.9749 216.415 38.9243 216.427L36.6432 216.751Z" fill="#868A91"/>
<path d="M36.6432 218.46C36.5932 218.463 36.5441 218.446 36.5058 218.413C36.4677 218.38 36.4438 218.334 36.4385 218.284C36.4315 218.256 36.4306 218.228 36.4362 218.2C36.4414 218.172 36.4531 218.146 36.4701 218.123C36.4868 218.101 36.5087 218.082 36.5335 218.069C36.5584 218.056 36.5859 218.049 36.614 218.048L38.8658 217.724C38.9175 217.721 38.9684 217.738 39.0085 217.771C39.0486 217.804 39.0746 217.851 39.0822 217.903C39.0895 217.955 39.0772 218.007 39.048 218.05C39.019 218.094 38.9749 218.124 38.9243 218.136L36.6432 218.46Z" fill="#868A91"/>
<g opacity="0.2">
<path opacity="0.2" d="M47.4928 120.224L50.5049 110.055C50.5108 110.026 50.5228 109.999 50.5397 109.975C50.5567 109.951 50.5783 109.93 50.6035 109.915C50.6286 109.9 50.6567 109.89 50.6857 109.886C50.7149 109.882 50.7444 109.884 50.7725 109.892C50.8009 109.9 50.8272 109.914 50.8497 109.933C50.8725 109.952 50.891 109.975 50.9044 110.002C50.9176 110.028 50.9255 110.057 50.9272 110.086C50.9287 110.116 50.9246 110.145 50.9144 110.173L47.4928 121.756V120.224Z" fill="black"/>
</g>
<g opacity="0.2">
<path opacity="0.2" d="M86.0078 120.43L82.9371 110.055C82.931 110.026 82.9193 109.999 82.9023 109.975C82.8853 109.951 82.8637 109.93 82.8386 109.915C82.8134 109.9 82.7853 109.89 82.7564 109.886C82.7271 109.882 82.6976 109.884 82.6692 109.892C82.6411 109.9 82.6148 109.914 82.592 109.933C82.5695 109.952 82.5511 109.975 82.5376 110.002C82.5245 110.028 82.5166 110.057 82.5148 110.086C82.5131 110.116 82.5175 110.145 82.5277 110.173L85.9493 121.756L86.0078 120.43Z" fill="black"/>
</g>
<g opacity="0.2">
<path opacity="0.2" d="M68.4902 162.195C68.4318 162.195 68.4025 162.165 68.344 162.136C68.3048 162.098 68.2806 162.048 68.275 161.994C68.2697 161.94 68.2838 161.886 68.3148 161.841L72.2043 157.273C72.2215 157.251 72.2429 157.234 72.2668 157.221C72.2908 157.208 72.3172 157.199 72.3443 157.197C72.3715 157.194 72.399 157.197 72.4251 157.205C72.4514 157.212 72.4757 157.226 72.4967 157.243C72.5178 157.26 72.5353 157.282 72.5482 157.306C72.561 157.33 72.5692 157.357 72.5719 157.384C72.5745 157.412 72.5719 157.439 72.564 157.466C72.5561 157.492 72.5432 157.517 72.526 157.538L68.6365 162.106C68.6365 162.165 68.578 162.195 68.4902 162.195Z" fill="black"/>
</g>
<path opacity="0.2" d="M94.7223 75.571L96.0383 73.9205L94.4298 69.3521L93.5233 75.07C93.4648 75.63 94.3713 76.0131 94.7223 75.571Z" fill="black"/>
<path opacity="0.2" d="M96.2427 90.8384C96.9153 90.3963 97.2663 89.7773 97.8511 88.7752L99.0209 86.9479V69.7351L96.2427 90.8384Z" fill="black"/>
<path d="M65.1272 53.2002L72.4675 46.716L71.3854 32.038H59.2198L58.3132 46.8338L65.1272 53.2002Z" fill="#FC9D9D"/>
<path d="M73.0231 26.8801C73.0231 26.8801 74.5438 43.6802 65.3903 43.7981C56.4416 43.916 57.1727 27.0864 57.1727 27.0864L57.2019 22.2527L68.7827 20.8969L71.5901 22.5769L73.0231 26.8801Z" fill="#FC9D9D"/>
<path d="M71.0927 22.9897C71.0927 22.9897 74.1048 21.2213 75.2746 24.6107C76.2689 27.4697 74.1341 30.4171 74.1341 30.4171L72.4672 30.1518C71.7653 30.0929 71.2974 29.7392 71.2681 29.0318L71.0927 22.9897Z" fill="#21252B"/>
<path d="M73.2865 21.1032C73.345 24.2864 70.596 24.9643 69.514 24.9938L60.4483 25.2296C60.0973 25.2396 59.7639 25.3864 59.5183 25.6396C59.2729 25.8925 59.1343 26.2317 59.1323 26.5854V29.4738C59.1323 29.6672 59.0597 29.8532 58.9299 29.9952C58.7998 30.1373 58.6214 30.2245 58.4304 30.2402L57.8748 30.2696L57.2021 31.0065C53.7221 29.9454 52.8448 19.7474 59.454 18.0969C59.8093 18.0082 60.143 17.8476 60.4345 17.6244C60.7261 17.4016 60.9697 17.121 61.1501 16.8001C62.2029 14.8843 66.1216 14.5895 67.9348 16.918C68.1079 17.1529 68.3325 17.3444 68.5913 17.4774C68.8501 17.6103 69.1359 17.681 69.4262 17.6843C71.8243 17.7727 73.2572 19.3643 73.2865 21.1032Z" fill="#21252B"/>
<path d="M57.8163 31.2718C57.8034 31.0036 57.7198 30.744 57.5744 30.5191C57.4291 30.2942 57.2267 30.1126 56.9887 29.9927C56.7503 29.8724 56.4848 29.8185 56.2193 29.8362C55.9534 29.8539 55.6972 29.9423 55.4767 30.0929L55.4475 30.1224C53.8098 31.3897 54.5702 35.6929 57.9917 35.5161L57.8163 31.2718Z" fill="#FC9D9D"/>
<path d="M74.9529 30.0337L74.9236 30.0043C74.7031 29.8534 74.4461 29.7655 74.1797 29.7496C73.9135 29.734 73.648 29.7909 73.4114 29.9147C73.1745 30.0384 72.9754 30.2244 72.835 30.4531C72.6946 30.6816 72.618 30.9439 72.6133 31.2127L72.5548 35.2801C76.0057 35.3685 76.5905 31.2422 74.9529 30.0337Z" fill="#FC9D9D"/>
<path d="M58.2264 31.8318C58.2246 31.884 58.2123 31.9355 58.1907 31.983C58.169 32.0304 58.1386 32.0735 58.1005 32.1088C58.0622 32.1445 58.0177 32.1722 57.9691 32.1905C57.9202 32.2085 57.8684 32.217 57.8166 32.2149C57.7174 32.2214 57.6191 32.1923 57.5386 32.133C57.4584 32.0738 57.4013 31.988 57.3776 31.8907L57.1435 29.1497L58.2556 29.2676L58.2264 31.8318Z" fill="#21252B"/>
<path d="M73.3164 31.5959C73.3143 31.6481 73.3024 31.6997 73.2807 31.7471C73.259 31.7946 73.2283 31.8373 73.1903 31.873C73.1522 31.9087 73.1077 31.9364 73.0589 31.9546C73.0103 31.9726 72.9585 31.9812 72.9067 31.9791C72.8071 31.9856 72.7088 31.9564 72.6286 31.8972C72.5484 31.8379 72.4913 31.7522 72.4676 31.6549L72.2335 28.9138L73.3457 29.0317L73.3164 31.5959Z" fill="#21252B"/>
<path d="M69.5138 25.4064C69.3573 25.4052 69.2012 25.3952 69.0459 25.3769C68.9953 25.3731 68.9485 25.3492 68.9157 25.3103C68.8827 25.2717 68.8663 25.2213 68.8704 25.1706C68.8742 25.1199 68.8979 25.0728 68.9362 25.0394C68.9748 25.0061 69.0245 24.9899 69.0751 24.9938C69.1043 24.9938 70.8882 25.2001 71.7363 24.0211C71.7515 24.0017 71.7706 23.9858 71.7922 23.9737C71.8135 23.9619 71.8372 23.9542 71.8618 23.9516C71.8861 23.9486 71.9109 23.951 71.9346 23.9578C71.9583 23.9645 71.9802 23.976 71.9995 23.9916C72.0185 24.007 72.0346 24.0261 72.0463 24.0479C72.0583 24.0698 72.0659 24.0936 72.0686 24.1181C72.0712 24.1429 72.0691 24.1676 72.0624 24.1915C72.0554 24.2154 72.044 24.2375 72.0288 24.2569C71.3854 25.2296 70.1864 25.4064 69.5138 25.4064Z" fill="#FC9D9D"/>
<path d="M62.2904 33.8948C62.4466 33.8948 62.5992 33.8482 62.7291 33.7607C62.8589 33.6731 62.9604 33.549 63.0201 33.4034C63.0797 33.2581 63.0955 33.0981 63.0651 32.9436C63.0344 32.7892 62.9592 32.6474 62.849 32.5363C62.7384 32.4249 62.5978 32.3492 62.4445 32.3185C62.2913 32.2879 62.1325 32.3035 61.9883 32.3639C61.8441 32.424 61.7207 32.526 61.6339 32.6569C61.5473 32.7877 61.5008 32.9416 61.5008 33.099C61.5008 33.31 61.5842 33.5125 61.7322 33.6616C61.8804 33.8111 62.081 33.8948 62.2904 33.8948Z" fill="#21252B"/>
<path d="M61.9101 33.1874C61.9449 33.1874 61.9789 33.1771 62.0079 33.1577C62.0366 33.1382 62.0591 33.1105 62.0726 33.0784C62.0857 33.046 62.0892 33.0103 62.0825 32.9761C62.0758 32.9419 62.0588 32.9104 62.0342 32.8856C62.0099 32.8609 61.9786 32.8441 61.9444 32.8373C61.9104 32.8302 61.875 32.8338 61.8431 32.8473C61.8109 32.8606 61.7834 32.8833 61.7641 32.9125C61.7448 32.9413 61.7345 32.9755 61.7345 33.0106C61.7345 33.0575 61.7529 33.1026 61.786 33.1356C61.8188 33.1689 61.8636 33.1874 61.9101 33.1874Z" fill="white"/>
<path d="M68.4028 33.8065C68.559 33.8065 68.7116 33.7599 68.8415 33.6724C68.9713 33.5849 69.0725 33.4608 69.1322 33.3152C69.1921 33.1699 69.2076 33.0098 69.1772 32.8554C69.1468 32.701 69.0716 32.5592 68.9611 32.4481C68.8505 32.3367 68.7099 32.2609 68.5569 32.2303C68.4037 32.1996 68.2449 32.2152 68.1007 32.2754C67.9563 32.3358 67.8331 32.4378 67.7463 32.5686C67.6594 32.6995 67.6132 32.8533 67.6132 33.0107C67.6132 33.2218 67.6963 33.4242 67.8445 33.5734C67.9925 33.7225 68.1934 33.8065 68.4028 33.8065Z" fill="#21252B"/>
<path d="M68.0225 33.0992C68.057 33.0992 68.0909 33.0889 68.1199 33.0694C68.1489 33.05 68.1714 33.0223 68.1846 32.9901C68.1978 32.9577 68.2013 32.9221 68.1946 32.8879C68.1878 32.8537 68.1711 32.8221 68.1466 32.7974C68.122 32.7726 68.0907 32.7558 68.0567 32.749C68.0225 32.742 67.9873 32.7455 67.9552 32.7591C67.923 32.7723 67.8957 32.795 67.8764 32.8242C67.8571 32.8531 67.8469 32.8873 67.8469 32.9224C67.8469 32.9456 67.8512 32.9686 67.86 32.9901C67.8688 33.0114 67.882 33.0311 67.8981 33.0473C67.9145 33.0638 67.9338 33.0768 67.9552 33.0856C67.9765 33.0945 67.9993 33.0992 68.0225 33.0992Z" fill="white"/>
<path opacity="0.2" d="M65.507 37.078H66.1504C66.2124 37.078 66.2721 37.0533 66.3159 37.0091C66.3598 36.9649 66.3844 36.9047 66.3844 36.8422C66.3844 36.7798 66.3598 36.7196 66.3159 36.6754C66.2721 36.6312 66.2124 36.6065 66.1504 36.6065H65.507C65.4453 36.6073 65.3842 36.5955 65.3272 36.5723C65.2699 36.5487 65.2181 36.5139 65.1745 36.47C65.131 36.4261 65.0964 36.3739 65.0733 36.3161C65.05 36.2587 65.0385 36.1971 65.0391 36.1349C65.0368 36.0064 65.0845 35.882 65.1719 35.7883C65.2593 35.6945 65.3795 35.6391 65.507 35.6338C65.569 35.6338 65.6287 35.6091 65.6726 35.5648C65.7164 35.5206 65.741 35.4605 65.741 35.398C65.741 35.3355 65.7164 35.2754 65.6726 35.2312C65.6287 35.187 65.569 35.1622 65.507 35.1622C65.2593 35.1637 65.0222 35.2636 64.847 35.4402C64.6718 35.6167 64.5727 35.8557 64.5712 36.1054C64.5645 36.2324 64.5835 36.3595 64.628 36.4788C64.6721 36.5979 64.7403 36.7067 64.828 36.798C64.916 36.8894 65.0216 36.9613 65.1386 37.0096C65.2555 37.0577 65.381 37.081 65.507 37.078Z" fill="black"/>
<path d="M70.7419 31.0065H59.8923C59.742 31.0041 59.5926 31.0321 59.4531 31.089C59.3139 31.1462 59.187 31.2308 59.0808 31.3378C58.9743 31.4451 58.8904 31.5727 58.834 31.7133C58.7775 31.8539 58.7495 32.0045 58.7518 32.156V33.0402C58.7518 33.8687 59.0785 34.6636 59.6598 35.2492C60.2412 35.8352 61.0296 36.1644 61.8517 36.1644C62.674 36.1644 63.4625 35.8352 64.0438 35.2492C64.6252 34.6636 64.9516 33.8687 64.9516 33.0402V32.156C64.9504 31.901 64.8682 31.6534 64.7176 31.4486H65.9166C65.7707 31.6446 65.6891 31.8816 65.6827 32.1265V33.0107C65.6827 33.8392 66.0093 34.6341 66.5907 35.2198C67.1721 35.8057 67.9605 36.1349 68.7826 36.1349C69.6049 36.1349 70.3933 35.8057 70.9747 35.2198C71.5561 34.6341 71.8825 33.8392 71.8825 33.0107V32.1265C71.8757 31.8264 71.7523 31.5411 71.5391 31.3319C71.326 31.1223 71.0396 31.0056 70.7419 31.0065ZM64.4837 32.156V33.0402C64.4799 33.7476 64.1974 34.4246 63.6982 34.9221C63.1993 35.4196 62.5246 35.6967 61.8224 35.6928C61.1206 35.689 60.4491 35.4043 59.9555 34.9012C59.4618 34.398 59.1867 33.7181 59.1905 33.0107V32.1265C59.1925 32.0354 59.2121 31.9458 59.2484 31.8627C59.2846 31.7793 59.337 31.7038 59.4022 31.6411C59.4674 31.578 59.5443 31.5288 59.6283 31.4958C59.7125 31.4627 59.8022 31.4465 59.8923 31.4486H63.811C63.9023 31.448 63.9924 31.4663 64.076 31.5019C64.1599 31.5379 64.2354 31.5904 64.2983 31.6567C64.3614 31.7227 64.4103 31.8011 64.4421 31.8872C64.474 31.9729 64.4881 32.0643 64.4837 32.156ZM71.4146 33.0402C71.4128 33.3906 71.3423 33.7369 71.2075 34.06C71.073 34.3827 70.8762 34.6757 70.6291 34.9221C70.1302 35.4196 69.4555 35.6967 68.7533 35.6928C68.0515 35.689 67.38 35.4043 66.8864 34.9012C66.3927 34.398 66.1176 33.7181 66.1214 33.0107V32.1265C66.1234 32.0354 66.143 31.9458 66.1793 31.8627C66.2158 31.7793 66.2679 31.7038 66.3331 31.6411C66.3983 31.578 66.4752 31.5288 66.5591 31.4958C66.6434 31.4627 66.7331 31.4465 66.8232 31.4486H70.7419C70.8323 31.4507 70.9212 31.4704 71.004 31.507C71.0867 31.5435 71.1613 31.5963 71.2239 31.662C71.2862 31.7274 71.3353 31.8049 71.3681 31.8898C71.4008 31.9747 71.4166 32.0649 71.4146 32.156V33.0402Z" fill="#21252B"/>
<path d="M63.4895 38.2275L67.379 38.1686C67.4032 38.1692 67.4272 38.1757 67.4486 38.1872C67.4702 38.1986 67.4886 38.2152 67.503 38.2352C67.517 38.2552 67.5263 38.2782 67.5301 38.3024C67.5342 38.3266 67.5325 38.3513 67.5252 38.3749C67.3801 38.8085 67.1058 39.1866 66.7397 39.4575C66.3735 39.7283 65.9337 39.8789 65.4795 39.8887C65.0257 39.8981 64.5797 39.7667 64.2024 39.5114C63.8255 39.2565 63.5357 38.8904 63.3725 38.4633V38.4338C63.3617 38.4129 63.3564 38.3893 63.3567 38.3658C63.3573 38.3422 63.3637 38.3192 63.3751 38.2986C63.3868 38.2779 63.4035 38.2608 63.4234 38.2485C63.4433 38.2361 63.4661 38.2287 63.4895 38.2275Z" fill="white"/>
<path opacity="0.2" d="M56.8217 33.4233C56.7638 33.426 56.7071 33.4059 56.6635 33.3673C56.6199 33.329 56.5927 33.2751 56.5878 33.217L56.5585 32.7159C56.5293 32.1854 56.4123 31.8317 56.1783 31.6254C56.0731 31.532 55.9382 31.4798 55.7982 31.4781C55.7403 31.4807 55.6835 31.4607 55.64 31.422C55.5964 31.3837 55.5692 31.3298 55.5642 31.2717C55.5674 31.2119 55.5888 31.1541 55.6253 31.107C55.6619 31.0595 55.7119 31.0244 55.7689 31.0065C56.0233 30.9962 56.2731 31.0799 56.4708 31.2423C56.7925 31.5075 56.9679 32.0086 56.9972 32.657L57.0264 33.1581C57.0557 33.3054 56.9679 33.3938 56.8217 33.4233Z" fill="black"/>
<path opacity="0.2" d="M73.6954 33.1875C73.7533 33.1898 73.8097 33.1701 73.8533 33.1315C73.8969 33.0932 73.924 33.0392 73.9293 32.9812L73.9586 32.4801C73.9586 31.9496 74.0755 31.5664 74.2802 31.3896C74.3238 31.3398 74.3779 31.3006 74.4387 31.2749C74.4996 31.2496 74.5654 31.2381 74.6312 31.2422C74.6601 31.2443 74.6891 31.2404 74.7163 31.231C74.7438 31.2216 74.7689 31.2071 74.7906 31.188C74.8122 31.1688 74.83 31.1455 74.8429 31.1193C74.8558 31.0934 74.8634 31.0648 74.8651 31.0359C74.8672 31.007 74.8634 30.9778 74.854 30.9501C74.8449 30.9227 74.8303 30.8971 74.8113 30.8752C74.7923 30.8534 74.7692 30.8355 74.7432 30.8225C74.7174 30.8095 74.6894 30.8022 74.6604 30.8001C74.401 30.7915 74.1486 30.887 73.9586 31.0654C73.6369 31.3601 73.4614 31.8317 73.4614 32.5096L73.4322 33.0106C73.4608 33.0575 73.4991 33.0976 73.5445 33.1282C73.5901 33.1586 73.6415 33.1789 73.6954 33.1875Z" fill="black"/>
<path opacity="0.15" d="M71.8533 38.3748L71.8826 38.2864C70.8882 41.1453 69.0166 43.4443 66.0337 43.7685H66.0629C65.8495 43.793 65.6345 43.803 65.4196 43.798C63.0215 43.8275 61.1207 42.5896 59.7754 40.1432C59.7632 40.1161 59.7456 40.0917 59.7237 40.0716C59.7014 40.0516 59.6757 40.0362 59.6476 40.0265C59.6196 40.0171 59.5897 40.0133 59.5602 40.0159C59.5307 40.0183 59.5017 40.0271 59.4757 40.0413C59.4497 40.0554 59.4265 40.0749 59.4084 40.0981C59.39 40.1217 59.3765 40.1488 59.3689 40.1777C59.3613 40.2066 59.3599 40.237 59.3646 40.2664C59.3689 40.2959 59.3795 40.3242 59.3953 40.3495C60.8282 42.9433 62.8461 44.2401 65.4196 44.2106C65.9521 44.2039 66.482 44.1346 66.9988 44.0043C68.578 44.3285 70.3911 44.0338 72.175 42.8843L71.8533 38.3748Z" fill="black"/>
<path opacity="0.8" d="M24.6528 211.74L37.4033 235.467C37.534 235.72 37.753 235.912 38.018 236.012C38.2829 236.109 38.5748 236.103 38.8362 235.997C38.9509 235.965 39.0594 235.918 39.1579 235.85L25.1499 209.323C24.7978 209.603 24.5548 209.998 24.4638 210.441C24.3726 210.883 24.4396 211.343 24.6528 211.74Z" fill="black"/>
<path opacity="0.8" d="M45.9721 236.086H56.851C57.0484 236.086 57.2432 236.039 57.421 235.953C57.5985 235.865 57.7549 235.741 57.878 235.585C58.0015 235.429 58.0889 235.249 58.1336 235.054C58.1787 234.86 58.1801 234.659 58.1377 234.465H44.6854C44.643 234.659 44.6444 234.86 44.6895 235.054C44.7342 235.249 44.8217 235.429 44.9451 235.585C45.0682 235.741 45.2246 235.865 45.4022 235.953C45.58 236.039 45.7747 236.086 45.9721 236.086Z" fill="black"/>
<path d="M74.1051 81.9668L73.1985 81.6721L73.2278 81.5247L74.0174 81.79L74.573 80.8468L74.7192 80.9352L74.1051 81.9668Z" fill="#242830"/>
<path d="M292.472 137.643H276.124V172.422H292.472V137.643Z" fill="#DADDDF"/>
<path d="M286.038 137.643H293.027V141.003H292.472V172.422H287.091V141.003H286.038V137.643Z" fill="#B2B6BB"/>
<path d="M285.863 137.643H276.124V141.003H285.863V137.643Z" fill="#DADDDF"/>
<path d="M288.992 141.003H276.124V141.445H288.992V141.003Z" fill="#B2B6BB"/>
<path d="M298.847 111.588H231.001V114.418H296.011V172.422H231.001V175.252H296.011V236.086H298.847V111.588Z" fill="white"/>
<path d="M191.17 15.2969C191.175 11.532 192.556 7.90077 195.048 5.09574C197.539 2.29071 200.969 0.508425 204.681 0.0884226V0H206.348C210.373 0 214.234 1.61163 217.08 4.48033C219.927 7.34902 221.525 11.2399 221.525 15.2969C221.525 19.354 219.927 23.2449 217.08 26.1136C214.234 28.9823 210.373 30.5939 206.348 30.5939H204.681V30.5055C200.969 30.0855 197.539 28.3032 195.048 25.4982C192.556 22.6931 191.175 19.0619 191.17 15.2969Z" fill="#B2B6BB"/>
<path d="M204.681 30.5939C207.682 30.5939 210.617 29.6967 213.113 28.0158C215.609 26.3349 217.554 23.9461 218.703 21.1508C219.852 18.3558 220.152 15.2799 219.567 12.3127C218.981 9.34529 217.536 6.61955 215.413 4.48034C213.29 2.34112 210.586 0.884229 207.642 0.293867C204.697 -0.296201 201.646 0.00649482 198.872 1.16452C196.099 2.32226 193.728 4.28286 192.061 6.79846C190.393 9.31406 189.503 12.2715 189.503 15.297C189.503 19.354 191.102 23.2449 193.948 26.1136C196.795 28.9823 200.655 30.5939 204.681 30.5939Z" fill="#868A91"/>
<path d="M204.681 28.9138C207.353 28.9138 209.965 28.1153 212.187 26.6189C214.409 25.1226 216.141 22.996 217.163 20.5078C218.186 18.0197 218.454 15.2818 217.932 12.6404C217.411 9.99892 216.124 7.57263 214.234 5.66833C212.345 3.76402 209.938 2.46687 207.317 1.94165C204.696 1.41613 201.979 1.68582 199.511 2.71652C197.042 3.74722 194.931 5.49237 193.447 7.73179C191.962 9.97092 191.17 12.6038 191.17 15.2969C191.17 17.0853 191.519 18.8561 192.198 20.5084C192.877 22.1604 193.872 23.6618 195.127 24.9263C196.381 26.191 197.871 27.194 199.51 27.8781C201.149 28.5622 202.906 28.9141 204.681 28.9138Z" fill="white"/>
<path d="M204.681 28.9138C207.353 28.9138 209.965 28.1153 212.187 26.6189C214.409 25.1226 216.141 22.996 217.163 20.5078C218.186 18.0197 218.454 15.2818 217.932 12.6404C217.411 9.99892 216.124 7.57263 214.234 5.66833C212.345 3.76402 209.938 2.46687 207.317 1.94165C204.696 1.41613 201.979 1.68582 199.511 2.71652C197.042 3.74722 194.931 5.49237 193.447 7.73179C191.962 9.97092 191.17 12.6038 191.17 15.2969C191.17 17.0853 191.519 18.8561 192.198 20.5084C192.877 22.1604 193.872 23.6618 195.127 24.9263C196.381 26.191 197.871 27.194 199.51 27.8781C201.149 28.5622 202.906 28.9141 204.681 28.9138Z" fill="#868A91"/>
<path opacity="0.9" d="M204.681 28.9138C207.353 28.9138 209.965 28.1153 212.187 26.6189C214.409 25.1226 216.141 22.996 217.163 20.5078C218.186 18.0197 218.454 15.2818 217.932 12.6404C217.411 9.99892 216.124 7.57263 214.234 5.66833C212.345 3.76402 209.938 2.46687 207.317 1.94165C204.696 1.41613 201.979 1.68582 199.511 2.71652C197.042 3.74722 194.931 5.49237 193.447 7.73179C191.962 9.97092 191.17 12.6038 191.17 15.2969C191.17 17.0853 191.519 18.8561 192.198 20.5084C192.877 22.1604 193.872 23.6618 195.127 24.9263C196.381 26.191 197.871 27.194 199.51 27.8781C201.149 28.5622 202.906 28.9141 204.681 28.9138Z" fill="white"/>
<path d="M204.681 1.67984C204.925 1.67483 205.169 1.68485 205.412 1.70932C201.965 1.9009 198.722 3.41585 196.349 5.94294C193.975 8.47004 192.653 11.8174 192.653 15.2968C192.653 18.7762 193.975 22.1235 196.349 24.6506C198.722 27.1777 201.965 28.6927 205.412 28.8842C205.178 28.8842 204.944 28.9137 204.681 28.9137C201.098 28.9137 197.661 27.4792 195.127 24.9253C192.593 22.3717 191.17 18.9082 191.17 15.2968C191.17 11.6853 192.593 8.22187 195.127 5.66825C197.661 3.11463 201.098 1.67984 204.681 1.67984Z" fill="#B2B6BB"/>
<path d="M204.534 16.358L209.009 7.36851C209.09 7.20051 209.102 7.00658 209.042 6.82973C208.982 6.65289 208.854 6.50729 208.687 6.42535C208.52 6.34312 208.328 6.33133 208.153 6.39205C207.977 6.45306 207.833 6.58156 207.751 6.74956L203.92 14.4717L198.773 11.937C198.607 11.8547 198.414 11.8429 198.239 11.9037C198.063 11.9647 197.919 12.0932 197.838 12.2612C197.756 12.4292 197.744 12.6231 197.804 12.8C197.865 12.9768 197.993 13.1224 198.159 13.2043L204.534 16.358Z" fill="#4D61FC"/>
<path opacity="0.5" d="M193.1 22.3117C191.868 20.2455 191.202 17.8867 191.171 15.4764C191.139 13.066 191.743 10.6904 192.921 8.59215C194.099 6.4939 195.808 4.74846 197.874 3.53413C199.94 2.31981 202.289 1.67993 204.681 1.67993C205.061 1.67993 205.412 1.7094 205.792 1.73888L193.1 22.3117Z" fill="white"/>
<path opacity="0.5" d="M207.809 2.06311C208.46 2.21136 209.097 2.41857 209.71 2.68206L195.732 25.5243C195.181 25.038 194.672 24.5057 194.211 23.9327L207.809 2.06311Z" fill="white"/>
<path d="M276.534 236.292H106.04C105.494 236.292 104.954 236.183 104.45 235.974C103.946 235.764 103.488 235.455 103.102 235.066C102.717 234.677 102.411 234.217 102.202 233.71C101.994 233.2 101.887 232.658 101.887 232.107V60.2739C101.887 59.7242 101.994 59.1798 102.202 58.6717C102.411 58.1639 102.717 57.7023 103.102 57.3136C103.488 56.9248 103.946 56.6165 104.45 56.4064C104.954 56.1962 105.494 56.0883 106.04 56.0886H276.534C277.081 56.0883 277.619 56.1962 278.125 56.4064C278.628 56.6165 279.087 56.9248 279.47 57.3136C279.856 57.7023 280.163 58.1639 280.371 58.6717C280.578 59.1798 280.686 59.7242 280.686 60.2739V232.107C280.689 232.658 280.584 233.203 280.376 233.71C280.169 234.22 279.862 234.683 279.476 235.072C279.09 235.461 278.631 235.77 278.128 235.98C277.622 236.189 277.081 236.295 276.534 236.292Z" fill="#4D61FC"/>
<path opacity="0.5" d="M276.534 236.292H106.04C105.494 236.292 104.954 236.183 104.45 235.974C103.946 235.764 103.488 235.455 103.102 235.066C102.717 234.677 102.411 234.217 102.202 233.71C101.994 233.2 101.887 232.658 101.887 232.107V60.2739C101.887 59.7242 101.994 59.1798 102.202 58.6717C102.411 58.1639 102.717 57.7023 103.102 57.3136C103.488 56.9248 103.946 56.6165 104.45 56.4064C104.954 56.1962 105.494 56.0883 106.04 56.0886H276.534C277.081 56.0883 277.619 56.1962 278.125 56.4064C278.628 56.6165 279.087 56.9248 279.47 57.3136C279.856 57.7023 280.163 58.1639 280.371 58.6717C280.578 59.1798 280.686 59.7242 280.686 60.2739V232.107C280.689 232.658 280.584 233.203 280.376 233.71C280.169 234.22 279.862 234.683 279.476 235.072C279.09 235.461 278.631 235.77 278.128 235.98C277.622 236.189 277.081 236.295 276.534 236.292Z" fill="white"/>
<path d="M273.668 236.292H103.174C102.628 236.292 102.088 236.183 101.584 235.974C101.08 235.764 100.622 235.455 100.236 235.066C99.8506 234.677 99.545 234.217 99.3362 233.71C99.1277 233.2 99.0207 232.658 99.021 232.107V60.2739C99.0207 59.7242 99.1277 59.1798 99.3362 58.6717C99.545 58.1639 99.8506 57.7023 100.236 57.3136C100.622 56.9248 101.08 56.6165 101.584 56.4064C102.088 56.1962 102.628 56.0883 103.174 56.0886H273.668C274.212 56.0883 274.753 56.1962 275.256 56.4064C275.762 56.6165 276.218 56.9248 276.604 57.3136C276.99 57.7023 277.297 58.1639 277.505 58.6717C277.712 59.1798 277.821 59.7242 277.821 60.2739V232.107C277.824 232.658 277.718 233.203 277.511 233.71C277.303 234.22 276.996 234.683 276.61 235.072C276.224 235.461 275.765 235.77 275.259 235.98C274.756 236.189 274.215 236.295 273.668 236.292Z" fill="#4D61FC"/>
<path opacity="0.7" d="M273.668 236.292H103.174C102.628 236.292 102.088 236.183 101.584 235.974C101.08 235.764 100.622 235.455 100.236 235.066C99.8506 234.677 99.545 234.217 99.3362 233.71C99.1277 233.2 99.0207 232.658 99.021 232.107V60.2739C99.0207 59.7242 99.1277 59.1798 99.3362 58.6717C99.545 58.1639 99.8506 57.7023 100.236 57.3136C100.622 56.9248 101.08 56.6165 101.584 56.4064C102.088 56.1962 102.628 56.0883 103.174 56.0886H273.668C274.212 56.0883 274.753 56.1962 275.256 56.4064C275.762 56.6165 276.218 56.9248 276.604 57.3136C276.99 57.7023 277.297 58.1639 277.505 58.6717C277.712 59.1798 277.821 59.7242 277.821 60.2739V232.107C277.824 232.658 277.718 233.203 277.511 233.71C277.303 234.22 276.996 234.683 276.61 235.072C276.224 235.461 275.765 235.77 275.259 235.98C274.756 236.189 274.215 236.295 273.668 236.292Z" fill="white"/>
<path d="M108.73 54.6446C108.73 55.0198 108.878 55.3797 109.141 55.645C109.405 55.9102 109.762 56.0594 110.134 56.0594H112.064L112.532 60.7752C112.552 60.9506 112.634 61.1127 112.763 61.2317C112.892 61.3508 113.059 61.4189 113.234 61.4236C113.415 61.423 113.589 61.3523 113.719 61.2261C113.85 61.1 113.928 60.9279 113.936 60.7457L114.228 56.2362C114.233 56.2011 114.25 56.1693 114.278 56.1475C114.305 56.1254 114.34 56.1151 114.374 56.1183C114.407 56.1239 114.437 56.1375 114.463 56.1581C114.488 56.1787 114.508 56.2056 114.521 56.2362L114.813 60.6868C114.823 60.8842 114.907 61.0702 115.048 61.2073C115.19 61.3443 115.377 61.4216 115.573 61.4236C115.674 61.4245 115.773 61.4051 115.865 61.3667C115.958 61.3287 116.042 61.2721 116.113 61.2008C116.184 61.1295 116.24 61.0449 116.278 60.9515C116.316 60.858 116.335 60.7581 116.334 60.6573L116.48 56.1478L116.334 60.5394C116.329 60.7599 116.409 60.9739 116.556 61.1368C116.704 61.2998 116.908 61.3992 117.126 61.4145C117.344 61.4295 117.56 61.3594 117.729 61.2185C117.897 61.0773 118.005 60.8766 118.03 60.6573L118.439 56.1773L118.147 59.5078C118.14 59.6068 118.152 59.7065 118.183 59.8008C118.215 59.8948 118.265 59.9818 118.33 60.056C118.396 60.1303 118.475 60.1904 118.565 60.2329C118.654 60.2756 118.75 60.2995 118.849 60.3036C119.017 60.3072 119.18 60.2494 119.309 60.1412C119.438 60.0328 119.524 59.8813 119.551 59.7141L120.106 56.8846C120.179 56.5251 120.155 56.1522 120.036 55.8053C119.918 55.4581 119.71 55.1489 119.434 54.9099C118.338 53.9411 116.974 53.3339 115.526 53.1706C114.077 53.0074 112.614 53.2953 111.333 53.9962L108.847 54.4973C108.789 54.4678 108.73 54.5562 108.73 54.6446Z" fill="#FC9D9D"/>
<g opacity="0.15">
<path opacity="0.15" d="M116.299 56.1536L116.161 60.3064L116.571 60.3212L116.709 56.1683L116.299 56.1536Z" fill="black"/>
</g>
<g opacity="0.15">
<path opacity="0.15" d="M118.203 56.416L117.925 59.7643L118.331 59.7996L118.61 56.4484L118.203 56.416Z" fill="black"/>
</g>
<path opacity="0.2" d="M112.064 56.0888H110.134L111.303 54.9688C111.358 54.9157 111.427 54.8795 111.501 54.8647C111.576 54.8497 111.653 54.8565 111.724 54.8845C111.795 54.9125 111.856 54.9602 111.901 55.0221C111.945 55.084 111.972 55.1577 111.976 55.234L112.064 56.0888Z" fill="black"/>
<path d="M181.432 137.613H123.908C123.62 137.614 123.335 137.557 123.068 137.446C122.802 137.335 122.56 137.172 122.357 136.967C122.153 136.762 121.991 136.518 121.881 136.249C121.771 135.981 121.714 135.693 121.715 135.403V77.4277C121.714 77.1374 121.771 76.8497 121.881 76.5812C121.991 76.313 122.153 76.0693 122.357 75.8638C122.56 75.6584 122.802 75.4957 123.068 75.3846C123.335 75.2738 123.62 75.2169 123.908 75.2172H181.432C181.72 75.2169 182.005 75.2738 182.271 75.3846C182.538 75.4957 182.78 75.6584 182.984 75.8638C183.187 76.0693 183.349 76.313 183.459 76.5812C183.569 76.8497 183.625 77.1374 183.625 77.4277V135.403C183.628 135.694 183.573 135.983 183.464 136.252C183.354 136.521 183.193 136.766 182.989 136.972C182.785 137.178 182.542 137.341 182.274 137.451C182.007 137.561 181.72 137.616 181.432 137.613Z" fill="#4D61FC"/>
<path opacity="0.5" d="M181.432 137.613H123.908C123.62 137.614 123.335 137.557 123.068 137.446C122.802 137.335 122.56 137.172 122.357 136.967C122.153 136.762 121.991 136.518 121.881 136.249C121.771 135.981 121.714 135.693 121.715 135.403V77.4277C121.714 77.1374 121.771 76.8497 121.881 76.5812C121.991 76.313 122.153 76.0693 122.357 75.8638C122.56 75.6584 122.802 75.4957 123.068 75.3846C123.335 75.2738 123.62 75.2169 123.908 75.2172H181.432C181.72 75.2169 182.005 75.2738 182.271 75.3846C182.538 75.4957 182.78 75.6584 182.984 75.8638C183.187 76.0693 183.349 76.313 183.459 76.5812C183.569 76.8497 183.625 77.1374 183.625 77.4277V135.403C183.628 135.694 183.573 135.983 183.464 136.252C183.354 136.521 183.193 136.766 182.989 136.972C182.785 137.178 182.542 137.341 182.274 137.451C182.007 137.561 181.72 137.616 181.432 137.613Z" fill="white"/>
<path d="M178.566 137.613H121.042C120.754 137.614 120.469 137.557 120.202 137.446C119.936 137.335 119.694 137.172 119.49 136.967C119.287 136.762 119.125 136.518 119.015 136.249C118.905 135.981 118.848 135.693 118.849 135.403V77.4277C118.848 77.1374 118.905 76.8497 119.015 76.5812C119.125 76.313 119.287 76.0693 119.49 75.8638C119.694 75.6584 119.936 75.4957 120.202 75.3846C120.469 75.2738 120.754 75.2169 121.042 75.2172H178.566C178.854 75.2169 179.139 75.2738 179.405 75.3846C179.672 75.4957 179.914 75.6584 180.117 75.8638C180.321 76.0693 180.482 76.313 180.593 76.5812C180.703 76.8497 180.759 77.1374 180.759 77.4277V135.403C180.764 135.695 180.711 135.984 180.602 136.255C180.494 136.525 180.333 136.771 180.128 136.978C179.923 137.184 179.679 137.346 179.411 137.456C179.143 137.565 178.855 137.619 178.566 137.613Z" fill="white"/>
<path d="M163.358 117.896H136.278C135.82 117.896 135.382 117.713 135.058 117.386C134.735 117.06 134.553 116.618 134.553 116.157C134.553 115.695 134.735 115.253 135.058 114.927C135.382 114.601 135.82 114.418 136.278 114.418H163.358C163.816 114.419 164.254 114.602 164.577 114.928C164.901 115.254 165.083 115.696 165.084 116.157C165.086 116.386 165.042 116.613 164.956 116.825C164.87 117.036 164.743 117.229 164.583 117.391C164.422 117.553 164.231 117.68 164.021 117.767C163.811 117.854 163.585 117.898 163.358 117.896Z" fill="#61656D"/>
<path d="M170.406 124.704H129.231C128.99 124.704 128.76 124.608 128.59 124.436C128.42 124.265 128.324 124.033 128.324 123.79C128.324 123.548 128.42 123.315 128.59 123.144C128.76 122.973 128.99 122.877 129.231 122.877H170.406C170.647 122.878 170.876 122.975 171.046 123.146C171.216 123.317 171.312 123.549 171.313 123.79C171.315 123.911 171.293 124.03 171.248 124.142C171.203 124.254 171.137 124.356 171.052 124.441C170.967 124.526 170.867 124.593 170.756 124.639C170.645 124.684 170.526 124.706 170.406 124.704Z" fill="#B2B6BB"/>
<path d="M149.818 106.43C152.172 106.43 154.474 105.727 156.431 104.409C158.388 103.09 159.914 101.217 160.815 99.0248C161.716 96.8329 161.951 94.421 161.492 92.0941C161.033 89.7671 159.899 87.6296 158.234 85.952C156.57 84.2743 154.449 83.1319 152.14 82.6689C149.831 82.2062 147.438 82.4437 145.263 83.3515C143.088 84.2596 141.23 85.797 139.922 87.7696C138.614 89.7423 137.916 92.0616 137.916 94.4343C137.916 97.6157 139.17 100.667 141.402 102.917C143.634 105.166 146.662 106.43 149.818 106.43Z" fill="#00B787"/>
<path opacity="0.4" d="M149.818 106.43C152.172 106.43 154.474 105.727 156.431 104.409C158.388 103.09 159.914 101.217 160.815 99.0248C161.716 96.8329 161.951 94.421 161.492 92.0941C161.033 89.7671 159.899 87.6296 158.234 85.952C156.57 84.2743 154.449 83.1319 152.14 82.6689C149.831 82.2062 147.438 82.4437 145.263 83.3515C143.088 84.2596 141.23 85.797 139.922 87.7696C138.614 89.7423 137.916 92.0616 137.916 94.4343C137.916 97.6157 139.17 100.667 141.402 102.917C143.634 105.166 146.662 106.43 149.818 106.43Z" fill="#00B787"/>
<path d="M147.596 99.4449L143.59 95.407C143.491 95.2982 143.436 95.1564 143.436 95.0091C143.436 94.8617 143.491 94.7199 143.59 94.6112L144.642 93.5501C144.75 93.4508 144.891 93.3957 145.037 93.3957C145.183 93.3957 145.324 93.4508 145.432 93.5501L148.006 96.1438L154.205 89.8659C154.313 89.7665 154.454 89.7114 154.6 89.7114C154.746 89.7114 154.887 89.7665 154.995 89.8659L156.048 90.9269C156.146 91.0357 156.201 91.1775 156.201 91.3248C156.201 91.4722 156.146 91.614 156.048 91.7227L148.386 99.4449C148.336 99.5006 148.275 99.5451 148.207 99.5754C148.139 99.6058 148.065 99.6214 147.991 99.6214C147.916 99.6214 147.843 99.6058 147.775 99.5754C147.707 99.5451 147.646 99.5006 147.596 99.4449Z" fill="white"/>
<path d="M258.636 137.613H201.113C200.825 137.614 200.54 137.557 200.273 137.446C200.007 137.335 199.765 137.172 199.561 136.967C199.358 136.762 199.196 136.518 199.086 136.249C198.976 135.981 198.919 135.693 198.92 135.403V77.4277C198.919 77.1374 198.976 76.8497 199.086 76.5812C199.196 76.313 199.358 76.0693 199.561 75.8638C199.765 75.6584 200.007 75.4957 200.273 75.3846C200.54 75.2738 200.825 75.2169 201.113 75.2172H258.636C258.926 75.2169 259.21 75.2738 259.476 75.3846C259.742 75.4957 259.984 75.6584 260.189 75.8638C260.391 76.0693 260.555 76.313 260.663 76.5812C260.774 76.8497 260.83 77.1374 260.83 77.4277V135.403C260.835 135.695 260.783 135.984 260.675 136.255C260.566 136.525 260.403 136.771 260.198 136.978C259.993 137.184 259.751 137.346 259.481 137.456C259.212 137.565 258.926 137.619 258.636 137.613Z" fill="#4D61FC"/>
<path opacity="0.5" d="M258.636 137.613H201.113C200.825 137.614 200.54 137.557 200.273 137.446C200.007 137.335 199.765 137.172 199.561 136.967C199.358 136.762 199.196 136.518 199.086 136.249C198.976 135.981 198.919 135.693 198.92 135.403V77.4277C198.919 77.1374 198.976 76.8497 199.086 76.5812C199.196 76.313 199.358 76.0693 199.561 75.8638C199.765 75.6584 200.007 75.4957 200.273 75.3846C200.54 75.2738 200.825 75.2169 201.113 75.2172H258.636C258.926 75.2169 259.21 75.2738 259.476 75.3846C259.742 75.4957 259.984 75.6584 260.189 75.8638C260.391 76.0693 260.555 76.313 260.663 76.5812C260.774 76.8497 260.83 77.1374 260.83 77.4277V135.403C260.835 135.695 260.783 135.984 260.675 136.255C260.566 136.525 260.403 136.771 260.198 136.978C259.993 137.184 259.751 137.346 259.481 137.456C259.212 137.565 258.926 137.619 258.636 137.613Z" fill="white"/>
<path d="M255.77 137.613H198.276C197.988 137.614 197.703 137.557 197.436 137.446C197.17 137.335 196.928 137.172 196.724 136.967C196.521 136.762 196.359 136.518 196.249 136.249C196.139 135.981 196.082 135.693 196.083 135.403V77.4277C196.082 77.1374 196.139 76.8497 196.249 76.5812C196.359 76.313 196.521 76.0693 196.724 75.8638C196.928 75.6584 197.17 75.4957 197.436 75.3846C197.703 75.2738 197.988 75.2169 198.276 75.2172H255.8C256.086 75.2169 256.373 75.2738 256.639 75.3846C256.905 75.4957 257.148 75.6584 257.353 75.8638C257.554 76.0693 257.718 76.313 257.826 76.5812C257.937 76.8497 257.993 77.1374 257.993 77.4277V135.403C257.993 135.696 257.934 135.985 257.823 136.255C257.709 136.525 257.546 136.77 257.338 136.976C257.133 137.181 256.888 137.343 256.618 137.453C256.349 137.562 256.06 137.617 255.77 137.613Z" fill="white"/>
<path d="M240.563 117.896H213.483C213.025 117.896 212.587 117.713 212.263 117.386C211.939 117.06 211.757 116.618 211.757 116.157C211.757 115.695 211.939 115.253 212.263 114.927C212.587 114.601 213.025 114.418 213.483 114.418H240.563C241.02 114.419 241.458 114.602 241.783 114.928C242.104 115.254 242.289 115.696 242.289 116.157C242.292 116.386 242.251 116.614 242.166 116.828C242.081 117.04 241.955 117.234 241.792 117.396C241.631 117.558 241.441 117.686 241.227 117.772C241.017 117.858 240.791 117.9 240.563 117.896Z" fill="#61656D"/>
<path d="M247.611 124.704H206.435C206.195 124.704 205.965 124.608 205.794 124.436C205.624 124.265 205.529 124.033 205.529 123.79C205.529 123.548 205.624 123.315 205.794 123.144C205.965 122.973 206.195 122.877 206.435 122.877H247.611C247.851 122.878 248.082 122.975 248.252 123.146C248.421 123.317 248.518 123.549 248.518 123.79C248.521 123.911 248.5 124.032 248.456 124.145C248.413 124.257 248.345 124.36 248.261 124.445C248.176 124.531 248.076 124.598 247.962 124.643C247.851 124.687 247.731 124.708 247.611 124.704Z" fill="#B2B6BB"/>
<path d="M238.779 96.3559C239.157 94.0142 238.838 91.6121 237.858 89.4537C236.882 87.2951 235.291 85.4771 233.29 84.2298C231.287 82.9822 228.962 82.3611 226.611 82.4449C224.257 82.5289 221.982 83.3137 220.073 84.7008C218.163 86.0878 216.704 88.0142 215.881 90.2369C215.057 92.4598 214.906 94.8784 215.447 97.1877C215.987 99.4967 217.195 101.593 218.917 103.21C220.64 104.827 222.798 105.893 225.122 106.274C228.24 106.783 231.427 106.025 233.989 104.165C236.548 102.305 238.274 99.4961 238.779 96.3559Z" fill="#00B787"/>
<path d="M224.83 99.4449L220.824 95.407C220.725 95.2982 220.67 95.1564 220.67 95.0091C220.67 94.8617 220.725 94.7199 220.824 94.6112L221.876 93.5501C221.985 93.4508 222.125 93.3957 222.271 93.3957C222.417 93.3957 222.558 93.4508 222.666 93.5501L225.239 96.1438L231.439 89.8659C231.547 89.7665 231.688 89.7114 231.834 89.7114C231.98 89.7114 232.121 89.7665 232.229 89.8659L233.282 90.9269C233.381 91.0357 233.434 91.1775 233.434 91.3248C233.434 91.4722 233.381 91.614 233.282 91.7227L225.62 99.4449C225.57 99.5006 225.508 99.5451 225.441 99.5754C225.374 99.6058 225.298 99.6214 225.225 99.6214C225.152 99.6214 225.076 99.6058 225.008 99.5754C224.941 99.5451 224.88 99.5006 224.83 99.4449Z" fill="white"/>
<path d="M181.432 219.492H123.908C123.62 219.492 123.335 219.436 123.068 219.325C122.802 219.214 122.56 219.051 122.357 218.845C122.153 218.64 121.991 218.396 121.881 218.128C121.771 217.86 121.714 217.572 121.715 217.282V159.306C121.714 159.016 121.771 158.729 121.881 158.46C121.991 158.192 122.153 157.948 122.357 157.743C122.56 157.537 122.802 157.374 123.068 157.263C123.335 157.153 123.62 157.096 123.908 157.096H181.432C181.72 157.096 182.005 157.153 182.271 157.263C182.538 157.374 182.78 157.537 182.983 157.743C183.187 157.948 183.349 158.192 183.459 158.46C183.569 158.729 183.625 159.016 183.625 159.306V217.282C183.625 217.572 183.569 217.86 183.459 218.128C183.349 218.396 183.187 218.64 182.983 218.845C182.78 219.051 182.538 219.214 182.271 219.325C182.005 219.436 181.72 219.492 181.432 219.492Z" fill="#4D61FC"/>
<path opacity="0.5" d="M181.432 219.492H123.908C123.62 219.492 123.335 219.436 123.068 219.325C122.802 219.214 122.56 219.051 122.357 218.845C122.153 218.64 121.991 218.396 121.881 218.128C121.771 217.86 121.714 217.572 121.715 217.282V159.306C121.714 159.016 121.771 158.729 121.881 158.46C121.991 158.192 122.153 157.948 122.357 157.743C122.56 157.537 122.802 157.374 123.068 157.263C123.335 157.153 123.62 157.096 123.908 157.096H181.432C181.72 157.096 182.005 157.153 182.271 157.263C182.538 157.374 182.78 157.537 182.983 157.743C183.187 157.948 183.349 158.192 183.459 158.46C183.569 158.729 183.625 159.016 183.625 159.306V217.282C183.625 217.572 183.569 217.86 183.459 218.128C183.349 218.396 183.187 218.64 182.983 218.845C182.78 219.051 182.538 219.214 182.271 219.325C182.005 219.436 181.72 219.492 181.432 219.492Z" fill="white"/>
<path d="M178.566 219.492H121.042C120.754 219.492 120.469 219.436 120.202 219.325C119.936 219.214 119.694 219.051 119.49 218.846C119.287 218.64 119.125 218.396 119.015 218.128C118.905 217.86 118.848 217.572 118.849 217.282V159.306C118.848 159.016 118.905 158.729 119.015 158.46C119.125 158.192 119.287 157.948 119.49 157.743C119.694 157.537 119.936 157.374 120.202 157.263C120.469 157.153 120.754 157.096 121.042 157.096H178.566C178.854 157.096 179.139 157.153 179.405 157.263C179.672 157.374 179.914 157.537 180.117 157.743C180.321 157.948 180.482 158.192 180.593 158.46C180.703 158.729 180.759 159.016 180.759 159.306V217.282C180.761 217.573 180.707 217.861 180.597 218.131C180.488 218.4 180.327 218.645 180.122 218.851C179.918 219.057 179.675 219.219 179.408 219.329C179.141 219.44 178.854 219.495 178.566 219.492Z" fill="white"/>
<path d="M163.358 199.774H136.278C136.051 199.774 135.827 199.729 135.618 199.642C135.409 199.554 135.218 199.426 135.058 199.265C134.898 199.103 134.771 198.912 134.684 198.701C134.597 198.49 134.553 198.264 134.553 198.035C134.553 197.807 134.597 197.581 134.684 197.37C134.771 197.159 134.898 196.967 135.058 196.805C135.218 196.644 135.409 196.516 135.618 196.428C135.827 196.341 136.051 196.296 136.278 196.296H163.358C163.816 196.297 164.254 196.48 164.577 196.806C164.901 197.132 165.083 197.574 165.084 198.035C165.086 198.264 165.042 198.491 164.956 198.703C164.87 198.915 164.743 199.107 164.583 199.269C164.422 199.431 164.231 199.559 164.021 199.646C163.811 199.732 163.585 199.776 163.358 199.774Z" fill="#61656D"/>
<path d="M170.406 206.582H129.231C128.99 206.582 128.76 206.486 128.59 206.315C128.42 206.144 128.324 205.911 128.324 205.669C128.324 205.426 128.42 205.194 128.59 205.023C128.76 204.851 128.99 204.755 129.231 204.755H170.406C170.647 204.756 170.876 204.853 171.046 205.024C171.216 205.195 171.312 205.427 171.313 205.669C171.315 205.789 171.293 205.909 171.248 206.021C171.203 206.133 171.137 206.234 171.052 206.319C170.967 206.404 170.867 206.472 170.756 206.517C170.645 206.562 170.526 206.584 170.406 206.582Z" fill="#B2B6BB"/>
<path d="M149.736 189.068C152.09 189.068 154.391 188.365 156.349 187.046C158.306 185.728 159.832 183.855 160.733 181.663C161.634 179.471 161.869 177.059 161.41 174.732C160.951 172.405 159.817 170.268 158.152 168.59C156.488 166.912 154.367 165.77 152.058 165.307C149.749 164.844 147.356 165.082 145.181 165.989C143.006 166.897 141.148 168.435 139.84 170.408C138.532 172.38 137.834 174.7 137.834 177.072C137.834 180.254 139.088 183.305 141.32 185.555C143.552 187.804 146.579 189.068 149.736 189.068Z" fill="#00B787"/>
<path d="M147.596 181.323L143.59 177.285C143.491 177.177 143.436 177.035 143.436 176.887C143.436 176.74 143.491 176.598 143.59 176.49L144.642 175.429C144.75 175.329 144.891 175.274 145.037 175.274C145.183 175.274 145.324 175.329 145.432 175.429L148.006 178.022L154.205 171.744C154.313 171.645 154.454 171.59 154.6 171.59C154.746 171.59 154.887 171.645 154.995 171.744L156.048 172.805C156.146 172.914 156.201 173.056 156.201 173.203C156.201 173.351 156.146 173.492 156.048 173.601L148.386 181.323C148.336 181.379 148.275 181.424 148.207 181.454C148.139 181.484 148.065 181.5 147.991 181.5C147.916 181.5 147.843 181.484 147.775 181.454C147.707 181.424 147.646 181.379 147.596 181.323Z" fill="white"/>
<path d="M258.636 219.492H201.113C200.825 219.492 200.54 219.436 200.273 219.325C200.007 219.214 199.765 219.051 199.561 218.846C199.358 218.64 199.196 218.396 199.086 218.128C198.976 217.86 198.919 217.572 198.92 217.282V159.306C198.919 159.016 198.976 158.729 199.086 158.46C199.196 158.192 199.358 157.948 199.561 157.743C199.765 157.537 200.007 157.374 200.273 157.263C200.54 157.153 200.825 157.096 201.113 157.096H258.636C258.926 157.096 259.21 157.153 259.476 157.263C259.742 157.374 259.985 157.537 260.189 157.743C260.391 157.948 260.555 158.192 260.663 158.46C260.774 158.729 260.83 159.016 260.83 159.306V217.282C260.833 217.573 260.777 217.861 260.669 218.131C260.561 218.4 260.397 218.645 260.192 218.851C259.99 219.057 259.748 219.219 259.479 219.329C259.212 219.44 258.926 219.495 258.636 219.492Z" fill="#4D61FC"/>
<path opacity="0.5" d="M258.636 219.492H201.113C200.825 219.492 200.54 219.436 200.273 219.325C200.007 219.214 199.765 219.051 199.561 218.846C199.358 218.64 199.196 218.396 199.086 218.128C198.976 217.86 198.919 217.572 198.92 217.282V159.306C198.919 159.016 198.976 158.729 199.086 158.46C199.196 158.192 199.358 157.948 199.561 157.743C199.765 157.537 200.007 157.374 200.273 157.263C200.54 157.153 200.825 157.096 201.113 157.096H258.636C258.926 157.096 259.21 157.153 259.476 157.263C259.742 157.374 259.985 157.537 260.189 157.743C260.391 157.948 260.555 158.192 260.663 158.46C260.774 158.729 260.83 159.016 260.83 159.306V217.282C260.833 217.573 260.777 217.861 260.669 218.131C260.561 218.4 260.397 218.645 260.192 218.851C259.99 219.057 259.748 219.219 259.479 219.329C259.212 219.44 258.926 219.495 258.636 219.492Z" fill="white"/>
<path d="M255.77 219.492H198.276C197.988 219.492 197.703 219.436 197.436 219.325C197.17 219.214 196.928 219.051 196.724 218.846C196.521 218.64 196.359 218.396 196.249 218.128C196.139 217.86 196.082 217.572 196.083 217.282V159.306C196.082 159.016 196.139 158.729 196.249 158.46C196.359 158.192 196.521 157.948 196.724 157.743C196.928 157.537 197.17 157.374 197.436 157.263C197.703 157.153 197.988 157.096 198.276 157.096H255.8C256.086 157.096 256.373 157.153 256.639 157.263C256.905 157.374 257.148 157.537 257.353 157.743C257.554 157.948 257.718 158.192 257.826 158.46C257.937 158.729 257.993 159.016 257.993 159.306V217.282C257.987 217.871 257.75 218.434 257.332 218.848C256.917 219.262 256.355 219.494 255.77 219.492Z" fill="white"/>
<path d="M240.563 199.774H213.483C213.256 199.774 213.032 199.729 212.823 199.642C212.613 199.554 212.423 199.426 212.263 199.265C212.103 199.103 211.976 198.912 211.889 198.701C211.802 198.49 211.757 198.264 211.757 198.035C211.757 197.807 211.802 197.581 211.889 197.37C211.976 197.159 212.103 196.967 212.263 196.805C212.423 196.644 212.613 196.516 212.823 196.428C213.032 196.341 213.256 196.296 213.483 196.296H240.563C241.02 196.297 241.458 196.48 241.783 196.806C242.104 197.132 242.289 197.574 242.289 198.035C242.292 198.265 242.251 198.493 242.166 198.706C242.081 198.919 241.955 199.112 241.792 199.274C241.631 199.437 241.441 199.565 241.227 199.651C241.017 199.736 240.791 199.778 240.563 199.774Z" fill="#61656D"/>
<path d="M247.611 206.582H206.435C206.195 206.582 205.965 206.486 205.794 206.315C205.624 206.144 205.529 205.911 205.529 205.669C205.529 205.426 205.624 205.194 205.794 205.023C205.965 204.851 206.195 204.755 206.435 204.755H247.611C247.851 204.756 248.082 204.853 248.252 205.024C248.421 205.195 248.518 205.427 248.518 205.669C248.521 205.79 248.5 205.91 248.456 206.023C248.413 206.136 248.345 206.238 248.261 206.324C248.176 206.41 248.076 206.477 247.962 206.521C247.851 206.566 247.731 206.587 247.611 206.582Z" fill="#B2B6BB"/>
<path d="M238.78 178.235C239.157 175.893 238.835 173.491 237.858 171.332C236.882 169.174 235.291 167.356 233.287 166.109C231.284 164.862 228.959 164.242 226.608 164.326C224.254 164.41 221.979 165.196 220.07 166.584C218.161 167.971 216.702 169.898 215.879 172.121C215.056 174.344 214.906 176.763 215.447 179.072C215.988 181.381 217.196 183.476 218.919 185.093C220.642 186.71 222.8 187.776 225.125 188.155C226.67 188.408 228.246 188.352 229.766 187.99C231.287 187.628 232.723 186.967 233.992 186.046C235.259 185.125 236.335 183.961 237.157 182.62C237.978 181.28 238.531 179.79 238.78 178.235Z" fill="#00B787"/>
<path d="M224.83 181.323L220.824 177.285C220.725 177.177 220.67 177.035 220.67 176.887C220.67 176.74 220.725 176.598 220.824 176.49L221.876 175.429C221.985 175.329 222.125 175.274 222.271 175.274C222.417 175.274 222.558 175.329 222.666 175.429L225.239 178.022L231.439 171.744C231.547 171.645 231.688 171.59 231.834 171.59C231.98 171.59 232.121 171.645 232.229 171.744L233.282 172.805C233.381 172.914 233.434 173.056 233.434 173.203C233.434 173.351 233.381 173.492 233.282 173.601L225.62 181.323C225.57 181.379 225.508 181.424 225.441 181.454C225.374 181.484 225.298 181.5 225.225 181.5C225.152 181.5 225.076 181.484 225.008 181.454C224.941 181.424 224.88 181.379 224.83 181.323Z" fill="white"/>
<path d="M316.423 111.588H298.847V236.086H316.423V111.588Z" fill="#DADDDF"/>
<path d="M331.659 236.999H0.351102C0.304603 237.002 0.258398 236.994 0.215117 236.976C0.171543 236.958 0.132352 236.932 0.0993064 236.899C0.0665529 236.867 0.0408171 236.826 0.023563 236.784C0.00660137 236.74 -0.00129065 236.693 0.000171561 236.646C0.000171561 236.44 0.146392 236.292 0.351102 236.086H331.63C331.981 236.145 331.981 236.44 331.981 236.646C331.981 236.734 331.949 236.82 331.887 236.885C331.829 236.952 331.747 236.991 331.659 236.999Z" fill="#DADDDF"/>
<path d="M134.895 129.802C135.189 129.802 135.444 129.857 135.659 129.966C135.878 130.071 136.049 130.223 136.172 130.42C136.295 130.618 136.356 130.852 136.356 131.124C136.356 131.396 136.295 131.631 136.172 131.828C136.049 132.026 135.878 132.179 135.659 132.289C135.444 132.394 135.189 132.447 134.895 132.447H133.889V134.145H133.362V129.802H134.895ZM134.816 131.953C135.159 131.953 135.409 131.883 135.567 131.743C135.724 131.598 135.803 131.392 135.803 131.124C135.803 130.852 135.724 130.646 135.567 130.506C135.409 130.365 135.159 130.295 134.816 130.295H133.889V131.953H134.816ZM139.201 132.019C139.201 131.774 139.135 131.585 139.004 131.453C138.872 131.317 138.686 131.249 138.444 131.249C138.216 131.249 138.023 131.3 137.865 131.401C137.707 131.497 137.591 131.655 137.517 131.874L137.089 131.611C137.177 131.366 137.339 131.168 137.576 131.019C137.813 130.866 138.107 130.789 138.458 130.789C138.694 130.789 138.909 130.83 139.102 130.914C139.295 130.993 139.447 131.116 139.556 131.282C139.671 131.445 139.728 131.655 139.728 131.914V133.506C139.728 133.664 139.811 133.743 139.978 133.743C140.061 133.743 140.142 133.732 140.221 133.71L140.195 134.125C140.107 134.169 139.993 134.191 139.853 134.191C139.725 134.191 139.611 134.167 139.51 134.118C139.41 134.07 139.331 133.998 139.274 133.901C139.217 133.8 139.188 133.675 139.188 133.526V133.46L139.32 133.48C139.267 133.651 139.177 133.792 139.05 133.901C138.923 134.006 138.78 134.085 138.622 134.138C138.464 134.186 138.308 134.21 138.155 134.21C137.962 134.21 137.782 134.178 137.615 134.112C137.449 134.046 137.315 133.947 137.214 133.816C137.117 133.68 137.069 133.513 137.069 133.316C137.069 133.07 137.15 132.868 137.313 132.71C137.479 132.548 137.71 132.438 138.004 132.381L139.306 132.125V132.559L138.247 132.776C138.032 132.82 137.872 132.881 137.767 132.96C137.661 133.039 137.609 133.149 137.609 133.289C137.609 133.425 137.661 133.537 137.767 133.625C137.876 133.708 138.03 133.75 138.227 133.75C138.354 133.75 138.475 133.734 138.589 133.704C138.708 133.669 138.813 133.618 138.905 133.552C138.997 133.482 139.07 133.397 139.122 133.296C139.175 133.191 139.201 133.068 139.201 132.927V132.019ZM141.007 135.526V130.855H141.467L141.513 131.657L141.441 131.565C141.498 131.412 141.584 131.278 141.698 131.164C141.812 131.045 141.95 130.953 142.112 130.887C142.275 130.822 142.45 130.789 142.639 130.789C142.906 130.789 143.152 130.857 143.376 130.993C143.604 131.129 143.786 131.324 143.922 131.578C144.058 131.833 144.126 132.14 144.126 132.5C144.126 132.855 144.056 133.162 143.915 133.421C143.779 133.675 143.597 133.87 143.369 134.006C143.141 134.142 142.891 134.21 142.619 134.21C142.347 134.21 142.108 134.145 141.902 134.013C141.7 133.877 141.555 133.706 141.467 133.5L141.533 133.401V135.526H141.007ZM142.566 133.75C142.891 133.75 143.143 133.636 143.323 133.408C143.507 133.18 143.599 132.877 143.599 132.5C143.599 132.122 143.509 131.82 143.33 131.592C143.154 131.363 142.906 131.249 142.586 131.249C142.375 131.249 142.191 131.302 142.033 131.407C141.875 131.508 141.753 131.653 141.665 131.842C141.577 132.026 141.533 132.245 141.533 132.5C141.533 132.75 141.575 132.969 141.658 133.158C141.746 133.346 141.867 133.493 142.02 133.598C142.178 133.699 142.36 133.75 142.566 133.75ZM146.508 134.21C146.196 134.21 145.918 134.142 145.672 134.006C145.431 133.87 145.242 133.675 145.106 133.421C144.97 133.162 144.902 132.855 144.902 132.5C144.902 132.144 144.97 131.839 145.106 131.585C145.242 131.326 145.428 131.129 145.665 130.993C145.902 130.857 146.172 130.789 146.475 130.789C146.782 130.789 147.043 130.855 147.258 130.986C147.477 131.118 147.644 131.298 147.758 131.526C147.872 131.749 147.929 132.002 147.929 132.282C147.929 132.357 147.927 132.425 147.922 132.486C147.918 132.548 147.911 132.603 147.903 132.651H145.244V132.184H147.672L147.402 132.236C147.402 131.921 147.315 131.677 147.139 131.506C146.968 131.335 146.742 131.249 146.461 131.249C146.247 131.249 146.06 131.3 145.902 131.401C145.749 131.497 145.628 131.64 145.54 131.828C145.457 132.013 145.415 132.236 145.415 132.5C145.415 132.758 145.459 132.982 145.547 133.171C145.635 133.359 145.757 133.504 145.915 133.605C146.078 133.702 146.271 133.75 146.494 133.75C146.736 133.75 146.931 133.704 147.08 133.612C147.234 133.52 147.356 133.395 147.449 133.237L147.863 133.48C147.78 133.629 147.672 133.759 147.541 133.868C147.413 133.978 147.262 134.063 147.087 134.125C146.916 134.182 146.723 134.21 146.508 134.21ZM148.93 134.145V130.855H149.358L149.43 131.394C149.522 131.192 149.656 131.041 149.832 130.94C150.011 130.839 150.229 130.789 150.483 130.789C150.54 130.789 150.601 130.793 150.667 130.802C150.737 130.811 150.797 130.828 150.845 130.855L150.753 131.335C150.705 131.317 150.652 131.304 150.595 131.295C150.538 131.287 150.457 131.282 150.351 131.282C150.215 131.282 150.077 131.322 149.937 131.401C149.801 131.48 149.687 131.6 149.595 131.763C149.503 131.921 149.456 132.122 149.456 132.368V134.145H148.93ZM155.742 130.855H156.328L155.183 134.145H154.656L153.728 131.526L152.853 134.145H152.327L151.182 130.855H151.767L152.597 133.533L153.491 130.855H154.018L154.913 133.533L155.742 130.855ZM158.376 130.789C158.688 130.789 158.962 130.857 159.199 130.993C159.44 131.129 159.628 131.326 159.764 131.585C159.9 131.839 159.968 132.144 159.968 132.5C159.968 132.855 159.9 133.162 159.764 133.421C159.628 133.675 159.44 133.87 159.199 134.006C158.962 134.142 158.688 134.21 158.376 134.21C158.069 134.21 157.795 134.142 157.554 134.006C157.312 133.87 157.124 133.675 156.988 133.421C156.852 133.162 156.784 132.855 156.784 132.5C156.784 132.144 156.852 131.839 156.988 131.585C157.124 131.326 157.312 131.129 157.554 130.993C157.795 130.857 158.069 130.789 158.376 130.789ZM158.376 131.243C158.152 131.243 157.962 131.293 157.804 131.394C157.646 131.495 157.523 131.64 157.435 131.828C157.352 132.013 157.31 132.236 157.31 132.5C157.31 132.758 157.352 132.982 157.435 133.171C157.523 133.359 157.646 133.504 157.804 133.605C157.962 133.706 158.152 133.756 158.376 133.756C158.6 133.756 158.791 133.706 158.949 133.605C159.106 133.504 159.227 133.359 159.31 133.171C159.398 132.982 159.442 132.758 159.442 132.5C159.442 132.236 159.398 132.013 159.31 131.828C159.227 131.64 159.106 131.495 158.949 131.394C158.791 131.293 158.6 131.243 158.376 131.243ZM160.96 134.145V130.855H161.387L161.46 131.394C161.552 131.192 161.686 131.041 161.861 130.94C162.041 130.839 162.258 130.789 162.512 130.789C162.569 130.789 162.631 130.793 162.697 130.802C162.767 130.811 162.826 130.828 162.874 130.855L162.782 131.335C162.734 131.317 162.681 131.304 162.624 131.295C162.567 131.287 162.486 131.282 162.381 131.282C162.245 131.282 162.107 131.322 161.966 131.401C161.83 131.48 161.716 131.6 161.624 131.763C161.532 131.921 161.486 132.122 161.486 132.368V134.145H160.96ZM166.534 130.855L165.113 132.276L164.988 132.401L163.909 133.48V132.822L165.87 130.855H166.534ZM164.172 129.341V134.145H163.646V129.341H164.172ZM165.159 132.006L166.613 134.145H165.975L164.718 132.302L165.159 132.006Z" fill="#181441" fill-opacity="0.55"/>
<path d="M137.453 214.999H139.94V215.493H136.927V211.15H137.453V214.999ZM142.682 213.367C142.682 213.122 142.616 212.933 142.485 212.801C142.353 212.665 142.167 212.597 141.925 212.597C141.697 212.597 141.504 212.648 141.346 212.749C141.188 212.845 141.072 213.003 140.997 213.223L140.57 212.959C140.657 212.714 140.82 212.516 141.057 212.367C141.294 212.214 141.587 212.137 141.938 212.137C142.175 212.137 142.39 212.178 142.583 212.262C142.776 212.341 142.928 212.464 143.037 212.63C143.151 212.793 143.208 213.003 143.208 213.262V214.854C143.208 215.012 143.292 215.091 143.458 215.091C143.542 215.091 143.623 215.08 143.702 215.058L143.676 215.473C143.588 215.517 143.474 215.539 143.333 215.539C143.206 215.539 143.092 215.515 142.991 215.466C142.89 215.418 142.811 215.346 142.754 215.249C142.697 215.148 142.669 215.023 142.669 214.874V214.808L142.8 214.828C142.748 214.999 142.658 215.14 142.531 215.249C142.403 215.354 142.261 215.433 142.103 215.486C141.945 215.534 141.789 215.558 141.636 215.558C141.443 215.558 141.263 215.526 141.096 215.46C140.929 215.394 140.796 215.295 140.695 215.164C140.598 215.028 140.55 214.861 140.55 214.664C140.55 214.418 140.631 214.216 140.793 214.058C140.96 213.896 141.19 213.786 141.484 213.729L142.787 213.473V213.907L141.728 214.124C141.513 214.168 141.353 214.229 141.247 214.308C141.142 214.387 141.09 214.497 141.09 214.637C141.09 214.773 141.142 214.885 141.247 214.973C141.357 215.056 141.511 215.098 141.708 215.098C141.835 215.098 141.956 215.083 142.07 215.052C142.188 215.017 142.294 214.966 142.386 214.9C142.478 214.83 142.55 214.745 142.603 214.644C142.656 214.539 142.682 214.416 142.682 214.275V213.367ZM145.679 215.558C145.468 215.558 145.268 215.519 145.08 215.44C144.896 215.361 144.744 215.234 144.626 215.058C144.512 214.879 144.455 214.646 144.455 214.361V212.203H144.981V214.223C144.981 214.556 145.054 214.786 145.198 214.914C145.343 215.036 145.547 215.098 145.81 215.098C145.933 215.098 146.054 215.078 146.172 215.039C146.291 214.995 146.396 214.929 146.488 214.841C146.585 214.749 146.659 214.633 146.712 214.492C146.769 214.352 146.797 214.185 146.797 213.992V212.203H147.324V215.493H146.863L146.83 214.993C146.716 215.19 146.56 215.335 146.363 215.427C146.17 215.515 145.942 215.558 145.679 215.558ZM148.549 215.493V212.203H149.009L149.056 212.94L148.97 212.867C149.04 212.692 149.134 212.551 149.253 212.446C149.371 212.336 149.507 212.257 149.661 212.209C149.819 212.161 149.981 212.137 150.148 212.137C150.385 212.137 150.6 212.183 150.793 212.275C150.986 212.363 151.139 212.499 151.253 212.683C151.372 212.867 151.431 213.102 151.431 213.387V215.493H150.905V213.571C150.905 213.207 150.826 212.955 150.668 212.815C150.514 212.67 150.323 212.597 150.095 212.597C149.937 212.597 149.779 212.635 149.621 212.709C149.464 212.784 149.332 212.904 149.227 213.071C149.126 213.238 149.075 213.462 149.075 213.742V215.493H148.549ZM153.906 215.558C153.634 215.558 153.384 215.49 153.156 215.354C152.928 215.219 152.746 215.023 152.61 214.769C152.474 214.51 152.406 214.203 152.406 213.848C152.406 213.484 152.478 213.174 152.623 212.92C152.768 212.665 152.959 212.472 153.195 212.341C153.432 212.205 153.687 212.137 153.959 212.137C154.231 212.137 154.465 212.207 154.663 212.347C154.865 212.488 154.998 212.674 155.064 212.907L154.998 212.953V210.689H155.525V215.493H155.064L155.018 214.696L155.091 214.657C155.06 214.85 154.985 215.015 154.867 215.151C154.753 215.282 154.61 215.383 154.439 215.453C154.272 215.523 154.095 215.558 153.906 215.558ZM153.959 215.098C154.169 215.098 154.351 215.045 154.505 214.94C154.663 214.835 154.783 214.686 154.867 214.492C154.955 214.295 154.998 214.065 154.998 213.802C154.998 213.552 154.955 213.337 154.867 213.157C154.783 212.977 154.665 212.839 154.511 212.742C154.362 212.646 154.187 212.597 153.985 212.597C153.652 212.597 153.393 212.711 153.209 212.94C153.024 213.168 152.932 213.47 152.932 213.848C152.932 214.225 153.022 214.528 153.202 214.756C153.382 214.984 153.634 215.098 153.959 215.098ZM156.748 215.493V212.203H157.176L157.249 212.742C157.341 212.54 157.474 212.389 157.65 212.288C157.83 212.187 158.047 212.137 158.301 212.137C158.358 212.137 158.42 212.141 158.486 212.15C158.556 212.159 158.615 212.176 158.663 212.203L158.571 212.683C158.523 212.665 158.47 212.652 158.413 212.643C158.356 212.635 158.275 212.63 158.17 212.63C158.034 212.63 157.896 212.67 157.755 212.749C157.619 212.828 157.505 212.948 157.413 213.111C157.321 213.269 157.275 213.47 157.275 213.716V215.493H156.748ZM162.139 212.203L160.593 216.045C160.509 216.26 160.417 216.429 160.316 216.552C160.22 216.679 160.11 216.769 159.987 216.822C159.869 216.879 159.731 216.907 159.573 216.907C159.424 216.907 159.285 216.885 159.158 216.842C159.035 216.802 158.926 216.747 158.829 216.677L158.974 216.216C159.062 216.295 159.154 216.352 159.25 216.388C159.351 216.427 159.45 216.447 159.546 216.447C159.66 216.447 159.768 216.412 159.869 216.342C159.97 216.271 160.062 216.129 160.145 215.914L160.316 215.486L159.987 214.703L158.941 212.203H159.54L160.362 214.348L160.566 214.933L160.803 214.282L161.573 212.203H162.139Z" fill="#181441" fill-opacity="0.55"/>
<path d="M224.73 128.897V133.24H224.229V130.509L224.289 129.364H224.282L222.854 133.24H222.407L220.979 129.364H220.972L221.032 130.509V133.24H220.531V128.897H221.341L222.295 131.536L222.624 132.621H222.637L222.973 131.542L223.92 128.897H224.73ZM227.373 133.306C227.061 133.306 226.783 133.238 226.537 133.102C226.296 132.966 226.107 132.771 225.971 132.516C225.835 132.257 225.767 131.95 225.767 131.595C225.767 131.24 225.835 130.935 225.971 130.68C226.107 130.421 226.294 130.224 226.531 130.088C226.767 129.952 227.037 129.884 227.34 129.884C227.647 129.884 227.908 129.95 228.123 130.081C228.342 130.213 228.509 130.393 228.623 130.621C228.737 130.845 228.794 131.097 228.794 131.378C228.794 131.452 228.792 131.52 228.788 131.582C228.783 131.643 228.777 131.698 228.768 131.746H226.109V131.279H228.538L228.268 131.332C228.268 131.016 228.18 130.772 228.005 130.601C227.833 130.43 227.608 130.345 227.327 130.345C227.112 130.345 226.925 130.395 226.767 130.496C226.614 130.593 226.493 130.735 226.406 130.924C226.322 131.108 226.281 131.332 226.281 131.595C226.281 131.854 226.324 132.077 226.412 132.266C226.5 132.455 226.623 132.6 226.781 132.7C226.943 132.797 227.136 132.845 227.36 132.845C227.601 132.845 227.796 132.799 227.945 132.707C228.099 132.615 228.222 132.49 228.314 132.332L228.728 132.575C228.645 132.725 228.538 132.854 228.406 132.964C228.279 133.073 228.127 133.159 227.952 133.22C227.781 133.277 227.588 133.306 227.373 133.306ZM230.98 133.306C230.66 133.306 230.363 133.238 230.091 133.102C229.824 132.966 229.618 132.773 229.473 132.523L229.92 132.2C230.017 132.402 230.157 132.56 230.342 132.674C230.53 132.788 230.756 132.845 231.019 132.845C231.252 132.845 231.434 132.801 231.565 132.714C231.697 132.621 231.763 132.503 231.763 132.358C231.763 132.266 231.732 132.183 231.671 132.108C231.614 132.029 231.502 131.972 231.335 131.937L230.546 131.773C230.225 131.707 229.995 131.597 229.855 131.444C229.719 131.29 229.651 131.099 229.651 130.871C229.651 130.691 229.701 130.527 229.802 130.378C229.907 130.228 230.054 130.11 230.243 130.022C230.436 129.93 230.662 129.884 230.921 129.884C231.245 129.884 231.519 129.948 231.743 130.075C231.967 130.202 232.134 130.382 232.243 130.614L231.802 130.904C231.728 130.711 231.607 130.571 231.44 130.483C231.274 130.391 231.1 130.345 230.921 130.345C230.763 130.345 230.627 130.367 230.513 130.41C230.403 130.454 230.317 130.516 230.256 130.595C230.199 130.669 230.17 130.755 230.17 130.851C230.17 130.948 230.203 131.038 230.269 131.121C230.335 131.2 230.458 131.257 230.638 131.292L231.46 131.463C231.767 131.525 231.982 131.626 232.105 131.766C232.228 131.906 232.289 132.077 232.289 132.279C232.289 132.485 232.234 132.668 232.125 132.825C232.015 132.979 231.862 133.097 231.664 133.181C231.467 133.264 231.239 133.306 230.98 133.306ZM234.45 133.306C234.13 133.306 233.834 133.238 233.562 133.102C233.294 132.966 233.088 132.773 232.943 132.523L233.39 132.2C233.487 132.402 233.627 132.56 233.812 132.674C234 132.788 234.226 132.845 234.489 132.845C234.722 132.845 234.904 132.801 235.035 132.714C235.167 132.621 235.233 132.503 235.233 132.358C235.233 132.266 235.202 132.183 235.141 132.108C235.084 132.029 234.972 131.972 234.805 131.937L234.016 131.773C233.695 131.707 233.465 131.597 233.325 131.444C233.189 131.29 233.121 131.099 233.121 130.871C233.121 130.691 233.171 130.527 233.272 130.378C233.377 130.228 233.524 130.11 233.713 130.022C233.906 129.93 234.132 129.884 234.391 129.884C234.715 129.884 234.989 129.948 235.213 130.075C235.437 130.202 235.604 130.382 235.713 130.614L235.272 130.904C235.198 130.711 235.077 130.571 234.91 130.483C234.744 130.391 234.57 130.345 234.391 130.345C234.233 130.345 234.097 130.367 233.983 130.41C233.873 130.454 233.787 130.516 233.726 130.595C233.669 130.669 233.64 130.755 233.64 130.851C233.64 130.948 233.673 131.038 233.739 131.121C233.805 131.2 233.928 131.257 234.108 131.292L234.93 131.463C235.237 131.525 235.452 131.626 235.575 131.766C235.698 131.906 235.759 132.077 235.759 132.279C235.759 132.485 235.704 132.668 235.595 132.825C235.485 132.979 235.332 133.097 235.134 133.181C234.937 133.264 234.709 133.306 234.45 133.306Z" fill="#181441" fill-opacity="0.55"/>
<path d="M215.685 214.381C215.593 214.626 215.461 214.839 215.29 215.019C215.119 215.194 214.917 215.328 214.685 215.42C214.456 215.512 214.206 215.558 213.934 215.558C213.522 215.558 213.165 215.469 212.862 215.289C212.564 215.104 212.331 214.846 212.164 214.512C212.002 214.179 211.921 213.782 211.921 213.321C211.921 212.861 212.002 212.464 212.164 212.13C212.331 211.797 212.564 211.54 212.862 211.36C213.165 211.176 213.518 211.084 213.921 211.084C214.202 211.084 214.452 211.123 214.671 211.202C214.891 211.277 215.077 211.391 215.231 211.545C215.389 211.694 215.514 211.878 215.606 212.097L215.086 212.341C214.989 212.091 214.849 211.902 214.665 211.775C214.485 211.643 214.25 211.577 213.961 211.577C213.667 211.577 213.408 211.648 213.184 211.788C212.961 211.924 212.785 212.121 212.658 212.38C212.535 212.639 212.474 212.953 212.474 213.321C212.474 213.685 212.533 213.999 212.651 214.262C212.77 214.521 212.939 214.721 213.158 214.861C213.377 214.997 213.636 215.065 213.934 215.065C214.224 215.065 214.476 214.993 214.691 214.848C214.906 214.699 215.062 214.477 215.158 214.183L215.685 214.381ZM217.097 210.689V214.657C217.097 214.824 217.127 214.94 217.189 215.006C217.25 215.067 217.349 215.098 217.485 215.098C217.573 215.098 217.645 215.091 217.702 215.078C217.759 215.065 217.836 215.041 217.932 215.006L217.847 215.466C217.776 215.497 217.7 215.519 217.616 215.532C217.533 215.55 217.447 215.558 217.36 215.558C217.092 215.558 216.893 215.486 216.761 215.341C216.634 215.197 216.57 214.975 216.57 214.677V210.689H217.097ZM219.983 215.558C219.672 215.558 219.393 215.49 219.147 215.354C218.906 215.219 218.717 215.023 218.581 214.769C218.445 214.51 218.377 214.203 218.377 213.848C218.377 213.492 218.445 213.187 218.581 212.933C218.717 212.674 218.904 212.477 219.141 212.341C219.378 212.205 219.647 212.137 219.95 212.137C220.257 212.137 220.518 212.203 220.733 212.334C220.953 212.466 221.119 212.646 221.233 212.874C221.347 213.097 221.404 213.35 221.404 213.63C221.404 213.705 221.402 213.773 221.398 213.834C221.393 213.896 221.387 213.951 221.378 213.999H218.72V213.532H221.148L220.878 213.584C220.878 213.269 220.79 213.025 220.615 212.854C220.444 212.683 220.218 212.597 219.937 212.597C219.722 212.597 219.536 212.648 219.378 212.749C219.224 212.845 219.103 212.988 219.016 213.176C218.932 213.361 218.891 213.584 218.891 213.848C218.891 214.106 218.935 214.33 219.022 214.519C219.11 214.707 219.233 214.852 219.391 214.953C219.553 215.05 219.746 215.098 219.97 215.098C220.211 215.098 220.406 215.052 220.556 214.96C220.709 214.868 220.832 214.743 220.924 214.585L221.339 214.828C221.255 214.977 221.148 215.107 221.016 215.216C220.889 215.326 220.738 215.412 220.562 215.473C220.391 215.53 220.198 215.558 219.983 215.558ZM224.327 213.367C224.327 213.122 224.261 212.933 224.13 212.801C223.998 212.665 223.812 212.597 223.57 212.597C223.342 212.597 223.149 212.648 222.991 212.749C222.833 212.845 222.717 213.003 222.642 213.223L222.215 212.959C222.302 212.714 222.465 212.516 222.702 212.367C222.939 212.214 223.232 212.137 223.583 212.137C223.82 212.137 224.035 212.178 224.228 212.262C224.421 212.341 224.573 212.464 224.682 212.63C224.796 212.793 224.853 213.003 224.853 213.262V214.854C224.853 215.012 224.937 215.091 225.103 215.091C225.187 215.091 225.268 215.08 225.347 215.058L225.321 215.473C225.233 215.517 225.119 215.539 224.978 215.539C224.851 215.539 224.737 215.515 224.636 215.466C224.535 215.418 224.456 215.346 224.399 215.249C224.342 215.148 224.314 215.023 224.314 214.874V214.808L224.445 214.828C224.393 214.999 224.303 215.14 224.176 215.249C224.048 215.354 223.906 215.433 223.748 215.486C223.59 215.534 223.434 215.558 223.281 215.558C223.088 215.558 222.908 215.526 222.741 215.46C222.574 215.394 222.441 215.295 222.34 215.164C222.243 215.028 222.195 214.861 222.195 214.664C222.195 214.418 222.276 214.216 222.438 214.058C222.605 213.896 222.835 213.786 223.129 213.729L224.432 213.473V213.907L223.373 214.124C223.158 214.168 222.998 214.229 222.892 214.308C222.787 214.387 222.735 214.497 222.735 214.637C222.735 214.773 222.787 214.885 222.892 214.973C223.002 215.056 223.156 215.098 223.353 215.098C223.48 215.098 223.601 215.083 223.715 215.052C223.833 215.017 223.939 214.966 224.031 214.9C224.123 214.83 224.195 214.745 224.248 214.644C224.301 214.539 224.327 214.416 224.327 214.275V213.367ZM226.133 215.493V212.203H226.593L226.639 212.94L226.554 212.867C226.624 212.692 226.718 212.551 226.837 212.446C226.955 212.336 227.091 212.257 227.245 212.209C227.403 212.161 227.565 212.137 227.732 212.137C227.968 212.137 228.183 212.183 228.376 212.275C228.569 212.363 228.723 212.499 228.837 212.683C228.956 212.867 229.015 213.102 229.015 213.387V215.493H228.488V213.571C228.488 213.207 228.409 212.955 228.251 212.815C228.098 212.67 227.907 212.597 227.679 212.597C227.521 212.597 227.363 212.635 227.205 212.709C227.047 212.784 226.916 212.904 226.81 213.071C226.709 213.238 226.659 213.462 226.659 213.742V215.493H226.133ZM230.47 211.571C230.351 211.571 230.255 211.536 230.18 211.466C230.11 211.391 230.075 211.294 230.075 211.176C230.075 211.058 230.11 210.963 230.18 210.893C230.255 210.819 230.351 210.781 230.47 210.781C230.588 210.781 230.683 210.819 230.753 210.893C230.827 210.963 230.865 211.058 230.865 211.176C230.865 211.294 230.827 211.391 230.753 211.466C230.683 211.536 230.588 211.571 230.47 211.571ZM230.733 212.203V215.493H230.207V212.203H230.733ZM231.955 215.493V212.203H232.415L232.461 212.94L232.376 212.867C232.446 212.692 232.54 212.551 232.659 212.446C232.777 212.336 232.913 212.257 233.067 212.209C233.225 212.161 233.387 212.137 233.554 212.137C233.79 212.137 234.005 212.183 234.198 212.275C234.391 212.363 234.545 212.499 234.659 212.683C234.777 212.867 234.837 213.102 234.837 213.387V215.493H234.31V213.571C234.31 213.207 234.231 212.955 234.073 212.815C233.92 212.67 233.729 212.597 233.501 212.597C233.343 212.597 233.185 212.635 233.027 212.709C232.869 212.784 232.738 212.904 232.632 213.071C232.531 213.238 232.481 213.462 232.481 213.742V215.493H231.955ZM238.799 211.597L238.917 212.064C238.913 212.064 238.906 212.064 238.898 212.064C238.889 212.064 238.88 212.064 238.871 212.064C238.656 212.064 238.49 212.108 238.371 212.196C238.257 212.279 238.2 212.415 238.2 212.604L237.878 212.439C237.878 212.268 237.917 212.119 237.996 211.992C238.075 211.865 238.183 211.768 238.319 211.702C238.455 211.632 238.604 211.597 238.766 211.597C238.77 211.597 238.775 211.597 238.779 211.597C238.788 211.597 238.795 211.597 238.799 211.597ZM237.799 215.072C238.11 215.072 238.354 215.144 238.529 215.289C238.705 215.429 238.792 215.618 238.792 215.855C238.792 216.07 238.72 216.256 238.575 216.414C238.435 216.572 238.244 216.692 238.003 216.776C237.766 216.864 237.498 216.907 237.2 216.907C236.682 216.907 236.294 216.82 236.035 216.644C235.781 216.469 235.654 216.258 235.654 216.013C235.654 215.837 235.711 215.679 235.825 215.539C235.943 215.403 236.141 215.326 236.417 215.308L236.371 215.407C236.222 215.368 236.094 215.302 235.989 215.21C235.888 215.113 235.838 214.975 235.838 214.795C235.838 214.615 235.904 214.462 236.035 214.335C236.171 214.203 236.371 214.122 236.634 214.091L236.983 214.269H236.917C236.702 214.291 236.548 214.346 236.456 214.433C236.369 214.517 236.325 214.609 236.325 214.71C236.325 214.832 236.369 214.925 236.456 214.986C236.548 215.043 236.676 215.072 236.838 215.072H237.799ZM237.193 216.467C237.448 216.467 237.656 216.44 237.818 216.388C237.985 216.335 238.108 216.267 238.187 216.184C238.266 216.1 238.305 216.01 238.305 215.914C238.305 215.795 238.257 215.701 238.161 215.631C238.069 215.561 237.9 215.526 237.654 215.526H236.641C236.5 215.526 236.382 215.561 236.285 215.631C236.189 215.705 236.141 215.806 236.141 215.934C236.141 216.096 236.233 216.225 236.417 216.322C236.606 216.418 236.864 216.467 237.193 216.467ZM237.147 212.137C237.41 212.137 237.643 212.185 237.845 212.282C238.051 212.374 238.211 212.503 238.325 212.67C238.439 212.836 238.496 213.029 238.496 213.249C238.496 213.464 238.439 213.657 238.325 213.828C238.211 213.995 238.051 214.126 237.845 214.223C237.643 214.315 237.41 214.361 237.147 214.361C236.713 214.361 236.38 214.258 236.147 214.052C235.915 213.841 235.798 213.573 235.798 213.249C235.798 213.029 235.855 212.836 235.969 212.67C236.088 212.503 236.248 212.374 236.45 212.282C236.652 212.185 236.884 212.137 237.147 212.137ZM237.147 212.564C236.919 212.564 236.728 212.628 236.575 212.755C236.421 212.878 236.344 213.043 236.344 213.249C236.344 213.451 236.421 213.615 236.575 213.742C236.728 213.87 236.919 213.933 237.147 213.933C237.375 213.933 237.566 213.87 237.72 213.742C237.873 213.615 237.95 213.451 237.95 213.249C237.95 213.043 237.873 212.878 237.72 212.755C237.566 212.628 237.375 212.564 237.147 212.564Z" fill="#181441" fill-opacity="0.55"/>
</svg>
