<svg width="50" height="50" viewBox="0 0 50 50" fill="none" xmlns="http://www.w3.org/2000/svg">
<circle cx="25" cy="25" r="24.1683" fill="#495DE2" fill-opacity="0.2"/>
<path d="M26.3595 16.1786L34.335 24.1541C34.4559 24.275 34.5417 24.4059 34.5924 24.5469C34.6432 24.6879 34.6681 24.8389 34.6673 25C34.6673 25.1612 34.642 25.3122 34.5912 25.4532C34.5405 25.5942 34.4551 25.7251 34.335 25.8459L26.3595 33.8215C26.138 34.043 25.8608 34.1586 25.5281 34.1683C25.1954 34.1779 24.9086 34.0623 24.6677 33.8215C24.426 33.5999 24.3 33.3228 24.2895 32.9901C24.279 32.6573 24.395 32.3705 24.6375 32.1297L30.5587 26.2084L17.0547 26.2084C16.7123 26.2084 16.4251 26.0924 16.1931 25.8604C15.9611 25.6284 15.8455 25.3416 15.8463 25C15.8463 24.6577 15.9619 24.3705 16.1931 24.1384C16.4243 23.9064 16.7115 23.7908 17.0547 23.7916L30.5587 23.7916L24.6375 17.8704C24.416 17.6489 24.3 17.3669 24.2895 17.0245C24.279 16.6821 24.395 16.4002 24.6375 16.1786C24.8591 15.9369 25.141 15.8161 25.4834 15.8161C25.8258 15.8161 26.1178 15.9369 26.3595 16.1786Z" fill="#495DE2"/>
</svg>
