<svg width="100" height="100" viewBox="0 0 100 100" fill="none" xmlns="http://www.w3.org/2000/svg">
<g id="healthicons:yes">
<path id="Vector" fill-rule="evenodd" clip-rule="evenodd" d="M49.9999 91.6668C73.0124 91.6668 91.6666 73.0127 91.6666 50.0002C91.6666 26.9877 73.0124 8.3335 49.9999 8.3335C26.9874 8.3335 8.33325 26.9877 8.33325 50.0002C8.33325 73.0127 26.9874 91.6668 49.9999 91.6668ZM72.3791 36.8127C72.574 36.6119 72.7265 36.3738 72.8274 36.1128C72.9283 35.8518 72.9756 35.5731 72.9664 35.2934C72.9573 35.0137 72.8919 34.7387 72.7741 34.4848C72.6563 34.231 72.4886 34.0034 72.2809 33.8158C72.0733 33.6282 71.83 33.4843 71.5655 33.3928C71.3011 33.3013 71.0208 33.264 70.7416 33.2831C70.4624 33.3023 70.19 33.3775 69.9405 33.5043C69.691 33.631 69.4696 33.8068 69.2895 34.021L44.3333 61.5981L30.6041 48.4918C30.2046 48.11 29.6698 47.9026 29.1174 47.9151C28.5649 47.9276 28.0401 48.159 27.6583 48.5585C27.2765 48.958 27.069 49.4928 27.0815 50.0452C27.094 50.5977 27.3254 51.1225 27.7249 51.5043L43.0041 66.0877L44.552 67.5668L45.9874 65.9793L72.3791 36.8127Z" fill="#00B787"/>
</g>
</svg>
