<svg width="62" height="62" viewBox="0 0 62 62" fill="none" xmlns="http://www.w3.org/2000/svg">
<g id="tabler:smart-home">
<g id="Group">
<path id="Vector" d="M48.619 22.719L35.1958 12.2785C34.0179 11.3621 32.568 10.8645 31.0755 10.8645C29.583 10.8645 28.1332 11.3621 26.9552 12.2785L13.5295 22.719C12.7226 23.3465 12.0698 24.15 11.6209 25.0683C11.1721 25.9865 10.939 26.9952 10.9395 28.0173V46.1398C10.9395 47.4749 11.4698 48.7553 12.4139 49.6994C13.3579 50.6434 14.6384 51.1738 15.9735 51.1738H46.1775C47.5127 51.1738 48.7931 50.6434 49.7371 49.6994C50.6812 48.7553 51.2116 47.4749 51.2116 46.1398V28.0173C51.2116 25.9458 50.2551 23.9901 48.619 22.719Z" stroke="#181441" stroke-width="2" stroke-linecap="round" stroke-linejoin="round"/>
<path id="Vector_2" d="M41.0679 38.551C35.5054 41.9062 26.4894 41.9062 20.9319 38.551" stroke="#181441" stroke-width="2" stroke-linecap="round" stroke-linejoin="round"/>
</g>
</g>
</svg>
