<svg width="24" height="24" viewBox="0 0 24 24" fill="none" xmlns="http://www.w3.org/2000/svg">
<g id="ic:round-chevron-right">
<path id="Vector" d="M9.29 6.70978C9.1973 6.80229 9.12375 6.91218 9.07357 7.03315C9.02339 7.15413 8.99756 7.28381 8.99756 7.41478C8.99756 7.54575 9.02339 7.67543 9.07357 7.7964C9.12375 7.91738 9.1973 8.02726 9.29 8.11978L13.17 11.9998L9.29 15.8798C9.19742 15.9724 9.12398 16.0823 9.07388 16.2032C9.02377 16.3242 8.99798 16.4538 8.99798 16.5848C8.99798 16.7157 9.02377 16.8454 9.07388 16.9663C9.12398 17.0873 9.19742 17.1972 9.29 17.2898C9.38258 17.3824 9.4925 17.4558 9.61346 17.5059C9.73442 17.556 9.86407 17.5818 9.995 17.5818C10.1259 17.5818 10.2556 17.556 10.3765 17.5059C10.4975 17.4558 10.6074 17.3824 10.7 17.2898L15.29 12.6998C15.3827 12.6073 15.4563 12.4974 15.5064 12.3764C15.5566 12.2554 15.5824 12.1257 15.5824 11.9948C15.5824 11.8638 15.5566 11.7341 15.5064 11.6132C15.4563 11.4922 15.3827 11.3823 15.29 11.2898L10.7 6.69978C10.32 6.31978 9.68 6.31978 9.29 6.70978Z" fill="#6D6D6D" fill-opacity="0.3"/>
</g>
</svg>
