<svg width="16" height="16" viewBox="0 0 16 16" fill="none" xmlns="http://www.w3.org/2000/svg">
<g id="ic:round-report-gmailerrorred">
<path id="Vector" d="M13.8067 5.32L10.6867 2.2C10.56 2.07333 10.3867 2 10.2133 2H5.78667C5.61333 2 5.44 2.07333 5.32 2.19333L2.19333 5.32C2.07333 5.44 2 5.61333 2 5.78667V10.2067C2 10.3867 2.07333 10.5533 2.19333 10.68L5.31333 13.8C5.44 13.9267 5.61333 14 5.78667 14H10.2067C10.3867 14 10.5533 13.9267 10.68 13.8067L13.8 10.6867C13.8621 10.6246 13.9112 10.5508 13.9444 10.4695C13.9776 10.3882 13.9942 10.3011 13.9933 10.2133V5.78667C14 5.61333 13.9267 5.44 13.8067 5.32ZM12.6667 9.93333L9.93333 12.6667H6.06667L3.33333 9.93333V6.06667L6.06667 3.33333H9.93333L12.6667 6.06667V9.93333Z" fill="#FF0404"/>
<path id="Vector_2" d="M8.00016 11.3333C8.36835 11.3333 8.66683 11.0349 8.66683 10.6667C8.66683 10.2985 8.36835 10 8.00016 10C7.63197 10 7.3335 10.2985 7.3335 10.6667C7.3335 11.0349 7.63197 11.3333 8.00016 11.3333Z" fill="#FF0404"/>
<path id="Vector_3" d="M8.00016 4.6665C7.6335 4.6665 7.3335 4.9665 7.3335 5.33317V8.6665C7.3335 9.03317 7.6335 9.33317 8.00016 9.33317C8.36683 9.33317 8.66683 9.03317 8.66683 8.6665V5.33317C8.66683 4.9665 8.36683 4.6665 8.00016 4.6665Z" fill="#FF0404"/>
</g>
</svg>
