<svg width="24" height="24" viewBox="0 0 24 24" fill="none" xmlns="http://www.w3.org/2000/svg">
<g id="ic:round-log-out">
<path id="Vector" d="M6 2H15C15.5304 2 16.0391 2.21071 16.4142 2.58579C16.7893 2.96086 17 3.46957 17 4V5C17 5.26522 16.8946 5.51957 16.7071 5.70711C16.5196 5.89464 16.2652 6 16 6C15.7348 6 15.4804 5.89464 15.2929 5.70711C15.1054 5.51957 15 5.26522 15 5V4H6V20H15V19C15 18.7348 15.1054 18.4804 15.2929 18.2929C15.4804 18.1054 15.7348 18 16 18C16.2652 18 16.5196 18.1054 16.7071 18.2929C16.8946 18.4804 17 18.7348 17 19V20C17 20.5304 16.7893 21.0391 16.4142 21.4142C16.0391 21.7893 15.5304 22 15 22H6C5.46957 22 4.96086 21.7893 4.58579 21.4142C4.21071 21.0391 4 20.5304 4 20V4C4 3.46957 4.21071 2.96086 4.58579 2.58579C4.96086 2.21071 5.46957 2 6 2Z" fill="#767676"/>
<path id="Vector_2" d="M16.795 16.2951C17.185 16.6851 17.815 16.6851 18.205 16.2951L21.793 12.7071C21.9805 12.5196 22.0858 12.2653 22.0858 12.0001C22.0858 11.735 21.9805 11.4807 21.793 11.2931L18.205 7.70513C18.0149 7.53332 17.7661 7.44112 17.5099 7.44758C17.2538 7.45405 17.0099 7.55869 16.8287 7.73987C16.6476 7.92104 16.5429 8.16491 16.5365 8.42106C16.53 8.6772 16.6222 8.92604 16.794 9.11613L18.67 11.0001H10C9.73478 11.0001 9.48043 11.1055 9.29289 11.293C9.10536 11.4806 9 11.7349 9 12.0001C9 12.2653 9.10536 12.5197 9.29289 12.7072C9.48043 12.8948 9.73478 13.0001 10 13.0001H18.67L16.794 14.8841C16.6073 15.0715 16.5026 15.3253 16.5028 15.5898C16.503 15.8543 16.6081 16.108 16.795 16.2951Z" fill="#767676"/>
</g>
</svg>
