<svg width="24" height="24" viewBox="0 0 24 24" fill="none" xmlns="http://www.w3.org/2000/svg">
<g id="icon-park-outline:setting-two">
<g id="Group">
<path id="Vector" d="M9.142 21.5853C7.48803 21.0915 5.99009 20.1779 4.794 18.9333C5.17884 18.4769 5.41874 17.916 5.483 17.3225C5.54726 16.7289 5.43296 16.1297 5.15472 15.6014C4.87649 15.0732 4.44698 14.64 3.92115 14.3573C3.39531 14.0746 2.79708 13.9551 2.203 14.0143C2.06766 13.3514 1.99965 12.6765 2 11.9998C2 10.9548 2.16 9.94683 2.458 8.99983H2.5C3.00988 8.99999 3.51139 8.8702 3.95717 8.6227C4.40295 8.37521 4.7783 8.01818 5.04777 7.58532C5.31724 7.15247 5.47194 6.65808 5.49726 6.14883C5.52259 5.63958 5.4177 5.13228 5.1925 4.67483C6.3648 3.58324 7.78253 2.78974 9.326 2.36133C9.57719 2.85453 9.95992 3.26863 10.4319 3.5578C10.9038 3.84698 11.4465 3.99996 12 3.99983C12.5535 3.99996 13.0962 3.84698 13.5681 3.5578C14.0401 3.26863 14.4228 2.85453 14.674 2.36133C16.2175 2.78974 17.6352 3.58324 18.8075 4.67483C18.5807 5.13548 18.4759 5.64665 18.5031 6.15941C18.5304 6.67216 18.6888 7.16933 18.9632 7.60334C19.2376 8.03735 19.6188 8.39366 20.0703 8.63817C20.5219 8.88268 21.0286 9.00721 21.542 8.99983C21.8465 9.97069 22.0009 10.9823 22 11.9998C22 12.6898 21.93 13.3638 21.797 14.0148C21.2029 13.9556 20.6047 14.0751 20.0789 14.3578C19.553 14.6405 19.1235 15.0737 18.8453 15.6019C18.567 16.1302 18.4527 16.7294 18.517 17.323C18.5813 17.9165 18.8212 18.4774 19.206 18.9338C18.0099 20.1782 16.5119 21.0916 14.858 21.5853C14.6638 20.98 14.2824 20.4519 13.7687 20.0773C13.2551 19.7027 12.6357 19.5008 12 19.5008C11.3643 19.5008 10.7449 19.7027 10.2313 20.0773C9.71765 20.4519 9.33623 20.98 9.142 21.5853Z" stroke="#767676" stroke-width="2" stroke-linejoin="round"/>
<path id="Vector_2" d="M12 15.5C12.4596 15.5 12.9148 15.4095 13.3394 15.2336C13.764 15.0577 14.1499 14.7999 14.4749 14.4749C14.7999 14.1499 15.0577 13.764 15.2336 13.3394C15.4095 12.9148 15.5 12.4596 15.5 12C15.5 11.5404 15.4095 11.0852 15.2336 10.6606C15.0577 10.236 14.7999 9.85013 14.4749 9.52513C14.1499 9.20012 13.764 8.94231 13.3394 8.76642C12.9148 8.59053 12.4596 8.5 12 8.5C11.0717 8.5 10.1815 8.86875 9.52513 9.52513C8.86875 10.1815 8.5 11.0717 8.5 12C8.5 12.9283 8.86875 13.8185 9.52513 14.4749C10.1815 15.1313 11.0717 15.5 12 15.5Z" stroke="#767676" stroke-width="2" stroke-linejoin="round"/>
</g>
</g>
</svg>
