<svg width="16" height="16" viewBox="0 0 16 16" fill="none" xmlns="http://www.w3.org/2000/svg">
<g id="material-symbols:share-outline">
<path id="Vector" d="M12 14.6668C11.4444 14.6668 10.9722 14.4724 10.5833 14.0835C10.1944 13.6946 10 13.2224 10 12.6668C10 12.5891 10.0056 12.5084 10.0167 12.4248C10.0278 12.3413 10.0444 12.2664 10.0667 12.2002L5.36667 9.46683C5.17778 9.6335 4.96667 9.76416 4.73333 9.85883C4.5 9.9535 4.25556 10.0006 4 10.0002C3.44444 10.0002 2.97222 9.80572 2.58333 9.41683C2.19444 9.02794 2 8.55572 2 8.00016C2 7.44461 2.19444 6.97238 2.58333 6.5835C2.97222 6.19461 3.44444 6.00016 4 6.00016C4.25556 6.00016 4.5 6.0475 4.73333 6.14216C4.96667 6.23683 5.17778 6.36727 5.36667 6.5335L10.0667 3.80016C10.0444 3.7335 10.0278 3.65861 10.0167 3.5755C10.0056 3.49238 10 3.41172 10 3.3335C10 2.77794 10.1944 2.30572 10.5833 1.91683C10.9722 1.52794 11.4444 1.3335 12 1.3335C12.5556 1.3335 13.0278 1.52794 13.4167 1.91683C13.8056 2.30572 14 2.77794 14 3.3335C14 3.88905 13.8056 4.36127 13.4167 4.75016C13.0278 5.13905 12.5556 5.3335 12 5.3335C11.7444 5.3335 11.5 5.28638 11.2667 5.19216C11.0333 5.09794 10.8222 4.96727 10.6333 4.80016L5.93333 7.5335C5.95556 7.60016 5.97222 7.67527 5.98333 7.75883C5.99444 7.84238 6 7.92283 6 8.00016C6 8.07794 5.99444 8.15861 5.98333 8.24216C5.97222 8.32572 5.95556 8.40061 5.93333 8.46683L10.6333 11.2002C10.8222 11.0335 11.0333 10.9031 11.2667 10.8088C11.5 10.7146 11.7444 10.6673 12 10.6668C12.5556 10.6668 13.0278 10.8613 13.4167 11.2502C13.8056 11.6391 14 12.1113 14 12.6668C14 13.2224 13.8056 13.6946 13.4167 14.0835C13.0278 14.4724 12.5556 14.6668 12 14.6668ZM12 4.00016C12.1889 4.00016 12.3473 3.93616 12.4753 3.80816C12.6033 3.68016 12.6671 3.52194 12.6667 3.3335C12.6667 3.14461 12.6027 2.98616 12.4747 2.85816C12.3467 2.73016 12.1884 2.66638 12 2.66683C11.8111 2.66683 11.6527 2.73083 11.5247 2.85883C11.3967 2.98683 11.3329 3.14505 11.3333 3.3335C11.3333 3.52238 11.3973 3.68083 11.5253 3.80883C11.6533 3.93683 11.8116 4.00061 12 4.00016ZM4 8.66683C4.18889 8.66683 4.34733 8.60283 4.47533 8.47483C4.60333 8.34683 4.66711 8.18861 4.66667 8.00016C4.66667 7.81127 4.60267 7.65283 4.47467 7.52483C4.34667 7.39683 4.18844 7.33305 4 7.3335C3.81111 7.3335 3.65267 7.3975 3.52467 7.5255C3.39667 7.6535 3.33289 7.81172 3.33333 8.00016C3.33333 8.18905 3.39733 8.3475 3.52533 8.4755C3.65333 8.6035 3.81156 8.66727 4 8.66683ZM12 13.3335C12.1889 13.3335 12.3473 13.2695 12.4753 13.1415C12.6033 13.0135 12.6671 12.8553 12.6667 12.6668C12.6667 12.4779 12.6027 12.3195 12.4747 12.1915C12.3467 12.0635 12.1884 11.9997 12 12.0002C11.8111 12.0002 11.6527 12.0642 11.5247 12.1922C11.3967 12.3202 11.3329 12.4784 11.3333 12.6668C11.3333 12.8557 11.3973 13.0142 11.5253 13.1422C11.6533 13.2702 11.8116 13.3339 12 13.3335Z" fill="#2C51B1"/>
</g>
</svg>
