<svg width="14" height="14" viewBox="0 0 14 14" fill="none" xmlns="http://www.w3.org/2000/svg">
<g id="material-symbols:arrow-back-ios-new-rounded">
<path id="Vector" d="M5.17707 1.69144L10.0917 6.59144C10.15 6.64977 10.1912 6.71297 10.2153 6.78102C10.2398 6.84908 10.2521 6.92199 10.2521 6.99977C10.2521 7.07755 10.2398 7.15047 10.2153 7.21852C10.1912 7.28658 10.15 7.34977 10.0917 7.4081L5.17708 12.3227C5.04097 12.4588 4.87083 12.5269 4.66666 12.5269C4.46249 12.5269 4.28749 12.4539 4.14166 12.3081C3.99583 12.1623 3.92291 11.9921 3.92291 11.7977C3.92291 11.6032 3.99583 11.4331 4.14166 11.2873L8.42916 6.99977L4.14166 2.71227C4.00555 2.57616 3.93749 2.40855 3.93749 2.20944C3.93749 2.00994 4.01041 1.83727 4.15624 1.69144C4.30208 1.5456 4.47221 1.47269 4.66666 1.47269C4.8611 1.47269 5.03124 1.5456 5.17707 1.69144Z" fill="#495DE2"/>
</g>
</svg>
