<svg width="29" height="28" viewBox="0 0 29 28" fill="none" xmlns="http://www.w3.org/2000/svg">
<g id="material-symbols:electric-bolt-outline-rounded">
<path id="Vector" d="M13.7889 16.9167L6.87637 16.0417C6.39026 15.9833 6.07409 15.7208 5.92787 15.2542C5.78165 14.7875 5.88393 14.3889 6.23471 14.0583L18.1639 2.625C18.2611 2.52778 18.3778 2.45466 18.5139 2.40566C18.65 2.35666 18.8347 2.33255 19.068 2.33333C19.4569 2.33333 19.7536 2.49861 19.9582 2.82916C20.1628 3.15972 20.1674 3.5 19.9722 3.85L16.1222 11.0833L23.0347 11.9583C23.5208 12.0167 23.837 12.2792 23.9832 12.7458C24.1294 13.2125 24.0271 13.6111 23.6764 13.9417L11.7472 25.375C11.65 25.4722 11.5333 25.5453 11.3972 25.5943C11.2611 25.6433 11.0764 25.6674 10.843 25.6667C10.4542 25.6667 10.1574 25.5014 9.95287 25.1708C9.74832 24.8403 9.74365 24.5 9.93887 24.15L13.7889 16.9167ZM15.5972 18.4625L20.293 13.9708L12.4472 12.9792L14.2847 9.56667L9.61804 14.0583L17.4347 15.0208L15.5972 18.4625Z" fill="#CA9306"/>
</g>
</svg>
