<svg width="25" height="24" viewBox="0 0 25 24" fill="none" xmlns="http://www.w3.org/2000/svg">
<g id="material-symbols:chevron-right-rounded">
<path id="Vector" d="M9.65555 17.3C9.47222 17.1167 9.38055 16.8833 9.38055 16.6C9.38055 16.3167 9.47222 16.0833 9.65555 15.9L13.5556 12L9.65555 8.09999C9.47222 7.91665 9.38055 7.68332 9.38055 7.39999C9.38055 7.11665 9.47222 6.88332 9.65555 6.69999C9.83889 6.51665 10.0722 6.42499 10.3556 6.42499C10.6389 6.42499 10.8722 6.51665 11.0556 6.69999L15.6556 11.3C15.7556 11.4 15.8266 11.5083 15.8686 11.625C15.9099 11.7417 15.9306 11.8667 15.9306 12C15.9306 12.1333 15.9099 12.2583 15.8686 12.375C15.8266 12.4917 15.7556 12.6 15.6556 12.7L11.0556 17.3C10.8722 17.4833 10.6389 17.575 10.3556 17.575C10.0722 17.575 9.83889 17.4833 9.65555 17.3Z" fill="#495DE2"/>
</g>
</svg>
