<svg width="16" height="16" viewBox="0 0 16 16" fill="none" xmlns="http://www.w3.org/2000/svg">
<g id="material-symbols:phone-in-talk-outline-rounded">
<path id="Vector" d="M13.3333 8C13.1556 8 12.9971 7.936 12.858 7.808C12.7189 7.68 12.6387 7.52178 12.6173 7.33333C12.4729 6.3 12.0367 5.41933 11.3087 4.69133C10.5807 3.96333 9.7 3.52733 8.66667 3.38333C8.47778 3.36111 8.31933 3.28333 8.19133 3.15C8.06333 3.01667 7.99956 2.85556 8 2.66667C8 2.47778 8.06667 2.31933 8.2 2.19133C8.33333 2.06333 8.48889 2.01067 8.66667 2.03333C10.0667 2.18889 11.2611 2.76111 12.25 3.75C13.2389 4.73889 13.8111 5.93333 13.9667 7.33333C13.9889 7.51111 13.936 7.66667 13.808 7.8C13.68 7.93333 13.5218 8 13.3333 8ZM10.55 8C10.4056 8 10.2778 7.95 10.1667 7.85C10.0556 7.75 9.97222 7.61667 9.91667 7.45C9.82778 7.12778 9.65822 6.84156 9.408 6.59133C9.15778 6.34111 8.87178 6.17178 8.55 6.08333C8.38333 6.02778 8.25 5.94444 8.15 5.83333C8.05 5.72222 8 5.58889 8 5.43333C8 5.21111 8.07778 5.03044 8.23333 4.89133C8.38889 4.75222 8.56111 4.70511 8.75 4.75C9.37222 4.89444 9.90845 5.19178 10.3587 5.642C10.8089 6.09222 11.106 6.62822 11.25 7.25C11.2944 7.43889 11.2444 7.61111 11.1 7.76667C10.9556 7.92222 10.7722 8 10.55 8ZM13.3 14C11.8667 14 10.4693 13.6804 9.108 13.0413C7.74667 12.4022 6.54111 11.5578 5.49133 10.508C4.44156 9.45822 3.59711 8.25267 2.958 6.89133C2.31889 5.53 1.99956 4.13289 2 2.7C2 2.5 2.06667 2.33333 2.2 2.2C2.33333 2.06667 2.5 2 2.7 2H5.4C5.55556 2 5.69445 2.05 5.81667 2.15C5.93889 2.25 6.01111 2.37778 6.03333 2.53333L6.46667 4.86667C6.48889 5.02222 6.486 5.164 6.458 5.292C6.43 5.42 6.36622 5.53378 6.26667 5.63333L4.66667 7.26667C5.13333 8.06667 5.71667 8.81667 6.41667 9.51667C7.11667 10.2167 7.88889 10.8222 8.73333 11.3333L10.3 9.76667C10.4 9.66667 10.5307 9.59178 10.692 9.542C10.8533 9.49222 11.0116 9.47822 11.1667 9.5L13.4667 9.96667C13.6222 10 13.75 10.0751 13.85 10.192C13.95 10.3089 14 10.4449 14 10.6V13.3C14 13.5 13.9333 13.6667 13.8 13.8C13.6667 13.9333 13.5 14 13.3 14ZM4.03333 6L5.13333 4.9L4.83333 3.33333H3.36667C3.42222 3.78889 3.5 4.23889 3.6 4.68333C3.7 5.12778 3.84445 5.56667 4.03333 6ZM12.6667 12.6333V11.1667L11.1 10.8333L10 11.9333C10.4333 12.1222 10.8722 12.2778 11.3167 12.4C11.7611 12.5222 12.2111 12.6 12.6667 12.6333Z" fill="#FD5308"/>
</g>
</svg>
