<svg width="28" height="28" viewBox="0 0 28 28" fill="none" xmlns="http://www.w3.org/2000/svg">
<g id="material-symbols:compare-arrows-rounded">
<path id="Vector" d="M17.85 15.5167L13.65 11.3167C13.5334 11.2 13.4509 11.0736 13.4027 10.9375C13.3545 10.8014 13.33 10.6556 13.3292 10.5C13.3292 10.3445 13.3537 10.1986 13.4027 10.0625C13.4517 9.92642 13.5342 9.80003 13.65 9.68336L17.85 5.48336C18.0834 5.25003 18.3556 5.13336 18.6667 5.13336C18.9778 5.13336 19.25 5.25003 19.4834 5.48336C19.7167 5.71669 19.8334 5.99397 19.8334 6.3152C19.8334 6.63642 19.7167 6.91331 19.4834 7.14586L17.2959 9.33336H24.5C24.8306 9.33336 25.1079 9.44536 25.3319 9.66936C25.5559 9.89336 25.6675 10.1703 25.6667 10.5C25.6667 10.8306 25.5547 11.1079 25.3307 11.3319C25.1067 11.5559 24.8298 11.6675 24.5 11.6667H17.2959L19.4834 13.8542C19.7167 14.0875 19.8334 14.3598 19.8334 14.6709C19.8334 14.982 19.7167 15.2542 19.4834 15.4875C19.25 15.7209 18.9829 15.8473 18.6819 15.8667C18.3809 15.8861 18.1036 15.7695 17.85 15.5167ZM8.51671 22.4875C8.75004 22.7209 9.02227 22.8426 9.33338 22.8527C9.64449 22.8628 9.91671 22.7508 10.15 22.5167L14.35 18.3167C14.4667 18.2 14.5492 18.0736 14.5974 17.9375C14.6456 17.8014 14.6701 17.6556 14.6709 17.5C14.6709 17.3445 14.6464 17.1986 14.5974 17.0625C14.5484 16.9264 14.4659 16.8 14.35 16.6834L10.15 12.4834C9.91671 12.25 9.64449 12.1334 9.33338 12.1334C9.02227 12.1334 8.75004 12.25 8.51671 12.4834C8.28338 12.7167 8.16671 12.994 8.16671 13.3152C8.16671 13.6364 8.28338 13.9133 8.51671 14.1459L10.7042 16.3334H3.50004C3.16949 16.3334 2.89221 16.4454 2.66821 16.6694C2.44421 16.8934 2.3326 17.1703 2.33338 17.5C2.33338 17.8306 2.44538 18.1079 2.66938 18.3319C2.89338 18.5559 3.17027 18.6675 3.50004 18.6667H10.7042L8.51671 20.8542C8.28338 21.0875 8.16671 21.3598 8.16671 21.6709C8.16671 21.982 8.28338 22.2542 8.51671 22.4875Z" fill="#B8B8B8"/>
</g>
</svg>
