<svg width="29" height="28" viewBox="0 0 29 28" fill="none" xmlns="http://www.w3.org/2000/svg">
<g id="material-symbols:cleaning-services">
<path id="Vector" d="M4.45557 26.8334V18.6667C4.45557 17.0528 5.02451 15.6769 6.1624 14.539C7.30029 13.4011 8.67579 12.8326 10.2889 12.8334H11.4556V3.50002C11.4556 2.85836 11.6842 2.30886 12.1416 1.85152C12.5989 1.39419 13.148 1.16591 13.7889 1.16669H16.1222C16.7639 1.16669 17.3134 1.39536 17.7707 1.85269C18.2281 2.31002 18.4563 2.85913 18.4556 3.50002V12.8334H19.6222C21.2361 12.8334 22.612 13.4023 23.7499 14.5402C24.8878 15.6781 25.4563 17.0536 25.4556 18.6667V26.8334H4.45557ZM6.7889 24.5H9.12223V21C9.12223 20.6695 9.23423 20.3922 9.45823 20.1682C9.68223 19.9442 9.95912 19.8326 10.2889 19.8334C10.6195 19.8334 10.8967 19.9454 11.1207 20.1694C11.3447 20.3934 11.4563 20.6702 11.4556 21V24.5H13.7889V21C13.7889 20.6695 13.9009 20.3922 14.1249 20.1682C14.3489 19.9442 14.6258 19.8326 14.9556 19.8334C15.2861 19.8334 15.5634 19.9454 15.7874 20.1694C16.0114 20.3934 16.123 20.6702 16.1222 21V24.5H18.4556V21C18.4556 20.6695 18.5676 20.3922 18.7916 20.1682C19.0156 19.9442 19.2925 19.8326 19.6222 19.8334C19.9528 19.8334 20.2301 19.9454 20.4541 20.1694C20.6781 20.3934 20.7897 20.6702 20.7889 21V24.5H23.1222V18.6667C23.1222 17.6945 22.782 16.8681 22.1014 16.1875C21.4208 15.507 20.5945 15.1667 19.6222 15.1667H10.2889C9.31668 15.1667 8.49029 15.507 7.80973 16.1875C7.12918 16.8681 6.7889 17.6945 6.7889 18.6667V24.5ZM16.1222 12.8334V3.50002H13.7889V12.8334H16.1222Z" fill="#604E11"/>
</g>
</svg>
