<svg width="33" height="32" viewBox="0 0 33 32" fill="none" xmlns="http://www.w3.org/2000/svg">
<g id="material-symbols:dry-cleaning-outline">
<path id="Vector" d="M10.2889 29.6667V21.6667H8.15557C7.26668 21.6667 6.51112 21.3556 5.8889 20.7333C5.26668 20.1111 4.95557 19.3556 4.95557 18.4667C4.95557 17.8222 5.13334 17.228 5.4889 16.684C5.84446 16.14 6.31112 15.7342 6.8889 15.4667L15.6222 11.6V10.7333C14.8222 10.4444 14.1778 9.96133 13.6889 9.284C13.2 8.60667 12.9556 7.84533 12.9556 7C12.9556 5.88889 13.3445 4.94444 14.1222 4.16667C14.9 3.38889 15.8445 3 16.9556 3C18.0667 3 19.0111 3.38889 19.7889 4.16667C20.5667 4.94444 20.9556 5.88889 20.9556 7H18.2889C18.2889 6.62222 18.1609 6.30533 17.9049 6.04933C17.6489 5.79333 17.3325 5.66578 16.9556 5.66667C16.5778 5.66667 16.2609 5.79467 16.0049 6.05067C15.7489 6.30667 15.6213 6.62311 15.6222 7C15.6222 7.37778 15.7502 7.69467 16.0062 7.95067C16.2622 8.20667 16.5787 8.33422 16.9556 8.33333C17.3325 8.33244 17.6493 8.46044 17.9062 8.71733C18.1613 8.97156 18.2889 9.288 18.2889 9.66667V11.6L27.0222 15.4667C27.6 15.7333 28.0667 16.1391 28.4222 16.684C28.7778 17.2289 28.9556 17.8231 28.9556 18.4667C28.9556 19.3556 28.6445 20.1111 28.0222 20.7333C27.4 21.3556 26.6445 21.6667 25.7556 21.6667H23.6222V29.6667H10.2889ZM8.15557 19H10.2889V17.6667H23.6222V19H25.7556C25.9111 19 26.0391 18.9444 26.1396 18.8333C26.24 18.7222 26.2898 18.5778 26.2889 18.4C26.2889 18.2889 26.2613 18.1942 26.2062 18.116C26.1511 18.0378 26.0676 17.9769 25.9556 17.9333L16.9556 13.9333L7.95557 17.9333C7.84446 17.9778 7.7609 18.0391 7.7049 18.1173C7.6489 18.1956 7.62134 18.2898 7.62223 18.4C7.62223 18.5778 7.67246 18.7222 7.7729 18.8333C7.87334 18.9444 8.0009 19 8.15557 19ZM12.9556 27H20.9556V20.3333H12.9556V27Z" fill="#6563DB"/>
</g>
</svg>
