<svg width="24" height="24" viewBox="0 0 24 24" fill="none" xmlns="http://www.w3.org/2000/svg">
<g id="material-symbols:workspace-premium-outline-rounded">
<path id="Vector" d="M10.925 12.75L12 11.925L13.05 12.75C13.2333 12.9 13.4333 12.904 13.65 12.762C13.8667 12.6207 13.9333 12.4333 13.85 12.2L13.425 10.85L14.625 9.9C14.8083 9.75 14.8627 9.56233 14.788 9.337C14.7127 9.11233 14.5583 9 14.325 9H12.9L12.475 7.675C12.3917 7.44167 12.2333 7.325 12 7.325C11.7667 7.325 11.6083 7.44167 11.525 7.675L11.1 9H9.675C9.44167 9 9.28333 9.11667 9.2 9.35C9.11667 9.58333 9.16667 9.76667 9.35 9.9L10.55 10.85L10.125 12.2C10.0417 12.4333 10.104 12.6207 10.312 12.762C10.5207 12.904 10.725 12.9 10.925 12.75ZM7.325 22.55C6.99167 22.6667 6.68733 22.625 6.412 22.425C6.13733 22.225 6 21.9583 6 21.625V15.275C5.36667 14.575 4.875 13.775 4.525 12.875C4.175 11.975 4 11.0167 4 10C4 7.76667 4.775 5.875 6.325 4.325C7.875 2.775 9.76667 2 12 2C14.2333 2 16.125 2.775 17.675 4.325C19.225 5.875 20 7.76667 20 10C20 11.0167 19.825 11.975 19.475 12.875C19.125 13.775 18.6333 14.575 18 15.275V21.625C18 21.9583 17.8623 22.225 17.587 22.425C17.3123 22.625 17.0083 22.6667 16.675 22.55L12 21L7.325 22.55ZM12 16C13.6667 16 15.0833 15.4167 16.25 14.25C17.4167 13.0833 18 11.6667 18 10C18 8.33333 17.4167 6.91667 16.25 5.75C15.0833 4.58333 13.6667 4 12 4C10.3333 4 8.91667 4.58333 7.75 5.75C6.58333 6.91667 6 8.33333 6 10C6 11.6667 6.58333 13.0833 7.75 14.25C8.91667 15.4167 10.3333 16 12 16ZM8 20.025L12 19L16 20.025V16.925C15.4167 17.2583 14.7877 17.5207 14.113 17.712C13.4377 17.904 12.7333 18 12 18C11.2667 18 10.5623 17.904 9.887 17.712C9.21233 17.5207 8.58333 17.2583 8 16.925V20.025Z" fill="black" fill-opacity="0.5"/>
</g>
</svg>
