<svg width="24" height="24" viewBox="0 0 24 24" fill="none" xmlns="http://www.w3.org/2000/svg">
<g id="material-symbols:chevron-right-rounded">
<path id="Vector" d="M6.7 8.6998C6.88334 8.51647 7.11667 8.4248 7.4 8.4248C7.68333 8.4248 7.91667 8.51647 8.1 8.6998L12 12.5998L15.9 8.6998C16.0833 8.51647 16.3167 8.4248 16.6 8.4248C16.8833 8.4248 17.1167 8.51647 17.3 8.6998C17.4833 8.88314 17.575 9.11647 17.575 9.3998C17.575 9.68314 17.4833 9.91647 17.3 10.0998L12.7 14.6998C12.6 14.7998 12.4917 14.8708 12.375 14.9128C12.2583 14.9541 12.1333 14.9748 12 14.9748C11.8667 14.9748 11.7417 14.9541 11.625 14.9128C11.5083 14.8708 11.4 14.7998 11.3 14.6998L6.7 10.0998C6.51667 9.91647 6.425 9.68314 6.425 9.3998C6.425 9.11647 6.51667 8.88314 6.7 8.6998Z" fill="black"/>
</g>
</svg>
