<svg width="28" height="28" viewBox="0 0 28 28" fill="none" xmlns="http://www.w3.org/2000/svg">
<g id="material-symbols:home-outline-rounded">
<path id="Vector" d="M6.99996 23.7222H10.5V16.7222H17.5V23.7222H21V13.2222L14 7.97225L6.99996 13.2222V23.7222ZM6.99996 26.0556C6.35829 26.0556 5.80879 25.8269 5.35146 25.3696C4.89413 24.9123 4.66585 24.3631 4.66663 23.7222V13.2222C4.66663 12.8528 4.74946 12.5028 4.91513 12.1723C5.08079 11.8417 5.30907 11.5695 5.59996 11.3556L12.6 6.10558C12.8139 5.95003 13.0375 5.83336 13.2708 5.75558C13.5041 5.6778 13.7472 5.63892 14 5.63892C14.2527 5.63892 14.4958 5.6778 14.7291 5.75558C14.9625 5.83336 15.1861 5.95003 15.4 6.10558L22.4 11.3556C22.6916 11.5695 22.9203 11.8417 23.086 12.1723C23.2516 12.5028 23.3341 12.8528 23.3333 13.2222V23.7222C23.3333 24.3639 23.1046 24.9134 22.6473 25.3708C22.19 25.8281 21.6409 26.0564 21 26.0556H15.1666V19.0556H12.8333V26.0556H6.99996Z" fill="#495DE2"/>
</g>
</svg>
