<svg width="24" height="24" viewBox="0 0 24 24" fill="none" xmlns="http://www.w3.org/2000/svg">
<g id="material-symbols:star-rounded">
<path id="Vector" d="M12.516 17.4186L11.9999 17.1078L11.4839 17.4186L7.3404 19.9147C7.33669 19.9108 7.33311 19.9067 7.32964 19.9023L8.4239 15.2019L8.5609 14.6135L8.1037 14.2185L4.44375 11.0565C4.44501 11.0534 4.44621 11.0506 4.44735 11.0481C4.45391 11.0466 4.46159 11.045 4.47045 11.0435L9.28724 10.6214L9.88751 10.5688L10.1215 10.0135L11.9903 5.57814C11.9937 5.57687 11.996 5.57618 11.9972 5.57583L11.9994 5.57529L11.9998 5.5752L11.9998 5.5752C11.9998 5.5752 11.9998 5.5752 11.9999 5.5752C12.0002 5.5752 12.0001 5.5752 12.0001 5.5752C12.0001 5.5752 12.0003 5.57522 12.0007 5.5753C12.0012 5.5754 12.0021 5.5756 12.0034 5.57596C12.0046 5.5763 12.0067 5.57692 12.0095 5.57795L13.8784 10.0135L14.1124 10.5688L14.7127 10.6214L19.5294 11.0435C19.5383 11.045 19.546 11.0466 19.5525 11.0481C19.5537 11.0506 19.5549 11.0534 19.5561 11.0565L15.8962 14.2185L15.439 14.6135L15.576 15.2019L16.6703 19.9023C16.6668 19.9067 16.6632 19.9108 16.6595 19.9147L12.516 17.4186Z" stroke="#767676" stroke-width="2"/>
</g>
</svg>
