<svg width="24" height="24" viewBox="0 0 24 24" fill="none" xmlns="http://www.w3.org/2000/svg">
<g id="mingcute:diamond-2-line" clip-path="url(#clip0_313_5026)">
<g id="Group">
<path id="Vector" fill-rule="evenodd" clip-rule="evenodd" d="M17 3C17.2817 2.99999 17.5602 3.05949 17.8173 3.1746C18.0745 3.28972 18.3044 3.45786 18.492 3.668L18.6 3.8L22.304 8.739C22.5657 9.08793 22.7062 9.51285 22.704 9.94902C22.7018 10.3852 22.5571 10.8087 22.292 11.155L22.184 11.285L12.925 21.469C12.704 21.7122 12.3962 21.8586 12.0682 21.8765C11.7401 21.8945 11.4181 21.7826 11.172 21.565L11.075 21.469L1.81597 11.284C1.5225 10.9612 1.34265 10.5512 1.30383 10.1166C1.26502 9.68208 1.36936 9.24674 1.60097 8.877L1.69597 8.739L5.39997 3.8C5.56901 3.57454 5.78379 3.38734 6.03023 3.25068C6.27667 3.11402 6.5492 3.03098 6.82997 3.007L6.99997 3H17ZM14.523 11H9.47697L12 17.307L14.523 11ZM19.739 11H16.677L14.271 17.015L19.739 11ZM7.32297 11H4.26097L9.72897 17.015L7.32297 11ZM12.382 5H11.618L9.61797 9H14.382L12.382 5ZM17 5H14.618L16.618 9H20L17 5ZM9.38197 5H6.99997L3.99997 9H7.38197L9.38197 5Z" fill="#E9A847"/>
</g>
</g>
<defs>
<clipPath id="clip0_313_5026">
<rect width="24" height="24" fill="white"/>
</clipPath>
</defs>
</svg>
