<svg width="29" height="28" viewBox="0 0 29 28" fill="none" xmlns="http://www.w3.org/2000/svg">
<g id="mingcute:paint-2-line" clip-path="url(#clip0_313_5007)">
<g id="Group">
<path id="Vector" fill-rule="evenodd" clip-rule="evenodd" d="M4.45557 5.83331C4.45557 4.90506 4.82432 4.01482 5.48069 3.35844C6.13707 2.70206 7.02731 2.33331 7.95557 2.33331H19.6222C20.5505 2.33331 21.4407 2.70206 22.0971 3.35844C22.7535 4.01482 23.1222 4.90506 23.1222 5.83331H24.2889C24.9077 5.83331 25.5012 6.07915 25.9388 6.51673C26.3764 6.95432 26.6222 7.54781 26.6222 8.16665V9.77665C26.6222 11.2233 26.0845 12.6183 25.1137 13.6909C24.1429 14.7635 22.8082 15.437 21.3687 15.5808L14.9556 16.2225V16.3333C15.5744 16.3333 16.1679 16.5791 16.6055 17.0167C17.0431 17.4543 17.2889 18.0478 17.2889 18.6666V23.3333C17.2889 23.9522 17.0431 24.5456 16.6055 24.9832C16.1679 25.4208 15.5744 25.6666 14.9556 25.6666H12.6222C12.0034 25.6666 11.4099 25.4208 10.9723 24.9832C10.5347 24.5456 10.2889 23.9522 10.2889 23.3333V18.6666C10.2889 18.0478 10.5347 17.4543 10.9723 17.0167C11.4099 16.5791 12.0034 16.3333 12.6222 16.3333V16.2225C12.6223 15.6439 12.8373 15.0859 13.2255 14.6569C13.6138 14.2278 14.1476 13.9584 14.7234 13.9008L21.1377 13.2591C22.0013 13.1726 22.8019 12.7684 23.3842 12.1249C23.9664 11.4814 24.2889 10.6445 24.2889 9.77665V8.16665H23.1222C23.1222 9.0949 22.7535 9.98514 22.0971 10.6415C21.4407 11.2979 20.5505 11.6666 19.6222 11.6666H7.95557C7.02731 11.6666 6.13707 11.2979 5.48069 10.6415C4.82432 9.98514 4.45557 9.0949 4.45557 8.16665V5.83331ZM14.9556 18.6666H12.6222V23.3333H14.9556V18.6666ZM7.95557 4.66665C7.64615 4.66665 7.3494 4.78956 7.13061 5.00836C6.91182 5.22715 6.7889 5.52389 6.7889 5.83331V8.16665C6.7889 8.47607 6.91182 8.77281 7.13061 8.9916C7.3494 9.2104 7.64615 9.33331 7.95557 9.33331H19.6222C19.9317 9.33331 20.2284 9.2104 20.4472 8.9916C20.666 8.77281 20.7889 8.47607 20.7889 8.16665V5.83331C20.7889 5.52389 20.666 5.22715 20.4472 5.00836C20.2284 4.78956 19.9317 4.66665 19.6222 4.66665H7.95557Z" fill="#1060A9"/>
</g>
</g>
<defs>
<clipPath id="clip0_313_5007">
<rect width="28" height="28" fill="white" transform="translate(0.955566)"/>
</clipPath>
</defs>
</svg>
