<svg width="24" height="24" viewBox="0 0 24 24" fill="none" xmlns="http://www.w3.org/2000/svg">
<g id="ph:bell">
<g id="Vector">
<path d="M20.7 16.4906C20.1469 15.5344 19.4812 13.7156 19.4812 10.5V9.83438C19.4812 5.68125 16.1531 2.27813 12.0562 2.25H12C11.0163 2.25123 10.0425 2.4462 9.13416 2.82378C8.22583 3.20135 7.40076 3.75414 6.70606 4.45058C6.01136 5.14702 5.46064 5.97347 5.08534 6.88275C4.71004 7.79202 4.51751 8.76632 4.51874 9.75V10.5C4.51874 13.7156 3.85311 15.5344 3.29999 16.4906C3.16622 16.7185 3.09501 16.9777 3.09359 17.2419C3.09216 17.5061 3.16056 17.7661 3.29187 17.9954C3.42317 18.2247 3.61272 18.4152 3.84133 18.5477C4.06994 18.6803 4.3295 18.75 4.59374 18.75H8.24999C8.24999 19.7446 8.64508 20.6984 9.34834 21.4016C10.0516 22.1049 11.0054 22.5 12 22.5C12.9946 22.5 13.9484 22.1049 14.6516 21.4016C15.3549 20.6984 15.75 19.7446 15.75 18.75H19.4062C19.6704 18.7517 19.9303 18.6831 20.1593 18.5513C20.3883 18.4196 20.5781 18.2293 20.7094 18C20.8395 17.7694 20.9071 17.5088 20.9055 17.2441C20.9038 16.9793 20.833 16.7196 20.7 16.4906ZM12 21C11.404 20.9975 10.8331 20.7597 10.4117 20.3383C9.9903 19.9168 9.75246 19.346 9.74999 18.75H14.25C14.2475 19.346 14.0097 19.9168 13.5883 20.3383C13.1668 20.7597 12.596 20.9975 12 21ZM4.59374 17.25C5.24061 16.125 6.01874 14.0531 6.01874 10.5V9.75C6.01627 8.96295 6.16916 8.18316 6.46864 7.45532C6.76812 6.72747 7.20831 6.06589 7.76396 5.50849C8.31962 4.95109 8.97982 4.50884 9.70673 4.20708C10.4336 3.90533 11.2129 3.75 12 3.75H12.0469C15.3187 3.76875 17.9812 6.50625 17.9812 9.83438V10.5C17.9812 14.0531 18.7594 16.125 19.4062 17.25H4.59374Z" fill="white"/>
<path d="M20.7 16.4906C20.1469 15.5344 19.4812 13.7156 19.4812 10.5V9.83438C19.4812 5.68125 16.1531 2.27813 12.0562 2.25H12C11.0163 2.25123 10.0425 2.4462 9.13416 2.82378C8.22583 3.20135 7.40076 3.75414 6.70606 4.45058C6.01136 5.14702 5.46064 5.97347 5.08534 6.88275C4.71004 7.79202 4.51751 8.76632 4.51874 9.75V10.5C4.51874 13.7156 3.85311 15.5344 3.29999 16.4906C3.16622 16.7185 3.09501 16.9777 3.09359 17.2419C3.09216 17.5061 3.16056 17.7661 3.29187 17.9954C3.42317 18.2247 3.61272 18.4152 3.84133 18.5477C4.06994 18.6803 4.3295 18.75 4.59374 18.75H8.24999C8.24999 19.7446 8.64508 20.6984 9.34834 21.4016C10.0516 22.1049 11.0054 22.5 12 22.5C12.9946 22.5 13.9484 22.1049 14.6516 21.4016C15.3549 20.6984 15.75 19.7446 15.75 18.75H19.4062C19.6704 18.7517 19.9303 18.6831 20.1593 18.5513C20.3883 18.4196 20.5781 18.2293 20.7094 18C20.8395 17.7694 20.9071 17.5088 20.9055 17.2441C20.9038 16.9793 20.833 16.7196 20.7 16.4906ZM12 21C11.404 20.9975 10.8331 20.7597 10.4117 20.3383C9.9903 19.9168 9.75246 19.346 9.74999 18.75H14.25C14.2475 19.346 14.0097 19.9168 13.5883 20.3383C13.1668 20.7597 12.596 20.9975 12 21ZM4.59374 17.25C5.24061 16.125 6.01874 14.0531 6.01874 10.5V9.75C6.01627 8.96295 6.16916 8.18316 6.46864 7.45532C6.76812 6.72747 7.20831 6.06589 7.76396 5.50849C8.31962 4.95109 8.97982 4.50884 9.70673 4.20708C10.4336 3.90533 11.2129 3.75 12 3.75H12.0469C15.3187 3.76875 17.9812 6.50625 17.9812 9.83438V10.5C17.9812 14.0531 18.7594 16.125 19.4062 17.25H4.59374Z" stroke="black"/>
</g>
</g>
</svg>
