<svg width="28" height="28" viewBox="0 0 28 28" fill="none" xmlns="http://www.w3.org/2000/svg">
<g id="ph:heart-bold">
<path id="Vector" d="M14 24.9375C13.7747 24.9364 13.5532 24.88 13.3547 24.7734C12.8844 24.5 1.75 18.1781 1.75 10.0625C1.74849 8.64001 2.18039 7.25082 2.98818 6.07995C3.79597 4.90908 4.9413 4.0121 6.27165 3.50847C7.60199 3.00484 9.05421 2.91846 10.4349 3.26085C11.8155 3.60324 13.0591 4.35813 14 5.42499C14.9409 4.35813 16.1845 3.60324 17.5651 3.26085C18.9458 2.91846 20.398 3.00484 21.7284 3.50847C23.0587 4.0121 24.204 4.90908 25.0118 6.07995C25.8196 7.25082 26.2515 8.64001 26.25 10.0625C26.25 18.1781 15.1156 24.5 14.6453 24.7734C14.4469 24.88 14.2253 24.9364 14 24.9375ZM8.75 5.68749C7.58968 5.68749 6.47688 6.14843 5.65641 6.9689C4.83594 7.78937 4.375 8.90217 4.375 10.0625C4.375 15.6625 11.7469 20.6937 14 22.0937C16.2531 20.6937 23.625 15.6625 23.625 10.0625C23.624 9.05204 23.2733 8.07308 22.6323 7.29189C21.9914 6.5107 21.0999 5.97544 20.1091 5.77703C19.1183 5.57861 18.0894 5.72927 17.1971 6.20342C16.3048 6.67757 15.6041 7.44597 15.2141 8.37812C15.1152 8.61885 14.947 8.82474 14.7308 8.96964C14.5146 9.11455 14.2603 9.19191 14 9.19191C13.7398 9.19191 13.4854 9.11455 13.2692 8.96964C13.053 8.82474 12.8848 8.61885 12.7859 8.37812C12.4549 7.58068 11.8946 6.89938 11.1762 6.42043C10.4578 5.94148 9.61344 5.68641 8.75 5.68749Z" fill="#B8B8B8"/>
</g>
</svg>
