<svg width="28" height="28" viewBox="0 0 28 28" fill="none" xmlns="http://www.w3.org/2000/svg">
<g id="ph:user-bold">
<path id="Vector" d="M25.7469 22.9688C24.2128 20.3237 21.8313 18.2736 18.9875 17.15C20.3832 16.1032 21.4142 14.6438 21.9344 12.9785C22.4546 11.3132 22.4376 9.52648 21.8859 7.87136C21.3342 6.21624 20.2757 4.77666 18.8604 3.75655C17.4451 2.73644 15.7446 2.1875 14 2.1875C12.2554 2.1875 10.5549 2.73644 9.1396 3.75655C7.72426 4.77666 6.66578 6.21624 6.11407 7.87136C5.56236 9.52648 5.54541 11.3132 6.06561 12.9785C6.5858 14.6438 7.61678 16.1032 9.0125 17.15C6.16872 18.2736 3.78717 20.3237 2.25312 22.9688C2.07908 23.2704 2.032 23.6289 2.12225 23.9653C2.2125 24.3017 2.43269 24.5885 2.73437 24.7625C3.03606 24.9365 3.39453 24.9836 3.73092 24.8934C4.06731 24.8031 4.35408 24.5829 4.52812 24.2812C5.48813 22.6187 6.86884 21.2381 8.53149 20.2782C10.1941 19.3183 12.0802 18.813 14 18.813C15.9198 18.813 17.8059 19.3183 19.4685 20.2782C21.1312 21.2381 22.5119 22.6187 23.4719 24.2812C23.588 24.4802 23.754 24.6453 23.9535 24.7604C24.153 24.8755 24.3791 24.9366 24.6094 24.9375C24.8399 24.9393 25.0666 24.8789 25.2656 24.7625C25.4151 24.6764 25.5461 24.5617 25.6512 24.4249C25.7563 24.2881 25.8333 24.132 25.878 23.9654C25.9227 23.7988 25.9342 23.625 25.9116 23.454C25.8891 23.283 25.8331 23.1181 25.7469 22.9688ZM8.3125 10.5C8.3125 9.37512 8.64607 8.2755 9.27102 7.34019C9.89597 6.40489 10.7842 5.67591 11.8235 5.24543C12.8627 4.81496 14.0063 4.70233 15.1096 4.92178C16.2128 5.14124 17.2263 5.68292 18.0217 6.47833C18.8171 7.27374 19.3588 8.28716 19.5782 9.39042C19.7977 10.4937 19.685 11.6373 19.2546 12.6765C18.8241 13.7158 18.0951 14.604 17.1598 15.229C16.2245 15.8539 15.1249 16.1875 14 16.1875C12.4916 16.1875 11.0449 15.5883 9.97833 14.5217C8.91172 13.4551 8.3125 12.0084 8.3125 10.5Z" fill="#B8B8B8"/>
</g>
</svg>
