<svg width="33" height="28" viewBox="0 0 33 28" fill="none" xmlns="http://www.w3.org/2000/svg">
<g id="quill:paper">
<g id="Group">
<path id="Vector" d="M10.9556 7.875H14.9556M10.9556 14H22.9556M10.9556 17.5H22.9556M10.9556 21H14.9556M8.95557 25.375H24.9556C25.486 25.375 25.9947 25.1906 26.3698 24.8624C26.7449 24.5342 26.9556 24.0891 26.9556 23.625V4.375C26.9556 3.91087 26.7449 3.46575 26.3698 3.13756C25.9947 2.80937 25.486 2.625 24.9556 2.625H8.95557C8.42513 2.625 7.91643 2.80937 7.54135 3.13756C7.16628 3.46575 6.95557 3.91087 6.95557 4.375V23.625C6.95557 24.0891 7.16628 24.5342 7.54135 24.8624C7.91643 25.1906 8.42513 25.375 8.95557 25.375Z" stroke="#C65C3B" stroke-width="2" stroke-linecap="round" stroke-linejoin="round"/>
<path id="Vector_2" d="M22.9556 8.3125C23.2317 8.3125 23.4556 8.11662 23.4556 7.875C23.4556 7.63338 23.2317 7.4375 22.9556 7.4375C22.6794 7.4375 22.4556 7.63338 22.4556 7.875C22.4556 8.11662 22.6794 8.3125 22.9556 8.3125Z" fill="black" stroke="#C65C3B"/>
</g>
</g>
</svg>
