<svg width="24" height="24" viewBox="0 0 24 24" fill="none" xmlns="http://www.w3.org/2000/svg">
<g id="Rectangle 317">
<rect width="24" height="24" rx="4" fill="white"/>
<rect id="Rectangle 316" x="0.75" y="0.75" width="22.5" height="22.5" rx="3.25" stroke="black" stroke-opacity="0.75" stroke-width="1.5"/>
<path id="Vector" fill-rule="evenodd" clip-rule="evenodd" d="M19.4907 6.17273C19.6224 6.29172 19.7015 6.45814 19.7105 6.6354C19.7196 6.81266 19.6579 6.98625 19.5389 7.11802L10.5976 17L5.19096 11.8391C5.06956 11.715 5.0011 11.5486 5.00001 11.3751C4.99893 11.2015 5.06531 11.0343 5.18516 10.9087C5.305 10.7831 5.46894 10.709 5.64238 10.702C5.81583 10.6949 5.98522 10.7556 6.11482 10.871L10.5266 15.082L18.5461 6.22027C18.6051 6.15505 18.6764 6.1021 18.7559 6.06445C18.8354 6.02679 18.9215 6.00517 19.0094 6.00082C19.0972 5.99647 19.1851 6.00947 19.2679 6.03908C19.3507 6.0687 19.4269 6.11434 19.4921 6.1734L19.4907 6.17273Z" fill="#495DE2"/>
</g>
</svg>
