<svg width="35" height="34" viewBox="0 0 35 34" fill="none" xmlns="http://www.w3.org/2000/svg">
<g id="tabler:smart-home">
<g id="Group">
<path id="Vector" d="M27.4108 12.4455L19.8603 6.70316C19.1977 6.19913 18.3821 5.92548 17.5426 5.92548C16.7031 5.92548 15.8875 6.19913 15.2249 6.70316L7.67294 12.4455C7.21909 12.7906 6.8519 13.2325 6.5994 13.7375C6.34691 14.2426 6.21579 14.7974 6.21606 15.3595V25.3269C6.21606 26.0612 6.5144 26.7654 7.04543 27.2846C7.57646 27.8039 8.2967 28.0956 9.0477 28.0956H26.0375C26.7885 28.0956 27.5087 27.8039 28.0398 27.2846C28.5708 26.7654 28.8691 26.0612 28.8691 25.3269V15.3595C28.8691 14.2202 28.3311 13.1446 27.4108 12.4455Z" stroke="white" stroke-width="2.83163" stroke-linecap="round" stroke-linejoin="round"/>
<path id="Vector_2" d="M23.1633 21.153C20.0344 22.9984 14.9629 22.9984 11.8368 21.153" stroke="white" stroke-width="2.33917" stroke-linecap="round" stroke-linejoin="round"/>
</g>
</g>
</svg>
