<svg width="28" height="28" viewBox="0 0 28 28" fill="none" xmlns="http://www.w3.org/2000/svg">
<g id="tabler:history">
<g id="Group">
<path id="Vector" d="M14 9.33337V14L16.3333 16.3334" stroke="#B8B8B8" stroke-width="2" stroke-linecap="round" stroke-linejoin="round"/>
<path id="Vector_2" d="M3.55835 12.8334C3.81979 10.2668 5.01699 7.88623 6.92154 6.14598C8.82609 4.40572 11.3047 3.42755 13.8844 3.39809C16.4641 3.36862 18.9644 4.28993 20.9082 5.98623C22.852 7.68252 24.1032 10.0351 24.4232 12.595C24.7432 15.155 24.1095 17.7432 22.6431 19.8657C21.1767 21.9883 18.9801 23.4967 16.4725 24.1032C13.9649 24.7096 11.3218 24.3717 9.04751 23.1538C6.7732 21.9359 5.02686 19.9233 4.14168 17.5M3.55835 23.3334V17.5H9.39168" stroke="#B8B8B8" stroke-width="2.5" stroke-linecap="round" stroke-linejoin="round"/>
</g>
</g>
</svg>
