<svg width="11" height="18" viewBox="0 0 11 18" fill="none" xmlns="http://www.w3.org/2000/svg">
<path id="Vector" d="M7.71875 0.781254L0.435417 8.06458C0.277084 8.22292 0.165195 8.39445 0.0997504 8.57917C0.0332504 8.76389 7.90144e-07 8.96181 7.71688e-07 9.17292C7.53232e-07 9.38403 0.0332503 9.58195 0.0997503 9.76667C0.165195 9.95139 0.277083 10.1229 0.435417 10.2813L7.71875 17.5646C8.00903 17.8549 8.37847 18 8.82708 18C9.2757 18 9.64514 17.8549 9.93542 17.5646C10.2257 17.2743 10.3708 16.9049 10.3708 16.4563C10.3708 16.0076 10.2257 15.6382 9.93542 15.3479L3.76042 9.17292L9.93542 2.99792C10.2257 2.70764 10.3708 2.3382 10.3708 1.88959C10.3708 1.44097 10.2257 1.07153 9.93542 0.781255C9.64514 0.490977 9.2757 0.345836 8.82709 0.345836C8.37847 0.345835 8.00903 0.490977 7.71875 0.781254Z" fill="white"/>
</svg>
