<svg width="12" height="8" viewBox="0 0 12 8" fill="none" xmlns="http://www.w3.org/2000/svg">
<path id="Vector" d="M5.86667 0C3.2 0 0.922667 1.65867 0 4C0.922667 6.34133 3.2 8 5.86667 8C8.53333 8 10.8107 6.34133 11.7333 4C10.8107 1.65867 8.53333 0 5.86667 0ZM5.86667 6.66667C4.39467 6.66667 3.2 5.472 3.2 4C3.2 2.528 4.39467 1.33333 5.86667 1.33333C7.33867 1.33333 8.53333 2.528 8.53333 4C8.53333 5.472 7.33867 6.66667 5.86667 6.66667ZM5.86667 2.4C4.98133 2.4 4.26667 3.11467 4.26667 4C4.26667 4.88533 4.98133 5.6 5.86667 5.6C6.752 5.6 7.46667 4.88533 7.46667 4C7.46667 3.11467 6.752 2.4 5.86667 2.4Z" fill="white"/>
</svg>
