<svg width="11" height="18" viewBox="0 0 11 18" fill="none" xmlns="http://www.w3.org/2000/svg">
<path id="Vector" d="M2.6521 0.781254L9.93543 8.06458C10.0938 8.22292 10.2057 8.39445 10.2711 8.57917C10.3376 8.76389 10.3708 8.96181 10.3708 9.17292C10.3708 9.38403 10.3376 9.58195 10.2711 9.76667C10.2057 9.95139 10.0938 10.1229 9.93543 10.2813L2.6521 17.5646C2.36182 17.8549 1.99238 18 1.54377 18C1.09515 18 0.72571 17.8549 0.435431 17.5646C0.145154 17.2743 1.42094e-05 16.9049 1.41702e-05 16.4563C1.41309e-05 16.0076 0.145154 15.6382 0.435431 15.3479L6.61043 9.17292L0.43543 2.99792C0.145153 2.70764 1.29359e-05 2.3382 1.28967e-05 1.88959C1.28575e-05 1.44097 0.145153 1.07153 0.43543 0.781255C0.725708 0.490977 1.09515 0.345836 1.54376 0.345836C1.99237 0.345835 2.36182 0.490977 2.6521 0.781254Z" fill="white"/>
</svg>
